<svg width="258" height="243" viewBox="0 0 258 243" fill="none" xmlns="http://www.w3.org/2000/svg">
<path d="M122.68 111.395C122.871 111.361 123.062 111.328 123.254 111.287C131.423 109.647 151.148 93.7667 157.351 95.6705C159.061 97.161 159.469 98.8819 159.641 101.077C160.013 105.813 159.542 111.653 158.459 116.28C168.74 114.688 205.161 111.931 213.192 118.035C213.944 118.604 214.216 119.085 214.55 119.945C212.897 122.412 209.961 122.798 207.18 123.347C196.274 125.487 186.561 126.246 179.745 136.375C179.659 136.497 179.576 136.632 179.49 136.761C185.022 137.005 196.5 136.09 200.56 140.094C201.431 140.955 201.325 141.246 201.266 142.378C196.42 149.769 176.541 153.597 170.026 162.689C164.284 161.341 152.923 157.283 147.724 160.392C146.626 161.043 146.529 161.409 145.955 162.547C146.242 164.2 146.316 165.067 147.779 166.138C156.18 172.283 174.051 165.691 183.2 168.468C188.035 169.938 189.341 175.846 192.896 178.807C201.083 185.616 213.045 186.741 216.17 199.715C216.724 202.018 216.73 204.593 215.473 206.68C214.149 208.875 211.745 209.979 209.32 210.487C204.412 211.503 200.215 209.864 196.156 207.167C191.588 204.132 182.814 194.491 176.881 195.867C176.118 196.043 175.46 196.429 174.789 196.815C176.327 199.64 179.035 201.937 180.789 204.674C182.444 207.255 184.785 212.371 183.768 215.48C180.019 226.93 153.323 210.223 145.789 213.644C146.402 215.257 149.822 216.93 151.331 218.048C153.156 219.389 153.865 220.23 154.193 222.425C152.132 225.846 147.146 225.934 143.577 226.124C130.165 226.835 126.227 226.842 115.348 235.019C112.345 237.276 109.388 239.545 105.925 241.07C103.349 242.201 100.577 242.824 97.7635 242.892C92.4685 243.055 87.1302 241.3 81.8372 240.934C74.6894 240.433 64.3136 243.055 57.8157 240.29C56.4426 239.708 56.4135 239.444 55.8639 238.075C57.6849 228.935 86.2227 216.991 94.7009 209.457C96.3606 207.987 97.119 206.483 97.2681 204.274C96.6039 202.872 96.2772 202.154 94.644 201.673C84.809 198.773 73.5244 214.762 65.6751 219.058C63.7023 220.142 62.0555 220.785 59.8217 220.114C55.971 215.46 60.6424 210.65 58.591 206.368C58.3856 206.32 58.1824 206.253 57.9736 206.212C52.9531 205.304 42.8165 216.314 38.8607 219.464C35.4925 222.147 29.2955 226.022 24.7284 225.263C23.2313 225.013 23.0822 224.525 22.2575 223.366C21.7221 220.155 23.0883 216.618 23.9355 213.515C19.8943 211.652 14.2997 211.212 11.1064 207.953C11.0494 203.997 19.4293 200.182 21.9572 196.957L21.8061 195.975C15.9974 194.078 9.04543 196.68 3.07817 194.81C1.31747 194.254 0.838331 193.929 0 192.343C0.243299 191.327 0.584872 190.44 1.24225 189.613C4.3638 185.697 9.67096 183.102 13.9948 180.745C38.7699 167.222 43.3255 173.231 68.6178 170.982C73.6694 170.528 77.8807 169.403 81.2022 165.379C71.8145 158.604 61.1724 162.953 50.5581 161.124C52.4143 153.638 59.899 150.691 65.3119 145.934C67.652 143.882 69.6336 141.47 69.6865 138.177C69.7902 131.673 63.0083 125.874 58.8716 121.639C61.9816 119.376 64.5067 116.483 67.1186 113.685C72.4685 114.038 77.7757 114.254 83.1371 114.282C86.1597 108.062 87.6906 101.124 89.7671 94.5391C93.132 98.5634 94.4237 104.092 98.858 106.788C100.606 109.044 100.1 118.916 100.929 122.235C101.577 124.823 102.524 127.256 104.898 128.719C107.127 128.902 107.396 128.678 109.355 127.547L111.882 129.688C113.257 129.837 113.855 130.02 115.107 129.288C119.534 126.7 121.389 115.948 122.68 111.395Z" fill="#FE92C4"/>
<path d="M183.365 15.3049C190.642 10.0272 197.206 4.31584 206.799 5.74537C209.598 6.16542 211.781 6.9919 213.641 9.22766C214.178 11.2399 214.409 12.3849 213.211 14.2955C208.704 21.4973 186.116 32.0799 187.092 41.9376C189.298 43.1367 191.081 42.6693 193.418 41.985C203.893 38.9159 217.39 33.3739 228.006 39.2276C229.279 39.9322 230.141 40.9281 231.006 42.0731C231.106 43.8685 230.156 44.8509 228.946 46.1381C225.882 49.3969 221.454 51.321 217.395 53.0079C197.701 61.1854 183.203 63.1909 174.75 85.5011C173.288 89.3629 170.709 94.7761 170.653 98.9156C170.629 100.684 170.817 101.192 172.055 102.378C174.73 102.025 176.226 100.183 177.789 98.1094C183.432 90.6298 188.639 73.4482 199.219 72.5675C201.096 72.4049 201.647 72.8995 202.852 74.119C203.212 76.619 203.09 79.1122 205.166 80.7179C214.449 81.0566 227.153 68.5906 235.888 72.0391C236.677 73.2315 236.91 73.5228 236.68 74.9659C236.376 76.8697 234.464 79.2884 233.377 80.8466C237.156 81.016 243.489 80.5282 246.705 82.4184C246.952 83.4347 247.138 83.5634 246.557 84.4509C239.646 95.0742 213.946 93.2923 210.057 102.052C212.313 104.01 216.311 103.57 219.158 103.367C228.674 102.676 243.618 99.2815 252.1 104.837L253.073 106.3C251.31 109.566 246.578 109.79 244.984 113.021C247.691 116.869 256.567 116.68 257.7 121.178C253.141 126.693 244.497 129.295 237.627 129.952C229.642 130.724 206.175 126.07 201.239 132.188C201.097 132.364 200.974 132.554 200.842 132.737C203.437 135.331 220.754 137.127 225.584 138.597C231.216 140.311 237.181 143.055 241.893 146.558C244.178 148.258 246.574 150.216 247.24 153.109C246.744 154.674 246.461 155.115 244.981 155.934C237.409 160.128 224.774 157.222 216.354 157.764C226.848 164.525 245.05 170.108 248.732 183.617C249.02 184.674 248.899 185.684 248.685 186.734C247.6 188.116 247.106 188.658 245.228 188.908C229.867 190.982 210.573 173.908 196.857 168.434C188.7 165.175 178.699 164.159 170.026 162.689C176.541 153.597 196.42 149.769 201.266 142.378C201.325 141.246 201.431 140.955 200.56 140.094C196.5 136.09 185.022 137.005 179.49 136.761C179.576 136.632 179.659 136.497 179.745 136.375C186.561 126.246 196.274 125.487 207.18 123.347C209.961 122.798 212.897 122.412 214.55 119.945C214.216 119.085 213.944 118.604 213.192 118.035C205.161 111.931 168.74 114.688 158.459 116.28C159.542 111.653 160.013 105.813 159.641 101.077C159.469 98.8819 159.061 97.161 157.351 95.6705C151.148 93.7667 131.423 109.647 123.254 111.287C123.062 111.328 122.871 111.361 122.68 111.395C125.685 100.501 135.773 88.1298 136.2 78.9428C136.529 71.8629 129.319 56.111 137.282 51.7817C138.767 50.9755 140.338 51.1313 141.898 51.6597C144.278 52.4727 147.541 54.6136 150 54.0378C151.306 52.7031 151.461 51.2329 151.417 49.424C151.243 42.1883 145.046 31.687 150.192 25.4539C151.737 24.668 152.356 24.309 154.125 24.9661C157.35 26.1653 159.641 29.4376 163.349 29.397C165.559 28.5975 166.772 27.0122 167.736 24.9458C169.977 20.1287 171.722 13.6857 176.369 10.5962C178.115 10.393 178.958 10.2304 180.404 11.5042C181.52 12.4933 182.489 14.0854 183.365 15.3049Z" fill="#FE92C4"/>
<path d="M83.553 6.53814C85.5679 4.23463 87.5454 1.61266 90.5368 0.582858C93.0139 -0.277571 95.4103 -0.243627 97.7145 1.07751C105.367 5.46095 107.387 18.8416 109.553 26.7752C112.34 24.824 114.364 21.9717 116.836 19.6546C118.443 18.1505 119.849 17.3714 122.065 17.4459C124.459 18.5299 125.339 20.3524 126.229 22.7169C132.058 38.2385 120.507 43.828 115.151 56.1721C112.501 62.2832 115.054 65.6775 117.224 71.2872C119.854 78.0826 113.922 88.0419 111.258 94.2139C106.403 105.474 104.732 115.874 109.355 127.547C107.396 128.678 107.127 128.902 104.898 128.719C102.524 127.256 101.577 124.823 100.929 122.235C100.1 118.916 100.606 109.044 98.858 106.788C94.4237 104.092 93.132 98.5634 89.7671 94.5391C87.6906 101.124 86.1597 108.062 83.1371 114.282C77.7757 114.254 72.4685 114.038 67.1186 113.685C64.5067 116.483 61.9816 119.376 58.8716 121.639C63.0083 125.874 69.7902 131.673 69.6865 138.177C69.6336 141.47 67.652 143.882 65.3119 145.934C59.899 150.691 52.4143 153.638 50.5581 161.124C50.2118 160.955 49.8659 160.779 49.5305 160.582C49.376 160.494 49.2235 160.399 49.0683 160.311C45.738 158.38 44.5452 154.444 41.5755 151.951C36.6973 150.203 28.8087 155.094 23.7001 155.88C22.5399 156.056 20.7209 156.3 19.6332 155.826C14.1179 153.421 5.33952 145.853 0.0587806 142.1C0.0547144 140.738 0.110296 140.359 0.898476 139.234C7.47297 129.803 24.4917 128.326 35.001 126.809C30.9747 122.967 19.009 117.479 17.9436 111.883C17.6936 110.569 18.254 110.23 18.9873 109.268C28.558 104.505 43.0624 109.526 53.1522 111.165L57.8223 105.853L68.3282 102.866C58.2519 92.6082 32.8005 88.0757 28.091 81.9849C27.2656 80.9145 27.3875 80.5826 27.5522 79.336C30.3546 76.5311 35.9918 75.6436 39.7924 74.5731C37.8142 72.7913 35.5852 70.9959 33.8374 68.9973C32.221 67.1409 31.8381 65.5013 32.0231 63.1774C39.6467 55.9485 57.7755 66.0569 67.0263 65.752C68.9185 65.6842 69.582 65.5149 70.892 64.1666C70.282 55.2914 54.8837 49.8577 50.7456 42.1003C50.6717 40.7317 50.4196 40.1626 51.4159 39.038C53.4788 36.7074 58.9385 36.8836 61.917 36.6329C63.8526 34.9188 65.9691 33.4012 68.0388 31.8497C70.4094 32.8388 72.8241 33.8619 74.8742 35.4405C78.4681 38.1979 82.4971 44.6139 86.6698 45.7724C88.0347 45.2372 88.2502 45.1491 88.831 43.7737C89.9215 41.1924 89.6998 37.6153 89.4911 34.8782C88.2441 18.5571 76.5035 20.5082 73.2545 11.5991L73.8882 10.3389C76.5096 8.20479 80.3508 7.48665 83.553 6.53814Z" fill="#FE92C4"/>
</svg>
