<svg width="124" height="300" viewBox="0 0 124 300" fill="none" xmlns="http://www.w3.org/2000/svg">
<path d="M37.7384 117.7C39.414 111.966 42.6432 104.014 44.6854 98.9862C53.5296 77.2103 44.2139 80.0727 32.8991 65.5621C31.5029 63.7717 28.5777 51.5014 26.2407 48.106C25.0483 46.3733 24.8654 43.4001 25.8618 40.953C28.3053 38.8911 27.434 39.0203 30.1461 38.7012C35.2817 42.5472 33.0736 57.6508 38.0317 64.1409C40.3996 67.2402 41.2949 67.9993 44.1545 70.704C42.847 65.5321 41.2972 60.0579 43.8589 55.3159C46.3394 53.6455 45.0451 53.9539 47.775 54.0231C52.3526 57.3255 47.7519 62.5782 49.1303 66.3819C50.789 70.9578 52.1682 73.7718 53.5358 78.6953C53.5798 80.9118 54.4049 81.6485 55.7008 83.4704C59.5598 83.3266 61.5704 81.96 62.8462 85.8568C53.4556 96.9136 52.8026 97.2912 48.1841 111.22C56.3684 104.37 63.263 101.94 70.7588 93.6482C76.9225 86.8289 73.7395 66.0282 83.0753 67.4148C85.1831 71.2455 82.0458 79.5267 80.2636 83.2836C77.4581 93.4059 76.4084 99.3107 66.6396 104.856L71.4179 105.712C84.3658 100.365 83.5423 83.0913 91.3399 86.0914C93.3165 90.2874 89.398 94.4418 87.1737 97.9534C79.8893 109.447 73.4184 110.893 60.4072 112.434C47.5095 116.934 45.1617 122.643 42.3631 135.459C42.0629 140.658 41.6546 145.619 42.049 150.825C44.5566 148.318 47.041 145.967 49.1303 143.049C51.8656 139.229 52.0732 132.29 55.7254 130.622C67.8243 134.696 49.331 150.412 46.0508 155.762C42.5013 161.553 41.858 170.592 40.6856 177.071C41.2575 178.78 41.7052 177.071 42.424 175.413C44.7341 170.086 46.2877 161.957 50.3745 159.983C52.7169 160.713 51.8247 160.013 53.048 162.261C53.1368 171.166 44.8522 178.449 42.2573 187.37C35.1003 211.979 58.4499 233.139 68.5475 257.145C71.4565 249.906 74.1107 242.861 70.5712 235.192C67.8328 229.257 62.4263 221.86 65.4773 215.152C73.9132 212.969 76.2394 238.233 76.6847 243.461C77.577 236.963 79.2765 226.905 77.712 220.779C76.0997 214.468 69.3626 206.593 66.6674 200.221C64.7587 195.707 65.1709 191.151 63.6442 186.458C62.4263 182.711 60.6496 180.017 62.8686 176.377C65.2944 175.41 64.0541 175.492 66.7253 176.389C69.3942 178.864 69.574 182.118 69.3186 185.634L70.7374 192.35L71.6041 192.494C72.1567 191.323 74.9628 185.977 75.6343 184.81C78.1604 183.737 77.1231 183.933 80.3933 185.057L81.0609 184.617L81.558 180.061C79.1962 174.359 71.5529 155.627 79.0071 151.815C81.808 152.317 80.6179 151.692 82.6038 153.927C84.5333 161.995 81.2415 162.614 85.1052 172.856C88.8986 165.323 90.1204 163.889 91.8886 155.354C93.856 145.859 86.5871 134.66 94.1964 130.8C95.6296 131.3 97.1995 131.874 97.6657 133.582C99.2726 139.468 98.1272 154.056 96.0062 159.7C89.4289 177.207 80.7831 206.346 87.5681 224.32C88.627 213.953 90.9393 208.585 94.2489 198.912C95.8534 194.224 91.3638 186.222 100.277 184.992C105.033 191.078 97.7328 210.056 95.5393 217.052C108.667 204.847 106.848 195.747 110.763 179.188C112.001 173.949 110.509 165.918 117.002 165.709C124.786 171.945 108.448 190.746 111.7 203.183C116.279 202.2 118.123 184.827 123.143 183.306C125.044 186.181 123.252 191.253 122.815 194.499C121.443 204.331 115.159 206.268 108.314 211.672C96.5928 220.926 91.8948 231.254 86.8873 244.568C78.8612 265.911 75.5586 274.441 76.9209 297.528L63.2884 300C63.3386 277.045 63.185 255.275 39.0196 244.941C34.1703 242.868 25.8795 243.132 23.8852 237.92C24.6994 235.071 24.3645 236.007 26.832 233.726C28.398 233.38 28.4798 233.27 30.0597 233.245L40.6869 240.677C27.4148 228.209 18.3953 210.158 12.5311 193.777C9.29794 184.746 -4.59002 162.057 1.54665 152.74C4.06352 151.685 2.70822 151.931 5.81476 152.591C10.3607 156.477 6.68922 163.331 8.06073 167.813C9.54261 172.653 13.1485 179.84 15.3327 184.454C21.7681 162.181 19.8131 159.621 14.3471 137.6C13.1894 132.934 12.998 117.394 12.7556 111.794C12.6167 108.595 12.6769 105.679 15.0302 103.321C20.0192 104.11 19.0497 111.549 18.9085 115.166C20.9847 117.481 18.5913 117.964 20.7701 121C24.2433 115.473 27.8222 110.454 29.9493 104.254C32.1906 97.7219 27.1075 86.5397 33.9179 83.7596C41.22 87.0089 34.2946 105.637 31.6642 110.966C26.4954 121.437 19.9165 127.516 20.6714 139.795C22.7282 135.563 22.6773 130.19 26.9925 128.257C29.8752 128.715 28.6657 128.114 30.7689 130.085C33.0573 136.802 24.9619 143.998 24.9086 149.131C24.5721 181.359 11.3185 193.977 31.9575 221.368C31.3702 215.632 29.4005 201.758 29.2245 196.824C26.7864 179.987 32.5457 133.252 37.7384 117.7Z" fill="#FC4505"/>
<path d="M61.9518 112.434C63.9531 109.612 64.8083 109.937 67.7851 109.936L63.561 106.482C67.4062 102.949 69.7864 103.166 73.6115 98.4134C77.7538 93.2669 77.8094 87.2605 81.8082 83.2837C79.0026 93.4061 77.9529 99.3109 68.1841 104.856L72.9624 105.713C85.9103 100.365 85.0868 83.0914 92.8844 86.0915C94.861 90.2875 90.9426 94.442 88.7182 97.9535C81.4338 109.447 74.9629 110.893 61.9518 112.434Z" fill="#FC4505"/>
<path d="M37.7384 117.7C38.9702 124.662 31.9792 166.719 31.3093 177.071C31.0028 181.8 30.0411 193.358 29.2245 196.824C26.7864 179.987 32.5457 133.252 37.7384 117.7Z" fill="#FC4505"/>
<path d="M71.6041 192.494C72.1567 191.323 74.9628 185.977 75.6343 184.81C78.1604 183.737 77.1231 183.933 80.3933 185.057C78.3735 195.324 77.5381 194.006 74.7905 199.938L73.8751 200.035C70.0793 196.096 68.1007 190.776 69.3186 185.634L70.7374 192.35L71.6041 192.494Z" fill="#FC4505"/>
<path d="M42.049 150.825C41.7572 151.784 43.5783 151.282 42.4762 152.131C40.3969 148.885 41.2289 135.455 43.637 133.902L42.3631 135.459C42.0629 140.658 41.6546 145.619 42.049 150.825Z" fill="#FC4505"/>
<path d="M53.5358 78.6953C63.6211 57.4593 59.5948 59.2209 52.7743 39.193C49.9888 31.0149 51.8597 16.3904 48.2268 7.33244C47.252 4.30388 49.41 1.57141 51.7532 0.0563621C54.798 0.029445 53.418 -0.366625 56.0067 1.39837C58.3784 6.04118 53.2204 39.5653 59.9707 42.9484C62.452 37.0843 60.4932 22.749 66.1043 19.7005C68.9445 20.7802 68.0562 20.4303 70.2373 23.0412C71.4398 28.1501 66.5689 31.9962 66.7063 36.922C67.2427 56.1431 68.76 61.9195 61.7906 80.3147C74.6134 63.7914 65.8009 42.4723 74.6829 37.1212C77.0123 37.9995 76.0444 37.3165 77.632 39.3238C78.0789 44.5534 75.7295 56.2131 74.7809 62.0587C79.0128 57.8228 86.2778 51.2873 88.7793 46.0392C91.6319 40.0521 86.0671 30.6765 95.3458 28.3808C96.6687 29.2622 97.0199 29.2122 97.1565 31.1087C97.98 42.5261 93.0582 51.8072 84.6393 58.9287C88.743 58.0135 92.5233 57.3098 96.4248 55.724C97.8774 51.6272 98.9332 46.07 104.477 47.8688C110.831 59.4593 90.0566 62.0826 83.6653 63.9806C75.4115 66.4324 68.3855 80.1896 62.8462 85.8568C61.5704 81.96 59.5598 83.3266 55.7008 83.4704C54.4049 81.6485 53.5798 80.9118 53.5358 78.6953Z" fill="#FC4505"/>
</svg>
