<svg width="213" height="312" viewBox="0 0 213 312" fill="none" xmlns="http://www.w3.org/2000/svg">
<path d="M78.6323 21.9003C79.5391 16.1896 78.1281 3.44916 79.4422 1.18358C81.3689 1.80418 82.0832 2.18224 84.0635 2.105L85.9414 0.00676098L87.1979 0C92.3912 8.02435 90.699 29.363 100.272 46.4524C103.544 41.9741 109.312 29.7011 115.945 30.6381C119.936 34.1651 114.989 42.7613 115.589 46.7782C115.73 47.7288 118.3 48.0309 120.304 49.1651C121.412 52.682 118.194 56.0987 115.801 58.7125C110.468 64.537 102.848 80.6466 117.791 79.4414C117.193 85.8648 116.69 92.2956 116.279 98.7333C119.684 97.2069 121.813 95.9894 124.93 94.0944C128.826 91.7259 146.615 74.4671 150.662 80.1365C150.155 81.5484 149.788 82.1019 150.174 83.5464L152.415 84.2645L152.733 85.5836C151.227 88.9346 148.872 89.4461 146.845 92.3519C147.105 92.9691 148.442 96.0904 147.899 96.7259C144.137 101.121 132.302 107.613 130.061 112.502C133.462 121.2 116.183 119.485 112.46 130.403C106.501 147.877 105.708 164.478 105.011 182.65C114.35 171.331 117.187 162.2 124.294 149.774C126.168 146.497 131.819 138.974 135.909 138.092C137.496 137.749 139.347 139.379 140.627 140.396L141.108 140.783C150.656 140.771 151.549 125.746 167.31 119.562C171.916 121.518 176.546 123.417 181.199 125.26C177.431 128.768 166.257 133.576 165.289 137.875C165.979 139.674 169.723 141.478 171.896 143.179C174.695 151.75 149.81 153.883 146.252 161.201C146.805 162.394 147.401 163.566 148.039 164.715C145.868 167.686 134.282 170.068 129.471 172.234C121.185 175.963 104.871 203.946 109.449 212.007C115.928 211.565 122.37 195.644 140.221 198.28C146.595 193.069 160.404 177.782 169.721 186.988C171.252 192.353 166.799 192.993 166.341 198.028L167.164 198.596C180.615 197.717 194.676 176.442 202.873 174.736C206.843 177.122 203.247 180.545 205.662 184.329C209.092 184.922 210.156 184.805 212.199 187.157C211.913 189.345 210.889 190.781 209.22 192.368C205.67 194.269 202.246 196.097 198.774 198.154C201.597 199.824 202.101 199.51 203.413 201.984C201.099 207.431 189.946 206.404 185.122 209.735L185.316 210.553C190.71 213.148 198.112 215.636 201.674 220.189L201.851 221.584C199.512 223.491 194.103 223.044 191.186 222.765C185.129 222.153 179.183 220.735 173.502 218.549C174.833 220.926 176.36 223.019 176.266 225.687C175.744 226.83 175.683 227.553 174.376 228.002C167.835 230.25 146.081 211.798 124.094 219.659C121.109 220.727 117.391 222.565 115.796 225.414C114.273 228.137 112.971 231.719 113.534 234.863L114.588 236.145C119.61 235.515 122.987 228.975 130.319 233.941C130.914 235.095 131.535 235.73 130.982 237.008C127.091 246.001 114.743 244.971 114.159 256.932C114.051 259.145 113.958 260.653 114.974 262.802C116.941 264.412 115.986 264.055 118.579 264.104L118.914 262.331C143.607 268.432 121.76 286.121 113.29 295.117C113.082 300.526 112.968 306.397 112.468 311.742C111.983 308.779 111.531 305.81 111.113 302.837L110.193 302.332L110.105 304.574C107.177 301.916 107.565 291.063 106.115 287.917C103.585 282.43 101.534 279.566 99.4096 273.651C102.63 262.419 105.82 250.065 101.977 238.322C97.184 223.675 81.7444 239.059 69.6499 233.005C68.3934 229.059 77.7486 228.078 79.2714 223.576C77.7154 221.972 74.015 221.706 71.7189 221.346C50.5784 218.034 35.6267 231.766 17.0906 235.127C16.2509 235.279 15.807 234.352 15.1516 233.54C15.2018 225.434 11.1992 229.913 8.8604 225.723C10.7905 221.452 19.6279 219.943 22.5421 217.628C27.1343 213.978 40.0162 215.689 41.7051 212.099C39.6021 209.625 30.3432 207.58 26.9133 206.626C13.826 202.983 10.5852 199.059 3.5905 188.277C7.79436 186.396 9.94475 185.956 14.3682 184.912C12.4943 181.819 10.4754 180.095 12.4841 176.873C20.5394 174.082 32.23 186.851 40.0935 188.564C41.6129 188.894 43.1954 187.842 44.3956 187.053C49.9115 183.431 74.1811 213.803 92.3607 213.677L93.1516 212.818C93.1415 212.381 93.1564 211.288 92.8582 210.845C87.5551 202.948 83.7924 193.946 79.2328 185.919C78.5178 184.66 70.9335 179.715 69.5604 177.613C67.6283 174.656 69.0955 172.581 67.6947 170.799C64.1767 166.321 53.2431 164.679 47.9556 163.468C45.1445 153.207 40.6499 155.841 36.6792 149.136C38.2216 144.272 45.1438 146.228 47.6798 142.419C47.2955 140.766 46.1021 139.681 44.7534 138.663C38.2725 133.454 31.864 141.579 25.6602 141.822C21.1372 141.999 16.0333 138.184 15.9337 133.329C16.6568 130.917 18.6432 130.014 20.8424 128.496C15.3041 125.211 2.00806 122.256 0 115.651L0.946084 114.566C2.92568 114.038 4.02494 113.983 5.3397 112.448C6.09535 107.798 1.43877 104.397 4.18419 100.641C13.0751 98.0361 26.1705 118.513 35.5867 115.256C37.3996 112.659 36.4786 111.95 37.2674 108.306L38.4358 107.876C46.4823 110.6 45.4061 120.728 52.2666 121.78C54.3593 120.43 53.4546 119.796 55.323 117.287C57.0072 118.003 60.515 120.889 62.1429 122.173C70.5648 128.813 74.5864 131.942 84.9445 134.911C84.3895 123.093 82.9866 111.039 72.4441 103.8C68.3026 100.955 60.4357 99.5944 56.0211 96.1771C56.9523 94.5531 61.4381 92.4135 63.354 91.3512C58.6452 86.1019 55.1299 83.6683 48.8007 80.6724C46.7608 79.7069 43.2198 78.045 42.3367 75.9766L43.091 74.816C46.1888 73.0193 50.7776 72.7693 54.4325 72.2991C54.0361 68.873 52.8921 62.6508 54.5322 59.8859C59.5039 58.8608 62.1659 72.31 64.7731 75.398C82.7786 96.7231 90.5973 109.008 97.426 135.833C107.087 111.605 103.941 92.3437 91.9846 69.667C90.3025 66.4773 85.6378 63.541 83.4156 59.764C97.6862 44.4666 70.4062 33.5798 68.9207 23.6178L69.7468 22.531C72.2076 21.4105 75.8259 21.8129 78.6323 21.9003Z" fill="#CCF5CB"/>
</svg>
