<svg width="158" height="644" viewBox="0 0 158 644" fill="none" xmlns="http://www.w3.org/2000/svg">
<path d="M39.9916 0.567711C40.8275 -0.226936 41.1964 0.0241295 42.3256 0.0891952C46.5012 3.1339 47.5899 10.8572 48.3539 15.681C51.4993 35.5406 45.761 55.0392 47.9349 74.7064C49.6361 90.0924 54.9238 105.174 58.8041 120.106C64.0116 140.14 67.4095 163.494 67.0394 184.252L68.2757 185.072L68.8851 184.808C70.5387 169.625 73.8454 155.051 74.1693 139.665C74.641 117.227 68.5153 95.2008 65.4974 73.0736C63.8004 60.6346 63.1213 42.5594 71.266 32.1781C72.4472 30.6727 73.5597 29.7431 75.4789 29.5384C75.6808 29.7145 75.8915 29.8828 76.0853 30.0677C80.6217 34.3987 80.4218 54.4582 81.8646 61.597C82.8433 66.4411 85.2424 70.9604 87.0912 75.5267C89.7043 81.9831 92.0316 88.3717 93.8187 95.1058C100.788 121.366 98.9801 149.232 98.8256 176.162L101.3 176.135C105.139 159.74 110.18 143.988 111.295 127.05C112.282 112.071 109.83 97.0506 108.747 82.1322C107.397 63.5279 109 45.0051 112.651 26.7484C113.433 22.8338 114.601 14.6395 118.084 12.2835C119.334 11.4387 119.75 11.7535 121.052 12.0794C123.703 14.4094 125.141 17.8729 126.01 21.2386C128.459 30.7209 128.153 41.1867 129.472 50.9007C131.835 68.3042 135.775 85.472 136.872 103.053C139.032 137.66 128.629 178.371 124.249 213.31C122.846 224.516 121.272 236.962 121.854 248.283L121.91 249.069C122.303 254.963 120.387 268.133 122.897 272.842L124.163 273.561C127.664 264.225 129.88 254.685 131.477 244.848C132.961 235.715 135.545 192.254 139.904 187.491L141.329 187.45C144.61 189.177 146.432 192.206 147.666 195.6C149.83 201.555 150.028 208.473 151.156 214.712C153.205 226.054 157.563 236.365 157.054 248.174C156.605 258.56 153.644 268.269 154.064 278.831C154.815 297.72 158.065 315.763 156.785 334.827C155.361 356.013 149.189 369.916 146.05 389.38C144.479 399.116 144.183 409.028 142.749 418.79C140.791 432.11 137.703 445.186 135.927 458.58C133.834 474.373 131.818 497.333 127.01 511.947C123.3 523.214 115.644 533.763 108.666 543.275C105.411 547.712 101.612 552.211 99.3509 557.258C98.3161 559.562 98.0053 561.073 98.8841 563.444C104.43 569.121 116.003 567.705 123.27 569.338C125.975 569.948 128.314 570.863 129.852 573.309C130.304 575.158 130.168 576.337 129.292 578.037C124.381 587.57 110.826 591.845 101.31 594.792C99.1738 598.593 96.1142 604.847 95.6703 609.156C95.4691 611.107 95.6157 611.641 96.8558 613.091C100.621 614.161 120.046 605.74 127.787 605.056C134.845 604.433 142.411 605.226 147.946 610.05C149.661 611.541 151.02 613.031 151.206 615.402C150.8 617.129 150.153 618.363 148.953 619.677C145.507 623.457 140.295 625.605 135.84 627.976C120.283 636.241 106.741 642.34 88.9007 643.282C76.9968 643.912 53.4534 644.92 42.8402 640.178C37.8451 637.949 34.1324 634.372 29.6449 631.405C26.6317 629.413 22.4656 627.726 19.9125 625.226C18.3787 623.722 17.5835 621.35 17.7074 619.23C17.8602 616.601 19.4703 614.481 21.3373 612.767C32.1262 602.882 48.9226 599.901 63.0375 600.334C52.9994 593.898 37.4563 593.911 29.1586 585.639C27.0053 583.491 25.8068 580.775 25.9613 577.712C26.3141 570.707 32.2952 565.253 36.9691 560.721C40.3837 532.137 23.729 515.802 16.433 490.233C12.4691 476.337 10.6153 462.069 7.79235 447.944C5.75542 437.747 2.83877 427.733 1.59997 417.388C-2.64976 381.894 6.25743 345.471 6.13317 309.841C6.05856 288.446 1.15225 267.619 0.717156 246.359C0.526186 237.023 1.29688 227.619 1.61657 218.29C2.36538 196.441 3.35955 174.225 2.80993 152.368C2.23927 129.679 -1.91073 105.722 1.06286 83.1751C2.08526 75.4241 10.9183 21.4116 14.684 18.516C16.9952 20.9622 16.1331 39.1061 16.6957 43.8695C17.5575 51.1661 19.1202 58.3177 20.7318 65.4788C21.8363 64.8894 22.4764 63.0733 23.0384 61.9622C22.8578 39.7825 28.2384 35.6716 34.4379 16.3324C35.8532 11.917 36.6203 3.77091 39.9916 0.567711ZM98.1957 267.646C93.632 284.394 87.9671 300.749 85.7523 318.032C83.3139 337.063 83.9419 356.141 80.7621 375.193C71.9423 428.058 48.1183 470.578 66.4574 525.104C67.7111 527.732 68.8878 530.802 70.7582 533.031C71.4874 534.176 72.1782 535.26 73.1019 536.263C73.2578 532.903 72.4902 529.786 71.765 526.534C70.9904 514.196 70.46 502.401 71.5443 490.043C73.5381 467.333 79.8226 445.301 83.6273 422.882C87.9253 397.571 90.2819 371.812 93.4252 346.325C96.0764 324.827 99.9454 303.628 100.317 281.901C101.724 275.566 101.083 267.808 101.143 261.318L99.475 260.708L98.1957 267.646ZM116.302 385.179L115.279 389.149C114.482 404.298 111.951 418.959 108.353 433.688C104.425 449.758 94.7225 479.549 95.43 494.833C94.6419 500.172 94.2668 506.479 95.1322 511.825L95.8724 512.055L96.4769 510.484C100.262 500.66 107.307 491.12 110.218 481.432C113.313 471.127 112.89 458.22 114.233 447.401C115.902 433.959 119.145 420.395 119.664 406.859C119.954 399.311 119.177 391.961 117.882 384.529L116.302 385.179ZM40.9847 19.5355C17.235 60.7433 33.9099 96.7935 41.7435 139.618C50.5931 187.992 45.2018 221.494 35.9711 268.608C34.8377 274.387 33.2883 288.615 30.1644 293.141C28.0149 288.358 28.504 280.871 28.0638 275.573C26.2543 253.798 28.6325 233.737 31.5502 212.274C37.5726 167.972 35.119 139.232 16.0853 98.6292C15.9886 108.622 16.5606 118.609 17.7982 128.528C19.8333 143.737 23.0052 158.182 23.0912 173.669C23.2261 197.991 16.1906 221.677 17.597 246.006C18.5014 261.65 22.9597 276.725 24.9838 292.199C26.899 306.846 25.9618 321.928 25.7318 336.663L27.6312 336.061C45.9827 273.805 71.5706 212.911 60.4398 146.542C55.9466 119.747 45.7075 94.3268 42.3656 67.2064C40.4165 51.3908 42.394 35.4648 40.9847 19.5355Z" fill="#00A426"/>
</svg>
