<svg width="129" height="336" viewBox="0 0 129 336" fill="none" xmlns="http://www.w3.org/2000/svg">
<path d="M89.7326 293.425C89.459 293.164 89.1429 292.891 88.9607 292.55C87.8146 290.4 86.0348 280.201 86.4237 278.03C86.6143 276.965 86.7107 276.216 87.6181 275.606C87.217 282.389 89.4653 287.173 89.7326 293.425Z" fill="#C51578"/>
<path d="M79.366 257.399C79.3689 260.984 79.4851 264.607 79.286 268.188C78.8091 264.67 79.1972 260.938 79.366 257.399Z" fill="#B478CE"/>
<path d="M92.155 74.3882L92.6857 76.5858L93.1596 76.829C93.0637 78.2394 92.9938 78.3446 92.5931 79.6447C92.0119 78.0412 92.1621 76.1411 92.155 74.3882Z" fill="#C894D3"/>
<path d="M66.7221 92.272L67.5327 93.3336C67.2633 94.4305 67.2052 95.1959 66.438 96.0075C66.0689 94.7099 66.4502 93.626 66.7221 92.272Z" fill="#EBC2E6"/>
<path d="M51.5474 52.7173C51.9178 53.8424 51.6981 53.5033 52.3972 54.405C51.4822 58.7788 50.6341 62.5366 50.1901 66.995L49.4473 65.3389C50.1346 61.1636 50.9616 56.8912 51.5474 52.7173Z" fill="#EBC2E6"/>
<path d="M32.0402 84.3379C33.2308 87.8508 30.956 90.9127 32.1984 93.3001L32.0637 93.8816L31.2354 95.4077C30.4959 93.2786 31.5519 86.711 32.0402 84.3379Z" fill="#FAF2F5"/>
<path d="M32.0622 93.8813L32.5887 94.5802C31.656 96.1244 31.1333 96.966 30.417 98.6397C30.3079 96.6302 30.2629 96.8944 31.2339 95.4075L32.0622 93.8813Z" fill="#431054"/>
<path d="M29.3248 140.826C29.3059 143.38 29.2407 146.092 29.3354 148.63C28.8101 146.123 28.9149 143.343 29.3248 140.826Z" fill="#B478CE"/>
<path d="M109.19 122.278L108.234 123.463L107.883 123.161L108.3 120.441L109.19 122.278Z" fill="#B478CE"/>
<path d="M6.16606 193.124C4.99434 190.204 2.69807 184.773 3.89419 181.766C5.15051 180.637 4.45057 180.882 6.00065 180.837C10.8264 183.504 12.1804 193.385 15.6173 197.449L16.3828 197.483L16.7246 196.759C16.7119 193.49 15.7991 190.898 14.6648 187.89L15.2965 187.62L16.2549 189.611L21.6534 189.682C22.1286 191.853 22.6715 195.964 24.1858 197.222C25.9384 201.657 26.9173 203.344 29.0966 207.451L29.5141 207.691C29.9396 206.618 29.1989 204.451 28.9026 203.071C27.9531 200.908 27.031 197.693 26.2915 195.362C26.462 193.873 25.6547 191.231 25.273 189.661C28.169 189.421 30.8929 189.602 33.7873 189.733C35.4561 195.489 42.4051 223.141 45.5954 225.51C47.2856 227.509 47.6522 228.03 49.8626 229.49C50.7073 229.221 50.6177 229.187 51.3866 228.691C53.8374 224.849 52.6795 215.635 52.4645 210.939C52.164 204.678 51.9893 198.413 51.9409 192.144C51.898 190.881 52.0238 190.545 52.3033 189.35L55.4106 189.518C56.7262 189.64 58.1509 189.724 59.4375 189.964L60.8689 189.754L66.9337 189.775L66.7666 191.239L67.3445 191.517C66.156 198.674 56.9396 235.84 68.1985 238.974C71.5558 237.792 72.4047 228.544 73.5116 225.039C73.8887 223.011 74.2313 220.882 74.7755 218.9C74.9956 214.356 74.5857 209.496 74.3188 204.931C74.2284 204.657 73.2119 197.184 73.0373 196.132C73.1774 194.167 72.4055 191.508 71.9548 189.505L82.4712 189.459L82.4506 189.707L83.3024 189.484C85.0166 206.386 87.1741 227.408 78.0007 242.807C81.6055 251.866 80.0815 257.795 80.1454 267.313C90.7241 252.237 90.7342 236.677 91.8942 219.001C92.456 209.298 93.0432 203.155 91.9485 193.435C92.2195 192.434 92.0747 190.734 92.0512 189.623C93.5482 189.623 99.7351 189.72 100.834 189.463L101.027 189.733C101.255 190.368 101.53 190.991 101.621 191.643C101.465 196.128 101.388 200.614 101.391 205.103C101.402 207.123 101.332 208.73 101.716 210.729L102.35 211.305L103.541 210.434C107.065 206.441 108.686 194.883 110.143 189.531H117.228C114.667 195.918 111.896 206.963 109.278 214.473L109.559 215.008C108.203 218.433 106.244 222.716 104.296 225.851C95.531 239.946 101.132 263.997 87.6181 275.606C87.217 282.389 89.4653 287.173 89.7326 293.425C89.7881 293.585 89.8475 293.745 89.9001 293.905C92.1412 300.704 88.4716 308.842 96.3984 313.155C98.8319 314.48 102.677 315.342 104.253 317.648C106.44 321.364 106.901 326.366 105.788 330.515C105.288 332.383 104.621 333.557 103.179 334.824C102.549 335.215 101.976 335.472 101.214 335.476C96.6484 335.526 87.9451 327.145 84.4203 324.052C82.7342 322.815 81.5512 321.612 80.3251 319.933C77.2856 316.285 74.9771 304.205 73.3622 299.24C70.4914 290.417 68.3159 281.459 63.9257 273.191C58.0368 262.104 50.4443 256.406 42.2271 247.234C38.7978 243.405 35.3955 240.994 31.9527 236.542C28.278 233.172 26.1101 223.006 23.2759 220.074C13.8736 210.342 10.7553 206.462 6.16606 193.124Z" fill="#B478CE"/>
<path d="M82.4506 189.707L83.3024 189.484C85.0166 206.386 87.1741 227.408 78.0007 242.807C81.6055 251.866 80.0815 257.795 80.1454 267.313C90.7241 252.237 90.7342 236.677 91.8942 219.001L92.356 219.194C92.816 222.708 92.1653 226.873 91.9936 230.424C91.4301 242.05 88.8358 257.269 81.5896 266.778C81.0786 267.443 80.5466 268.091 79.9936 268.722C79.3581 268.465 79.5671 268.672 79.286 268.188C79.4851 264.607 79.3689 260.984 79.366 257.399C79.4771 251.134 79.5803 248.505 76.9902 242.858C83.9599 231.51 84.1413 217.124 83.9322 204.173C83.8568 199.507 82.2868 194.643 82.4506 189.707Z" fill="#B478CE"/>
<path d="M6.16606 193.124C4.99434 190.204 2.69807 184.773 3.89419 181.766C5.15051 180.637 4.45057 180.882 6.00065 180.837C10.8264 183.504 12.1804 193.385 15.6173 197.449L15.3719 197.921C13.3912 196.553 11.8361 192.144 10.8332 189.779L5.59789 189.674C6.0095 191.037 6.59746 192.03 6.16606 193.124Z" fill="#B478CE"/>
<path d="M6.16606 193.124C4.99434 190.204 2.69807 184.773 3.89419 181.766C5.15051 180.637 4.45057 180.882 6.00065 180.837C10.8264 183.504 12.1804 193.385 15.6173 197.449L15.3719 197.921C13.3912 196.553 11.8361 192.144 10.8332 189.779C10.0339 187.721 7.67532 182.087 5.55201 181.652C3.91438 183.537 5.09242 187.465 5.59789 189.674C6.0095 191.037 6.59746 192.03 6.16606 193.124Z" fill="#B478CE"/>
<path d="M73.5106 225.038L73.9213 225.842C73.6722 228.413 71.8128 237.766 70.059 239.437C67.6688 240.43 64.9197 239.033 64.1196 236.79C59.4205 223.621 63.1785 204.165 66.7656 191.239L67.3435 191.516C66.1549 198.674 56.9386 235.839 68.1974 238.974C71.5548 237.792 72.4037 228.543 73.5106 225.038Z" fill="#B478CE"/>
<path d="M52.302 189.35L55.4093 189.518C54.5196 189.909 53.5423 190.073 53.1488 191.037C50.1345 198.413 57.7873 226.234 51.18 229.907C50.5659 230.252 50.523 230.113 49.9055 229.966L49.8613 229.49C50.706 229.221 50.6164 229.187 51.3853 228.691C53.8361 224.849 52.6783 215.635 52.4632 210.939C52.1627 204.678 51.988 198.413 51.9396 192.143C51.8967 190.881 52.0225 190.545 52.302 189.35Z" fill="#B478CE"/>
<path d="M74.3188 204.931L74.9513 204.969C75.8773 209.134 76.0953 214.987 75.1361 219.207L74.7755 218.9C74.9956 214.356 74.5857 209.496 74.3188 204.931Z" fill="#B478CE"/>
<path d="M15.2965 187.62L16.2549 189.611C17.0571 192.224 17.9477 194.866 17.6607 197.614L17.1392 198.434C15.9961 198.573 16.5806 198.602 15.3719 197.921L15.6173 197.449L16.3828 197.483L16.7246 196.759C16.7119 193.49 15.7991 190.898 14.6648 187.89L15.2965 187.62Z" fill="#B478CE"/>
<path d="M101.026 189.732C101.254 190.368 101.529 190.99 101.62 191.643C101.464 196.128 101.387 200.613 101.39 205.103C100.292 199.637 100.21 195.236 101.026 189.732Z" fill="#B478CE"/>
<path d="M28.9026 203.071C30.2136 204.649 30.7559 208.625 31.1031 210.716L28.9465 208.078L29.0966 207.451L29.5141 207.691C29.9396 206.618 29.1989 204.451 28.9026 203.071Z" fill="#B478CE"/>
<path d="M74.5288 58.0694C75.1761 48.3175 76.0027 38.5015 77.3175 28.8148C77.7818 25.3961 77.2557 14.662 81.831 15.3925C86.4013 18.9799 84.892 27.6854 83.6004 32.6773C79.6033 48.1247 81.0671 59.9124 82.262 75.4519C82.6311 80.8899 82.6584 86.3454 82.3428 91.7867C82.1597 95.3442 81.8483 100.5 81.275 103.919C79.27 115.874 76.8356 122.342 79.1345 134.661C82.1109 124.551 82.4897 114.251 83.7275 103.928C85.5722 88.5435 86.757 75.3964 86.0629 59.8202C85.7919 53.7289 82.0827 40.5561 85.3234 36.6847C93.2952 34.7016 92.0813 69.0125 92.155 74.3882L92.6857 76.5858L93.1596 76.829C94.0371 74.2548 94.1395 73.6612 96.4708 72.4405C105.426 72.2133 92.0292 96.522 91.294 100.575C89.7435 109.121 90.076 117.509 88.6046 126.044C87.6719 132.169 83.3925 140.527 83.235 146.084C82.826 160.549 84.243 174.946 83.3007 189.484L82.4489 189.708L82.4695 189.459L71.9531 189.506L71.8617 188.71L71.6252 187.806L71.5776 183.898L71.3378 180.906C71.7309 179.176 72.1825 178.728 73.3975 177.491C73.9413 177.085 74.4396 177.237 75.2847 177.216C76.1471 176.233 75.8121 174.364 75.8281 172.705C75.6058 165.284 75.5827 155.843 74.6113 148.625C73.6172 141.239 70.5191 133.741 70.6589 125.862C70.8007 117.843 74.2182 109.199 74.8849 101.408C75.5377 93.7799 76.3693 83.4973 76.0124 75.9821C75.7363 70.1583 74.818 64.1827 74.5288 58.0694Z" fill="#B478CE"/>
<path d="M74.5288 58.0694C75.1761 48.3175 76.0027 38.5015 77.3175 28.8148C77.7818 25.3961 77.2557 14.662 81.831 15.3925C86.4013 18.9799 84.892 27.6854 83.6004 32.6773C79.6033 48.1247 81.0671 59.9124 82.262 75.4519C82.6311 80.8899 82.6584 86.3454 82.3428 91.7867C82.1597 95.3442 81.8483 100.5 81.275 103.919C79.27 115.874 76.8356 122.342 79.1345 134.661C82.1109 124.551 82.4897 114.251 83.7275 103.928C85.5722 88.5435 86.757 75.3964 86.0629 59.8202C85.7919 53.7289 82.0827 40.5561 85.3234 36.6847C93.2952 34.7016 92.0813 69.0125 92.155 74.3882L92.6857 76.5858L93.1596 76.829C94.0371 74.2548 94.1395 73.6612 96.4708 72.4405C105.426 72.2133 92.0292 96.522 91.294 100.575C89.7435 109.121 90.076 117.509 88.6046 126.044C87.6719 132.169 83.3925 140.527 83.235 146.084C82.826 160.549 84.243 174.946 83.3007 189.484L82.4489 189.708L82.4695 189.459C83.4181 174.877 81.6025 159.265 82.5499 144.801C82.8609 140.053 86.6761 131.569 87.5709 126.004C89.2885 117.743 88.8933 109.547 90.2485 101.199C91.2662 94.929 102.228 77.9555 97.3979 73.2232C94.8268 74.3386 94.0238 78.3442 92.2254 81.1869C90.0154 76.9831 91.6799 60.6247 91.1038 55.1123C90.6618 50.8845 89.8702 41.9185 87.2633 37.973C86.9775 37.5401 86.4215 37.729 85.8853 37.7593C85.1724 38.4514 84.6223 40.0865 84.8032 41.2062C89.0747 67.6657 86.2123 93.1188 82.9863 119.459C82.5107 123.343 81.5347 132.399 79.3651 134.449L78.7043 134.229C74.6101 127.778 79.56 109.543 80.7418 101.908C84.2283 79.532 76.3895 57.6832 82.1425 35.6252C83.097 31.9654 85.9724 17.2017 80.8159 15.9874C78.2241 17.5068 78.5204 28.8063 78.0183 31.7176C75.3428 47.2319 75.1286 61.1852 76.9787 76.7853C77.6888 82.7732 76.1509 92.5731 76.0166 98.9742C75.8285 107.939 71.3575 117.818 71.573 126.936C71.5671 135.203 76.0831 145.739 76.0368 153.686C76.0074 158.7 77.8622 176.157 76.121 179.313L75.5835 179.26C75.4253 177.602 76.616 177.142 75.9291 173.252L75.8281 172.705C75.6058 165.284 75.5827 155.843 74.6113 148.625C73.6172 141.239 70.5191 133.741 70.6589 125.862C70.8007 117.843 74.2182 109.199 74.8849 101.408C75.5377 93.7799 76.3693 83.4973 76.0124 75.9821C75.7363 70.1583 74.818 64.1827 74.5288 58.0694Z" fill="#B478CE"/>
<path d="M71.3378 180.906C71.7309 179.176 72.1825 178.728 73.3975 177.491C72.3824 180.138 72.1349 181.108 71.5776 183.898L71.3378 180.906Z" fill="#B478CE"/>
<path d="M71.3378 180.906L71.5776 183.898L71.6252 187.806L71.8617 188.71L71.9531 189.506C72.4038 191.508 73.1761 194.167 73.036 196.132C71.3108 190.28 69.9312 186.991 71.3378 180.906Z" fill="#B478CE"/>
<path d="M51.9396 192.143C51.3828 178.667 49.4767 163.661 51.0154 150.261C52.7284 135.346 58.9136 120.128 60.3955 104.945C60.8382 100.411 60.2524 95.5926 60.9249 91.0307C62.2376 82.1303 65.1951 73.5914 66.6017 64.7226C67.4851 59.493 66.2726 48.087 68.909 44.5143C70.3345 43.844 69.6194 43.9248 71.1219 44.2029C73.1859 46.0623 73.1918 49.4364 73.8471 52.3295C73.4919 59.2506 72.5003 66.1242 70.8854 72.8635C69.5512 78.5673 67.14 86.6165 66.7208 92.2719L67.5314 93.3335C68.1939 91.4746 68.4674 90.1256 69.8534 88.7535L70.8593 88.4775C79.3639 93.6058 67.0125 113.325 66.2212 119.945C65.3908 126.89 67.9956 135.703 68.8239 142.704C70.5167 156.411 71.1996 178.345 67.3435 191.516L66.7656 191.239L66.9321 189.774C67.8193 183.564 69.0032 176.725 69.3525 170.506C70.2957 153.7 66.1067 137.272 65.2414 120.736C64.9695 115.538 78.3925 93.4084 70.5369 89.1835C68.9359 90.4113 66.6408 99.1615 65.7902 101.68C63.7844 84.9254 75.1324 65.2772 72.2536 47.986C72.0087 46.5167 71.2578 45.543 70.0041 44.8399C67.8706 46.3395 68.334 51.7047 68.1467 54.2111C67.7865 57.7287 68.2288 63.284 67.3479 66.5853C63.8942 79.5321 61.0571 90.6604 61.3096 104.243C61.3698 107.496 59.1867 116.613 58.5499 120.343C56.7738 130.74 52.3925 141.276 51.6118 151.92C50.9182 159.58 51.6551 166.957 51.8281 174.565C51.9115 178.243 53.065 186.29 52.302 189.35C52.0225 190.545 51.8967 190.881 51.9396 192.143Z" fill="#B478CE"/>
<path d="M68.909 44.5143C70.3336 43.8443 69.6196 43.9259 71.1219 44.204C73.1854 46.0632 73.1919 49.4366 73.8471 52.3295L73.8475 52.3329C73.4921 59.2529 72.5011 66.1259 70.8865 72.8641C69.5524 78.5678 67.1401 86.6165 66.7208 92.2719L67.5314 93.3335C68.1939 91.4746 68.4674 90.1256 69.8534 88.7535L70.8601 88.4784C79.3643 93.6067 67.0141 113.326 66.2225 119.946C65.3922 126.891 67.9966 135.704 68.825 142.704C70.5177 156.411 71.2004 178.346 67.3445 191.517C66.156 198.674 56.94 235.838 68.1974 238.974C56.9388 235.839 66.1538 198.675 67.3426 191.517L66.7644 191.239L66.9314 189.775L60.867 189.754L59.4353 189.965C58.1489 189.725 56.7248 189.64 55.4093 189.518L52.302 189.35C52.0226 190.544 51.8964 190.882 51.9392 192.144C51.3824 178.668 49.4767 163.661 51.0154 150.261C52.7284 135.346 58.9136 120.128 60.3955 104.945C60.8382 100.411 60.2524 95.5926 60.9249 91.0307C62.2376 82.1303 65.1951 73.5914 66.6017 64.7226C67.4851 59.493 66.2726 48.087 68.909 44.5143ZM69.1101 238.409C69.0981 238.42 69.0851 238.43 69.073 238.44C69.0988 238.418 69.1238 238.394 69.1492 238.37C69.1357 238.383 69.1237 238.397 69.1101 238.409ZM71.9548 189.505C72.4055 191.508 73.1774 194.167 73.0373 196.132C73.2119 197.184 74.2274 204.649 74.3188 204.931C74.5857 209.496 74.9956 214.356 74.7755 218.9C74.2314 220.881 73.8876 223.011 73.5106 225.038C73.0238 226.58 72.5869 229.232 71.9646 231.82C72.2135 230.785 72.432 229.739 72.6365 228.759C72.7388 228.269 72.8375 227.795 72.9344 227.347C73.1281 226.45 73.3148 225.655 73.5096 225.039C73.8866 223.011 74.2291 220.882 74.7732 218.9C74.9933 214.356 74.584 209.497 74.3172 204.932C74.2261 204.653 73.2096 197.184 73.035 196.133C73.1749 194.168 72.4038 191.508 71.9531 189.506L71.9548 189.505ZM77.3175 28.8148C77.7818 25.3961 77.2557 14.662 81.831 15.3925C86.4013 18.9799 84.892 27.6854 83.6004 32.6773C79.6033 48.1247 81.0671 59.9124 82.262 75.4519C82.6311 80.8899 82.6584 86.3454 82.3428 91.7867C82.1597 95.3442 81.8483 100.5 81.275 103.919C79.27 115.874 76.8356 122.342 79.1345 134.661C82.1109 124.551 82.4897 114.251 83.7275 103.928C85.5722 88.5435 86.757 75.3964 86.0629 59.8202C85.7919 53.7289 82.0827 40.5561 85.3234 36.6847C93.2947 34.7025 92.0814 69.0112 92.155 74.3882L92.6857 76.5858L93.1596 76.829C94.0371 74.2548 94.1395 73.6612 96.4708 72.4405C105.425 72.2137 92.0309 96.5196 91.294 100.575C89.7435 109.121 90.076 117.509 88.6046 126.044C87.6719 132.169 83.3925 140.527 83.235 146.084C82.826 160.549 84.243 174.946 83.3007 189.484L82.4489 189.708L82.4695 189.459L71.9531 189.506L71.8631 188.711L71.6252 187.806L71.5789 183.897L71.3378 180.906C71.7309 179.176 72.1825 178.728 73.3975 177.491C73.9412 177.085 74.441 177.237 75.2859 177.217C76.1479 176.233 75.8121 174.363 75.8281 172.705C75.6058 165.284 75.5827 155.843 74.6113 148.625C73.6172 141.239 70.5203 133.741 70.66 125.862C70.8019 117.843 74.2182 109.199 74.8849 101.408C75.5377 93.78 76.3703 83.4973 76.0135 75.9823C75.7374 70.1587 74.8192 64.1823 74.5301 58.0692C74.5298 58.0677 74.5293 58.0659 74.5291 58.0643C75.1763 48.3144 76.003 38.4995 77.3175 28.8148ZM60.7439 144.224C56.9045 154.328 58.332 167.575 59.2351 178.172C59.4452 180.638 59.4181 184.169 60.3377 186.432C63.2118 178.584 62.8903 152.472 61.1551 144.668L60.7439 144.224ZM73.8484 52.33C74.8436 53.8997 74.1889 55.9038 74.5291 58.0643C74.529 58.066 74.5289 58.0677 74.5288 58.0694C74.1869 55.9079 74.8416 53.9036 73.8475 52.3329L73.8484 52.33Z" fill="#B478CE"/>
<path d="M54.1211 7.38778C54.971 5.09698 58.5807 -1.55952 61.7081 0.335043C64.4744 5.97361 57.5703 15.539 55.9688 21.21C53.0489 31.5487 52.3727 42.066 51.5474 52.7173C51.9178 53.8424 51.6981 53.5033 52.3972 54.405C53.9181 49.7717 62.4545 29.0506 67.2608 27.6886C70.9316 28.9269 69.6122 34.4466 68.4102 37.0802C65.3816 43.7146 57.6885 50.688 57.462 58.5343L57.8897 59.3302C59.7304 59.838 59.4095 59.4616 60.4961 60.6759C62.2213 66.4221 57.4211 70.6762 56.1836 75.3487C54.2212 82.7607 55.1441 91.952 53.6329 99.6544C51.6539 109.738 49.3757 119.438 47.2979 129.469C45.3442 143.704 46.0541 158.251 38.7403 171.65C37.4011 174.104 35.8368 176.129 34.1377 178.386C33.9299 186.477 34.6753 190.419 36.9209 198.182C39.6208 207.51 41.9639 216.451 45.5938 225.51C42.4035 223.14 35.455 195.489 33.7862 189.732C30.8919 189.602 28.1675 189.421 25.2715 189.661C25.6533 191.231 26.4604 193.873 26.2901 195.362C22.5684 185.311 20.0223 168.407 19.1582 157.369C19.0089 155.457 19.8769 149.221 19.9522 146.838C20.1252 141.36 20.2773 135.791 20.4903 130.318C20.6177 127.037 18.9533 122.202 19.2618 119.492C20.1225 111.921 21.8737 110.142 21.2862 102.211C18.8127 96.7155 14.479 73.7117 24.3018 72.6339L25.0479 73.2452C26.4258 77.4422 24.1318 82.273 24.4502 86.0333L24.9053 85.9913C26.2758 82.9421 25.8557 78.7942 27.045 75.1339C30.085 65.9613 34.6812 57.5992 37.4522 48.3253C38.5727 44.5741 38.0054 32.0836 42.3047 31.7061C45.1805 33.3933 44.9339 36.1757 45.0938 39.1593C45.9665 55.4732 33.216 68.7477 32.0391 84.338C33.2294 87.8506 30.9552 90.9126 32.1973 93.2999C40.9892 75.7629 44.7537 69.1385 45.3379 49.0977C45.7016 36.626 49.7744 19.108 54.1211 7.38778ZM49.4473 65.3389C48.4671 70.0963 47.5482 74.812 45.9043 79.3995C40.7402 93.7952 33.2843 107.56 30.3975 122.677C29.5509 127.111 30.3377 131.709 30.1416 136.118C29.7254 145.486 30.6626 154.631 30.8145 163.975C39.6389 150.925 38.4958 138.73 41.1182 124.114C42.5829 115.952 46.1402 108.287 47.4815 100.174C48.7015 89.5734 48.1316 77.7764 50.1901 66.995L49.4473 65.3389Z" fill="#B478CE"/>
<path d="M21.2862 102.211C18.8127 96.7159 14.4782 73.711 24.3018 72.6339L25.0479 73.2452C26.4258 77.4422 24.1318 82.273 24.4502 86.0333L24.9053 85.9913C26.2758 82.9421 25.8557 78.7942 27.045 75.1339C30.085 65.9613 34.6812 57.5992 37.4522 48.3253C38.573 44.5746 38.0047 32.0827 42.3047 31.7061C45.1805 33.3933 44.9339 36.1757 45.0938 39.1593C45.9665 55.4732 33.216 68.7477 32.0391 84.338C33.2294 87.8506 30.9552 90.9126 32.1973 93.2999L32.0622 93.8813L31.2339 95.4075C30.2629 96.8944 30.3079 96.6302 30.417 98.6397L29.9776 98.4569C29.51 91.4071 31.0125 81.9383 33.0268 75.3046C35.9923 65.5366 42.3374 56.6661 43.5849 46.3082C43.9818 43.0094 44.7987 35.7913 42.7491 32.9276L41.8446 32.5914C40.4326 33.6631 39.8686 35.7787 39.8332 37.4668C39.5369 51.7179 31.3362 63.4803 27.6422 76.8732C27.0828 78.9021 26.2331 86.6546 25.1131 87.6123C23.877 87.2798 24.4456 87.6017 23.5656 86.2927C22.9713 81.8911 25.9877 76.8576 24.1758 74.001L23.4182 73.7023C14.9944 78.4965 20.7255 94.599 21.8547 101.801L21.9473 102.435L22.2188 103.796C22.6872 110.712 20.917 112.199 20.2411 118.642C19.7798 122.183 21.8202 127.108 21.478 130.415C20.9431 135.579 21.4604 141.824 20.8101 146.823C18.9578 161.071 22.0245 175.57 25.2715 189.661C25.6533 191.231 26.4604 193.873 26.2901 195.362C22.5684 185.311 20.0223 168.407 19.1582 157.369C19.0089 155.457 19.8769 149.221 19.9522 146.838C20.1252 141.36 20.2773 135.791 20.4903 130.318C20.6177 127.037 18.9533 122.202 19.2618 119.492C20.1225 111.921 21.8737 110.142 21.2862 102.211Z" fill="#B478CE"/>
<path d="M97.1592 167.319C98.732 161.198 100.492 153.002 99.9996 146.981C98.7997 133.078 99.4045 120.567 103.191 107.087C104.271 103.244 103.921 95.5091 108.346 94.4312C116.095 96.1748 109.527 115.041 108.3 120.441L109.19 122.278C110.608 119.729 111.895 117.759 115.175 118.082C116.239 118.855 116.465 119.039 116.709 120.573C117.627 126.645 110.681 131.172 109.674 136.628C108.94 140.602 108.872 145.74 108.789 149.634C108.518 162.407 107.975 173.604 102.453 185.31C102.027 186.215 101.754 190.36 101.621 191.643C101.53 190.991 101.255 190.368 101.027 189.733L100.834 189.463C99.7351 189.72 93.5482 189.623 92.0512 189.623C92.0747 190.734 92.2195 192.434 91.9485 193.435C90.1088 185.836 90.7758 180.29 90.2072 173.16C89.2072 162.228 87.9668 151.369 89.3381 140.388C89.6899 137.572 89.2854 132.961 91.7446 131.503C99.1192 132.792 96.7699 152.015 96.6659 157.392C96.6032 160.708 96.7682 164.025 97.1592 167.319Z" fill="#B478CE"/>
<path d="M97.1592 167.319C98.732 161.198 100.492 153.002 99.9996 146.981C98.7997 133.078 99.4045 120.567 103.191 107.087C104.271 103.244 103.921 95.5091 108.346 94.4312C116.095 96.1748 109.527 115.041 108.3 120.441L109.19 122.278C110.608 119.729 111.895 117.759 115.175 118.082C116.239 118.855 116.465 119.039 116.709 120.573C117.627 126.645 110.681 131.172 109.674 136.628C108.94 140.602 108.872 145.74 108.789 149.634C108.518 162.407 107.975 173.604 102.453 185.31C102.027 186.215 101.754 190.36 101.621 191.643C101.53 190.991 101.255 190.368 101.027 189.733L100.834 189.463C101.709 181.508 104.773 178.971 106.299 171.414C108.734 159.215 106.399 145.683 109.668 133.841C110.399 131.193 120.133 121.139 113.822 118.753C111.465 119.49 108.58 124.619 106.64 127.039C107.195 119.221 109.599 112.092 110.905 104.437C111.341 101.876 111.569 95.8575 108.264 95.5306C104.117 97.6723 105.71 101.061 104.627 105.957C103.169 112.546 100.89 119.58 100.532 126.24C100.041 135.388 101.112 144.975 100.548 154.139C100.203 159.732 98.6537 164.829 96.9306 170.117C93.6524 156.334 98.7265 146.657 94.1886 134.554C93.8401 133.625 93.0434 132.654 92.0375 132.295L91.3376 132.771C90.3704 135.18 89.2732 151.99 89.5489 154.477C90.8061 165.82 91.031 178.309 92.0512 189.623C92.0747 190.734 92.2195 192.434 91.9485 193.435C90.1088 185.836 90.7758 180.29 90.2072 173.16C89.2072 162.228 87.9668 151.369 89.3381 140.388C89.6899 137.572 89.2854 132.961 91.7446 131.503C99.1192 132.792 96.7699 152.015 96.6659 157.392C96.6032 160.708 96.7682 164.025 97.1592 167.319Z" fill="#B478CE"/>
<path d="M118.984 164.449C120.428 155.749 120.51 147.271 121.432 138.549C121.631 136.659 122.945 135.924 124.723 136.09C129.468 138.976 128.15 149.863 127.721 154.649C127.05 162.138 127.516 169.117 124.642 176.228C122.372 181.844 119.374 186.649 117.1 192.194C114.299 200.563 113.358 206.786 109.557 215.008L109.276 214.473C111.894 206.963 114.666 195.918 117.226 189.531H110.142C108.685 194.883 107.063 206.441 103.539 210.434C104.361 207.35 105.791 204.013 106.686 200.757C110.622 186.689 111.569 172.536 111.572 158.006C111.573 154.157 109.558 141.628 113.372 140.195C120.657 142.12 118.668 158.422 118.171 163.763L118.984 164.449Z" fill="#B478CE"/>
<path d="M118.984 164.449C120.428 155.749 120.51 147.271 121.432 138.549C121.631 136.659 122.945 135.924 124.723 136.09C129.468 138.976 128.15 149.863 127.721 154.649C127.05 162.138 127.516 169.117 124.642 176.228C122.372 181.844 119.374 186.649 117.1 192.194C114.299 200.563 113.358 206.786 109.557 215.008L109.276 214.473C111.894 206.963 114.666 195.918 117.226 189.531C119.404 184.848 125.65 174.621 125.654 169.435C125.657 163.985 130.522 137.63 123.307 136.77C121.269 138.763 121.585 155.631 120.623 159.879C119.43 165.143 119.411 168.007 117.007 173.405C116.57 167.104 120.848 143.092 113.212 141.502L112.473 142.145C111.24 145.343 112.21 153.077 112.395 156.92C112.399 158.855 112.361 160.984 112.427 162.9C112.293 170.052 111.489 182.687 110.142 189.531C108.685 194.883 107.063 206.441 103.539 210.434C104.361 207.35 105.791 204.013 106.686 200.757C110.622 186.689 111.569 172.536 111.572 158.006C111.573 154.157 109.558 141.628 113.372 140.195C120.657 142.12 118.668 158.422 118.171 163.763L118.984 164.449Z" fill="#B478CE"/>
<path d="M112.396 156.92C112.763 159.321 112.964 160.42 112.428 162.9C112.362 160.984 112.4 158.855 112.396 156.92Z" fill="#B478CE"/>
<path d="M8.28599 143.833C9.92278 136.607 7.93751 126.422 8.8769 118.973C9.19508 116.452 9.53599 112.979 12.7515 113.488C15.9851 117.08 15.5124 120.697 15.7153 125.136C16.2599 137.039 12.1686 148.195 13.762 160.13C14.3655 164.65 15.4442 169.845 17.3664 174.092C22.1635 181.935 21.8765 188.803 24.1858 197.222C22.6715 195.964 22.1286 191.853 21.6534 189.682L16.2549 189.611L15.2965 187.62L14.6648 187.89C9.52467 178.575 8.98213 171.174 7.15343 161.115C6.27801 158.094 4.1227 155.107 2.97876 152.26C1.0339 147.418 -2.94003 136.521 3.63278 133.723C7.11889 137.242 6.0785 140.377 8.28599 143.833Z" fill="#B478CE"/>
<path d="M8.28599 143.833C9.92278 136.607 7.93751 126.422 8.8769 118.973C9.19508 116.452 9.53599 112.979 12.7515 113.488C15.9851 117.08 15.5124 120.697 15.7153 125.136C16.2599 137.039 12.1686 148.195 13.762 160.13C14.3655 164.65 15.4442 169.845 17.3664 174.092C22.1635 181.935 21.8752 188.803 24.1846 197.222C22.6702 195.964 22.1273 191.853 21.6522 189.682C20.4876 182.976 19.6088 180.919 16.7233 174.824C13.1021 167.174 11.9893 156.203 12.7771 147.724C13.7081 137.698 17.2469 123.455 12.5511 113.879C10.8142 114.91 9.96445 115.629 9.86555 117.834C9.49938 126.018 9.57008 134.713 9.4758 142.893L8.28599 143.833Z" fill="#B478CE"/>
</svg>
