<svg width="172" height="513" viewBox="0 0 172 513" fill="none" xmlns="http://www.w3.org/2000/svg">
<path d="M78.1071 16.7637C107.486 1.19138 129.951 -2.02848 148.685 32.6406C160.339 54.2082 157.008 78.8307 152.663 101.736C151.089 109.569 150.262 116.924 150.222 124.835C150.173 134.699 157.537 148.422 157.64 157.178C157.953 183.74 153.15 200.401 162.253 226.823C168.484 244.912 164.86 274.031 158.767 291.633C149.103 319.858 129.702 342.101 114.933 367.839C101.815 390.698 89.2845 417.534 81.3512 442.825C80.0711 446.904 80.6377 452.839 81.5065 456.958C83.3038 439.953 89.9042 425.345 97.8151 410.291C98.8439 408.333 101.308 404.668 101.991 402.961C113.254 384.628 127.442 368.645 140.198 351.402C146.562 342.805 151.512 333.334 157.655 324.648C156.666 337.094 154.705 348.726 149.549 360.196C145.202 369.864 138.601 377.825 132.104 386.104C117.556 404.627 97.8998 426.714 93.3659 450.562L95.0368 452.493C101.878 435.759 112.359 420.745 125.72 408.557C133.031 402.012 140.931 396.098 147.875 389.153C153.477 383.544 158.304 377.33 163.007 370.969C160.434 382.879 157.865 395.427 152.094 406.294C137.457 433.841 110.164 440.596 99.7536 475.474C103.551 473.36 107.2 469.6 110.933 467.113C126.732 456.558 134.459 453.388 146.257 437.636C147.922 434.004 149.477 430.258 151.406 426.762C155.111 436.965 156.003 447.988 151.212 458.049C141.263 478.95 118.348 479.207 102.678 492.805C96.7913 497.913 94.5927 508.922 87.7907 512.33C84.7098 512.134 83.2617 510.589 81.2673 508.354C77.7723 504.431 74.8494 499.885 71.1315 496.186C62.9556 488.035 48.6342 484.647 37.7292 482.303C43.085 481.28 48.7867 480.25 54.2585 480.46L56.6676 478.089L52.0407 475.609C40.0181 471.856 29.1073 467.743 20.0612 458.624C12.1782 450.602 6.78788 440.467 4.54264 429.451C0.695949 410.298 7.31872 394.017 6.40788 376.396C5.26658 354.309 -0.492051 335.244 0.033852 312.073C0.140942 306.816 0.583469 301.572 1.35807 296.369C5.01365 271.993 16.8161 249.276 19.2565 226.166C21.1995 207.772 14.2386 184.662 14.6764 164.22C15.5128 125.208 31.5017 95.1389 56.068 65.5869C62.6093 57.7184 69.1722 49.0903 76.484 41.9365C77.8279 40.3308 79.2158 38.5953 80.6628 37.0967C81.6238 46.9333 84.8399 59.2558 87.0885 69.1006C92.0046 91.0793 96.542 111.817 105.08 132.814C109.416 143.481 119.768 157.527 121.672 168.234C126.003 192.61 125.998 223.422 121.482 247.697C117.881 267.053 110.31 284.96 106.813 304.323C103.394 322.758 103.278 339.696 97.7331 358.293C92.2389 376.714 83.6572 393.618 80.4313 412.548C80.9646 413.51 81.4577 414.553 82.0866 415.454C86.5385 399.648 94.4237 386.647 101.161 371.877C104.815 363.869 107.313 355.21 110.436 346.965C113.245 344.018 115.324 337.649 117.099 333.754C119.862 327.697 122.393 321.457 125.53 315.549C138.764 290.637 155.14 268.327 148.886 238.401C146.588 227.412 142.24 217.053 141.453 205.827C140.313 190.389 147.792 178.7 147.479 163.834C147.243 152.628 141.246 139.599 139.242 128.405C138.188 122.518 138.005 115.467 137.693 109.433C138.815 98.1374 139.943 86.2519 141.624 75.0332C143.639 56.7115 143.779 38.8298 132.056 23.3008C117.868 4.50516 97.2916 15.62 78.1071 16.7637ZM78.8063 134.49C77.2038 136.488 77.5097 139.115 77.4772 141.728C80.7729 177.107 87.1203 208.714 85.0885 244.92C83.8971 266.146 81.0202 284.256 78.6374 305.17C76.4145 324.682 75.4297 343.436 72.6823 363.165C69.8379 383.592 63.6548 408.747 64.4362 428.842C65.0407 444.377 73.0486 468.076 79.5065 482.066L81.2975 481.579C70.4731 449.093 66.1739 431.748 73.6735 397.121C75.8984 386.843 79.2201 373.856 80.9557 363.659C83.9892 345.827 85.0406 327.02 87.6823 308.998C90.9461 286.722 96.5272 265.049 96.9108 242.475C97.2774 220.923 92.7561 199.277 88.5319 178.205C85.7113 164.135 82.5588 148.319 78.8063 134.49ZM102.699 399.521L102.565 399.961C102.607 399.816 102.652 399.67 102.699 399.521L102.844 399.065C102.794 399.219 102.745 399.371 102.699 399.521ZM117.912 370.755C117.24 371.84 116.58 372.918 115.931 373.983L114.968 375.573C115.921 373.992 116.904 372.383 117.912 370.755ZM140.996 335.327C135.895 342.972 129.913 351.921 124.187 360.826C124.903 359.713 125.622 358.599 126.343 357.487C131.394 349.704 136.532 342.017 140.996 335.327ZM131.4 282.941C128.054 298.192 121.762 313.084 116.714 327.792C115.5 331.332 113.419 336.684 111.941 341.321C112.075 340.9 112.214 340.472 112.357 340.041C113.503 336.589 114.897 332.88 115.973 329.887C116.242 329.139 116.493 328.435 116.714 327.792C118.922 321.357 121.368 314.887 123.702 308.367C125.202 304.176 126.656 299.964 127.97 295.728C128.262 294.786 128.548 293.843 128.825 292.899C129.379 291.012 129.902 289.119 130.384 287.221C130.746 285.797 131.086 284.371 131.4 282.941ZM152.521 317.649C151.695 319.033 150.585 320.79 149.252 322.849C149.696 322.163 150.115 321.51 150.507 320.894C151.096 319.969 151.624 319.125 152.084 318.372C152.237 318.121 152.383 317.88 152.521 317.649ZM161.436 300.226C159.942 303.729 158.306 307.17 156.532 310.54L155.762 311.98C157.576 308.631 159.252 305.209 160.787 301.724L161.436 300.226ZM163.859 294.16C163.479 295.181 163.087 296.197 162.683 297.208L162.068 298.721C162.691 297.212 163.288 295.691 163.859 294.16ZM132.917 273.771C132.756 275.142 132.571 276.508 132.355 277.868C132.517 276.848 132.661 275.824 132.791 274.798L132.917 273.771ZM169.267 275.442C169.119 276.15 168.965 276.857 168.804 277.562L168.558 278.619C168.725 277.915 168.885 277.21 169.04 276.503L169.267 275.442ZM169.895 272.249C169.83 272.604 169.764 272.96 169.696 273.314L169.486 274.38C169.629 273.671 169.765 272.96 169.895 272.249ZM133.542 266.53C133.46 267.917 133.36 269.3 133.236 270.678C133.267 270.333 133.296 269.989 133.324 269.644C133.408 268.608 133.48 267.57 133.542 266.53ZM171.638 258.272C171.403 261.874 171 265.468 170.441 269.04L170.268 270.111C170.504 268.685 170.715 267.254 170.901 265.82C171.087 264.387 171.247 262.95 171.382 261.512C171.482 260.433 171.568 259.353 171.638 258.272ZM171.835 247.46L171.862 248.541C171.855 248.181 171.846 247.82 171.835 247.46L171.797 246.38C171.811 246.74 171.824 247.1 171.835 247.46ZM171.536 242.065C171.565 242.425 171.593 242.784 171.618 243.144L171.688 244.222C171.645 243.502 171.594 242.784 171.536 242.065ZM163.403 155.752C163.548 156.525 163.681 157.3 163.799 158.076C165.614 170.008 161.572 184.042 162.644 196.02C163.489 205.448 166.656 216.688 168.962 226.064C169.997 230.277 170.746 234.544 171.226 238.839C171.066 237.407 170.875 235.979 170.655 234.555C170.49 233.486 170.307 232.42 170.107 231.356C169.907 230.293 169.69 229.232 169.455 228.175C169.376 227.823 169.296 227.471 169.214 227.119C169.131 226.767 169.048 226.416 168.962 226.064C168.673 224.892 168.371 223.691 168.062 222.468C167.444 220.022 166.798 217.488 166.172 214.924C164.841 209.474 163.604 203.888 162.939 198.716C162.822 197.803 162.723 196.903 162.644 196.02C162.611 195.645 162.581 195.269 162.557 194.891C162.51 194.134 162.481 193.371 162.467 192.601C162.454 191.83 162.457 191.053 162.473 190.271C162.522 187.923 162.69 185.527 162.905 183.108C163.156 180.286 163.471 177.434 163.736 174.596C163.812 173.785 163.883 172.975 163.948 172.167C164.077 170.552 164.18 168.945 164.233 167.354C164.26 166.559 164.274 165.768 164.274 164.982C164.274 163.804 164.24 162.637 164.164 161.484C164.138 161.1 164.108 160.718 164.073 160.337C164.003 159.576 163.913 158.822 163.799 158.076C163.74 157.688 163.677 157.3 163.611 156.913L163.403 155.752ZM134.373 219.233C134.027 223.049 133.856 226.892 133.781 230.751C133.808 229.348 133.847 227.947 133.904 226.549C133.932 225.849 133.965 225.15 134.002 224.452C134.094 222.708 134.215 220.967 134.373 219.233ZM136.359 199.291C135.773 204.383 135.459 209.205 134.88 214.512C135.401 209.735 135.707 205.352 136.19 200.811L136.359 199.291ZM141.093 173.03C140.039 179.278 138.327 186.773 137.508 191.354C137.211 193.02 136.963 194.627 136.748 196.196L136.544 197.754C136.802 195.692 137.112 193.575 137.508 191.354C137.583 190.938 137.665 190.498 137.753 190.036C138.017 188.652 138.337 187.079 138.681 185.401C139.485 181.488 140.423 177.006 141.093 173.03ZM141.978 165.673C141.966 166.06 141.942 166.473 141.909 166.908L141.85 167.578C141.915 166.892 141.96 166.253 141.978 165.673ZM139.476 144.55C140.044 147.031 140.572 149.536 140.998 152.104C140.761 150.677 140.493 149.27 140.204 147.876C139.973 146.76 139.729 145.653 139.476 144.55ZM155.658 120.938C156.029 128.868 158.378 136.542 160.549 144.214C160.115 142.679 159.673 141.145 159.242 139.608C158.703 137.688 158.179 135.764 157.706 133.833C157.611 133.447 157.518 133.06 157.427 132.673C157.065 131.125 156.739 129.573 156.466 128.013C156.262 126.843 156.087 125.67 155.95 124.491C155.812 123.312 155.714 122.128 155.658 120.938ZM135.525 126.182C135.696 127.341 135.891 128.486 136.101 129.619L136.428 131.312C136.089 129.627 135.781 127.921 135.525 126.182ZM135.253 106.698C135.152 107.834 135.097 108.724 135.096 109.288C134.59 114.073 134.666 118.478 135.087 122.654C134.966 121.461 134.873 120.249 134.815 119.015C134.786 118.398 134.765 117.775 134.754 117.146C134.713 114.947 134.784 112.673 134.996 110.308C135.026 109.97 135.06 109.63 135.096 109.288C135.097 109.147 135.099 108.985 135.106 108.805C135.127 108.263 135.177 107.55 135.253 106.698ZM155.611 116.576L155.596 117.457C155.599 117.164 155.604 116.87 155.611 116.576L155.636 115.692C155.626 115.987 155.618 116.282 155.611 116.576ZM156.09 109.439C155.931 110.936 155.805 112.43 155.719 113.915L155.673 114.805C155.755 113.028 155.899 111.235 156.09 109.439ZM159.581 88.8223C159.351 90.1276 159.108 91.431 158.851 92.7314C158.397 94.9687 157.943 97.2766 157.525 99.623L157.218 101.39C157.716 98.4348 158.284 95.528 158.851 92.7314C158.979 92.0814 159.104 91.4307 159.225 90.7793L159.581 88.8223ZM137.791 86.4531C137.532 88.2615 137.269 90.1472 137.014 92.0293C137.142 91.0884 137.27 90.1464 137.4 89.2139L137.791 86.4531ZM161.223 77.0342C161.093 78.3463 160.945 79.6585 160.778 80.9697L160.514 82.9355C160.698 81.6253 160.864 80.3138 161.013 79.002L161.223 77.0342ZM139.685 74.4395C139.496 75.3686 139.217 77.0156 138.887 79.1084C139.107 77.7132 139.303 76.516 139.466 75.5977C139.548 75.1386 139.622 74.7491 139.685 74.4395ZM161.662 59.374C161.93 63.9229 161.871 68.5069 161.555 73.0977L161.483 74.082C161.533 73.426 161.578 72.77 161.618 72.1143C161.638 71.7864 161.656 71.4586 161.674 71.1309C161.863 67.5258 161.888 63.9275 161.714 60.3496L161.662 59.374ZM139.4 53.0293C139.566 54.6685 139.686 56.3175 139.768 57.9707C139.741 57.4197 139.709 56.8692 139.673 56.3193C139.619 55.4943 139.555 54.6709 139.479 53.8496L139.4 53.0293ZM138.304 45.7373C138.414 46.2696 138.517 46.8037 138.613 47.3398C138.565 47.0717 138.514 46.8043 138.463 46.5371L138.304 45.7373ZM157.686 38.2998C158.531 40.7961 159.232 43.3182 159.801 45.8613C159.73 45.5436 159.656 45.2262 159.581 44.9092C159.054 42.6885 158.425 40.4841 157.686 38.2998ZM133.458 32.0039C135.53 35.8377 136.972 39.92 137.957 44.1455C137.895 43.8816 137.83 43.6183 137.765 43.3555C137.635 42.8296 137.497 42.3061 137.352 41.7852C137.062 40.7429 136.741 39.7107 136.386 38.6904C136.209 38.1806 136.024 37.6737 135.83 37.1699C135.733 36.9178 135.633 36.6665 135.532 36.416C134.923 34.914 134.235 33.4415 133.458 32.0039ZM154.706 30.8955C155.422 32.4195 156.079 33.9557 156.675 35.5029C156.556 35.1935 156.433 34.8847 156.309 34.5762C155.937 33.6505 155.544 32.7288 155.129 31.8115C154.99 31.5057 154.849 31.2003 154.706 30.8955ZM128.228 24.4844C129.552 25.9899 130.733 27.5569 131.783 29.1768C131.633 28.9455 131.479 28.7154 131.324 28.4863C130.547 27.3399 129.703 26.2209 128.787 25.1328C128.604 24.9154 128.417 24.6993 128.228 24.4844ZM149.563 21.7256C150.849 23.652 152.069 25.7092 153.217 27.8984C152.707 26.9253 152.181 25.9787 151.643 25.0576C151.24 24.3669 150.828 23.6908 150.41 23.0293C150.27 22.8089 150.13 22.5902 149.989 22.373L149.563 21.7256ZM81.0241 23.4463C79.6556 23.5792 78.2939 23.6606 76.9362 23.6982C77.9544 23.67 78.9749 23.617 79.9987 23.5361L81.0241 23.4463ZM79.2057 9.58301C72.3894 13.5843 62.7006 18.238 55.4674 21.6553C59.6521 22.3539 63.7374 22.986 67.8005 23.3623C66.7844 23.2682 65.7668 23.1583 64.7467 23.0352C63.0472 22.83 61.3403 22.589 59.6208 22.3252C58.2451 22.1142 56.8623 21.8882 55.4674 21.6553C59.9882 19.5195 65.4668 16.9004 70.6051 14.2598C71.119 13.9957 71.6297 13.7318 72.1354 13.4678C73.6525 12.6757 75.127 11.8856 76.5241 11.1104C76.9898 10.8519 77.4471 10.5955 77.8942 10.3408C78.3414 10.0861 78.7796 9.83313 79.2057 9.58301L79.904 9.17676C79.6711 9.31056 79.4386 9.44633 79.2057 9.58301ZM88.2858 22.2412C86.8852 22.5743 85.4958 22.8442 84.1159 23.0576C84.8056 22.9509 85.4975 22.83 86.1921 22.6943C86.5394 22.6265 86.8873 22.5549 87.236 22.4795C87.5849 22.404 87.9355 22.3245 88.2858 22.2412L89.528 21.9375C89.1114 22.042 88.6972 22.1434 88.2858 22.2412ZM99.8835 19.21C97.679 19.7484 95.4879 20.3521 93.3405 20.9336C95.0583 20.4684 96.804 19.9889 98.5622 19.54L99.8835 19.21ZM146.906 18.0469C147.515 18.8259 148.113 19.6304 148.697 20.4609C148.551 20.2533 148.403 20.0472 148.256 19.8428C147.813 19.2297 147.363 18.631 146.906 18.0469ZM114.942 17.6016C117.26 17.8515 119.511 18.425 121.654 19.4395C121.459 19.3473 121.263 19.2588 121.066 19.1738C120.083 18.7488 119.079 18.4127 118.057 18.1543C117.649 18.051 117.237 17.96 116.823 17.8809C116.202 17.7621 115.574 17.6698 114.942 17.6016ZM136.908 8.27832C139.609 10.2452 142.169 12.5664 144.566 15.2471C144.406 15.0684 144.245 14.8913 144.084 14.7158C143.439 14.0137 142.783 13.3367 142.115 12.6855C141.614 12.1973 141.107 11.7234 140.594 11.2637C139.569 10.3444 138.519 9.48226 137.446 8.67676L136.908 8.27832ZM127.819 3.1875C130.592 4.32345 133.266 5.76307 135.821 7.51074C135.091 7.01122 134.35 6.53719 133.601 6.08789C133.414 5.97561 133.226 5.86501 133.038 5.75586C131.531 4.88263 129.987 4.10944 128.411 3.43555L127.819 3.1875ZM93.8503 2.87988C92.4653 3.33453 91.0758 3.84236 89.6833 4.40234C90.6118 4.02894 91.5381 3.67916 92.4635 3.35254C92.9263 3.18922 93.3885 3.03147 93.8503 2.87988ZM99.3639 1.34375C98.9073 1.44811 98.4499 1.55862 97.9919 1.6748C98.2206 1.61679 98.449 1.55995 98.6774 1.50488L99.3639 1.34375ZM119.223 0.686523C119.856 0.800737 120.485 0.928534 121.11 1.07031C120.902 1.0231 120.692 0.97775 120.483 0.933594C120.065 0.845236 119.645 0.762644 119.223 0.686523ZM105.48 0.295898C104.807 0.372125 104.131 0.461376 103.454 0.564453C103.905 0.495783 104.356 0.433711 104.805 0.376953L105.48 0.295898ZM114.741 0.111328C115.605 0.178333 116.464 0.270065 117.317 0.385742L117.955 0.476562C117.53 0.412625 117.103 0.355455 116.675 0.303711C116.462 0.277857 116.247 0.253283 116.033 0.230469C115.604 0.184827 115.173 0.144824 114.741 0.111328ZM109.492 0C108.828 0.0222609 108.162 0.0581438 107.494 0.107422L106.824 0.161133C107.718 0.0834288 108.607 0.0296775 109.492 0Z" fill="#0963D1"/>
</svg>
