<svg width="173" height="273" viewBox="0 0 173 273" fill="none" xmlns="http://www.w3.org/2000/svg">
<path d="M45.4473 4.45215C67.7102 11.8363 70.7942 20.6635 74.5284 42.0469C75.8433 49.6025 82.5997 65.6434 88.1094 70.8174L89.3086 71.0088C92.9751 66.8611 87.3976 15.938 104.063 10.1094C108.02 10.7815 108.61 15.6674 109.803 19.2412C113.686 15.2548 123.588 7.20208 128.895 12.1377C130.08 15.4348 129.111 16.8524 127.654 19.9395C127.248 20.795 126.834 21.6474 126.414 22.4961C129.179 22.261 132.48 21.6944 134.967 22.6436L135.861 23.6865C134.973 28.429 125.859 37.826 123.154 42.4453C110.928 63.3395 104.144 90.0012 105.648 113.864C116.194 102.47 119.176 84.1399 124.347 70.0234C125.912 65.7343 138.612 50.1863 143.98 55.4336C144.434 55.8726 145.816 57.9115 146.236 58.5391C147.91 59.1529 151.218 58.134 154.064 58.4951L155.467 59.3896C154.877 63.1295 147.213 66.7826 144.055 70.248C146.684 70.8435 149.869 71.2328 151.76 73.0312C153.278 79.0739 139.453 81.0244 137.969 86.7588C140.632 89.3716 142.984 88.4381 144.807 91.127C144.495 96.2332 137.034 99.1316 134.045 104.201C125.397 118.907 120.341 133.52 114.838 149.396C120.7 142.689 126.929 135.58 132.812 128.867C137.054 124.033 142.496 110.993 146.148 109.644C148.534 111.268 149.937 114.935 151.089 117.633C153.502 116.487 155.061 115.422 157.656 115.689C158.503 116.419 159.086 116.577 158.978 117.483C158.178 124.441 147.314 137.353 143.553 143.268C145.986 143.853 149.273 144.378 151.144 145.802C150.554 148.037 143.77 150.151 141.344 151.291C134.933 154.302 131.103 158.225 126.312 163.193C131.916 161.202 148.391 156.115 153.108 159.79C153.813 162.971 151.929 164.045 149.761 166.297C154.193 166.86 157.812 166.673 160.76 169.992C162.027 176.765 150.933 175.672 146.718 175.536C149.042 177.445 152.425 179.788 153.536 182.426L153.313 183.839C146.434 188.223 124.232 176.97 112.778 198.865C111.362 201.572 107.783 207.585 106.868 211.115C106.79 211.413 106.733 211.7 106.685 211.987L106.557 212.86C100.451 228.661 102.483 249.352 101.649 266.147C101.602 267.088 99.7449 271.221 99.2706 272.273C88.8067 252.338 88.5898 245.75 67.8653 234.673C64.7749 233.021 60.9868 229.213 57.3204 228.174C48.0967 225.559 39.8015 227.679 31.4454 231.676C26.1118 234.227 19.0633 241.335 14.0889 240.747C9.73178 238.297 10.3146 234.138 9.88091 229.456C6.4876 228.026 -3.37834 223.815 1.18267 218.487C7.66424 210.92 22.14 210.447 31.5127 209.648L35.4639 209.318L35.0977 209.163C27.9142 206.164 19.3282 205.654 13.4932 203.188C-0.224244 197.392 12.781 188.713 20.1749 186.438C21.7946 185.94 20.7237 181.256 23.543 178.622C27.7719 177.738 33.8982 180.895 37.2461 183.195C54.8057 195.243 60.4175 207.829 81.2911 215.998L81.8331 215.563C82.1448 214.2 77.625 201.424 76.8321 198.821C70.5632 178.261 62.1928 168.203 43.0001 158.47C33.3088 156.282 21.4554 155.38 13.1602 149.727C10.8089 148.125 9.53539 144.284 12.1241 142.398C22.3575 134.935 36.718 135.15 48.7745 135.721C42.1533 129.844 36.5149 129.01 29.1348 124.81C24.3977 122.117 15.7565 113.698 17.2266 107.595C20.5881 106.06 24.0647 110.777 28.3614 107.165C29.188 104.851 28.4158 102.355 27.9346 99.9043C27.223 95.4485 26.4781 91.9158 31.0254 89.6436C34.2985 89.798 34.014 90.2765 37.1856 92.2588C29.2497 78.343 29.2362 73.2768 26.5254 57.8477C25.841 57.4222 25.163 56.9879 24.4854 56.5469C22.2626 55.0795 21.5711 54.6373 21.0967 52.2637C22.2014 50.1072 24.1259 49.4305 26.3487 48.2178C26.735 44.2444 27.2164 41.2324 27.9415 37.3018C24.5529 34.3411 21.2318 32.3978 22.9532 27.7041C27.9954 23.2319 39.5849 24.5346 46.2061 24.7148C44.1643 16.9243 42.078 12.2853 45.1348 5.15137L45.4473 4.45215ZM107.643 211.204C107.283 211.741 106.922 212.293 106.557 212.86C106.739 212.577 106.921 212.297 107.102 212.021C107.283 211.745 107.463 211.473 107.643 211.204ZM125.267 194.332C124.984 194.448 124.699 194.572 124.413 194.703C123.84 194.967 123.262 195.263 122.677 195.595C122.092 195.926 121.5 196.294 120.901 196.7C120.452 197.005 119.999 197.331 119.542 197.681C118.933 198.147 118.315 198.654 117.69 199.206C120.347 196.861 122.858 195.317 125.267 194.332ZM153.573 193.593C152.762 193.796 151.96 193.942 151.166 194.04C150.768 194.089 150.373 194.126 149.979 194.153C151.159 194.072 152.356 193.898 153.573 193.593ZM130.23 192.999C129.961 193.036 129.692 193.079 129.421 193.127C129.286 193.151 129.15 193.176 129.014 193.203C128.742 193.257 128.469 193.317 128.194 193.384C128.88 193.218 129.558 193.092 130.23 192.999ZM170.969 165.483C171.065 165.677 171.159 165.872 171.248 166.068C171.426 166.461 171.588 166.857 171.731 167.259C171.839 167.56 171.936 167.863 172.023 168.17C172.109 168.477 172.184 168.786 172.246 169.099C171.996 167.849 171.548 166.647 170.969 165.483ZM171.243 119.458C171.23 119.672 171.215 119.886 171.198 120.101C171.096 121.387 170.929 122.688 170.713 123.998C170.966 122.469 171.149 120.954 171.243 119.458ZM160.449 99.8604C160.469 99.9544 160.492 100.047 160.516 100.14C160.563 100.324 160.618 100.505 160.68 100.683C160.587 100.416 160.509 100.143 160.449 99.8604ZM150.174 42.959C150.316 43.3596 150.505 43.7409 150.741 44.1104C150.859 44.295 150.989 44.4766 151.131 44.6562C151.273 44.836 151.426 45.0139 151.592 45.1904C151.757 45.3668 151.935 45.5418 152.124 45.7168C151.178 44.8414 150.528 43.9608 150.174 42.959ZM83.0733 37.1924C82.9589 37.4307 82.8382 37.6607 82.709 37.8809C82.6659 37.9544 82.6221 38.0272 82.5772 38.0986C82.4876 38.2413 82.3946 38.3797 82.2979 38.5137C82.588 38.1117 82.8444 37.6693 83.0733 37.1924ZM72.6026 21.2178C72.7669 21.6641 72.9751 22.2639 73.2169 22.9756C73.4587 23.6876 73.7352 24.5116 74.0381 25.4062C74.4925 26.7482 75.0065 28.249 75.5518 29.7686C74.2794 26.2232 73.1779 22.7803 72.6026 21.2178ZM150.435 16.8037C150.966 17.8494 151.464 18.8994 151.926 19.9355C152.234 20.626 152.527 21.3103 152.804 21.9834C152.111 20.3001 151.32 18.5463 150.435 16.8037ZM86.5088 7.20703C86.1714 8.06853 85.9098 9.0204 85.7051 10.042C85.6233 10.4503 85.5508 10.8697 85.4864 11.2988C85.4541 11.5136 85.4239 11.7307 85.3956 11.9502C85.3389 12.3891 85.2897 12.8371 85.2471 13.293C85.4599 11.0141 85.8342 8.92957 86.5088 7.20703ZM141.248 4.5625C141.386 4.67051 141.523 4.78095 141.659 4.89355C141.931 5.11864 142.199 5.35227 142.464 5.59473C142.067 5.2308 141.661 4.88655 141.248 4.5625ZM88.4131 4.17871C88.3551 4.23537 88.2993 4.29351 88.2432 4.35254C88.131 4.47064 88.0226 4.59336 87.918 4.7207C87.8134 4.84808 87.7125 4.97992 87.6153 5.11621C87.518 5.25255 87.4242 5.39316 87.334 5.53809C87.6494 5.03127 88.0067 4.57542 88.4131 4.17871ZM125.38 0.566406C126.808 0.7015 128.194 0.844499 129.521 0.989258C131.289 1.18224 132.955 1.37797 134.479 1.55859C131.812 1.24247 128.711 0.881593 125.38 0.566406ZM103.491 0C103.246 0.0187401 103.004 0.0384173 102.761 0.0595703C102.275 0.101859 101.794 0.148846 101.317 0.201172C102.032 0.122709 102.757 0.0561866 103.491 0Z" fill="#FF005E"/>
</svg>
