<svg width="306" height="185" viewBox="0 0 306 185" fill="none" xmlns="http://www.w3.org/2000/svg">
<path d="M275.999 0C278.506 1.55826 279.123 4.05837 279.787 6.84277C281.597 14.4173 281.603 22.4593 281.59 30.2031C286.32 25.6368 290.949 20.4609 297.272 18.1777C299.305 19.641 300.301 20.9012 300.667 23.4414C301.087 26.3411 299.943 29.5665 298.16 31.8633C297.232 33.0556 295.93 34.0445 294.758 34.9727C292.325 36.3412 289.444 37.7644 287.411 39.6885C280.593 46.1316 269.479 62.3711 266.179 71.0498C275.253 69.085 282.946 60.0204 291.309 55.7793C294.48 54.1601 297.686 52.8316 301.305 53.7598C303.175 54.2408 303.595 55.0403 304.544 56.5576C305.276 61.2934 299.502 62.1882 302.822 74.0918C298.682 79.654 294.656 83.3058 287.581 84.3086C285.961 84.5322 284.341 84.7153 282.715 84.8711L283.312 86.6328C288.035 88.1572 293.755 90.9011 296.194 95.5283C296.648 96.3887 296.669 97.0663 296.655 98.0215C295.632 100.115 293.91 100.88 291.816 101.599C281.841 105.047 272.881 106.137 262.377 106.117C258.168 106.11 253.634 105.819 249.466 106.361C240.784 107.5 232.015 111.659 224.038 115.026C213.811 122.804 202.825 130.42 198.014 142.784C222.025 139.532 238.162 121.063 260.838 114.966C268.855 112.059 276.378 111.151 284.308 114.938C286.957 116.205 290.054 118.306 291.003 121.232C291.518 122.845 291.261 124.397 290.387 125.833C287.723 130.162 281.271 131.93 276.636 132.831C270.875 133.956 264.349 134.762 258.486 135.026C253.512 137.059 248.503 138.969 243.936 141.842C254.664 141.916 264.572 140.521 275.138 138.807C285.337 136.903 295.761 136.917 305.554 140.677L297.089 146.09C299.617 148.373 302.118 150.515 304.917 152.473C298.438 156.165 291.538 157.527 284.354 159.2C289.065 161.294 295.469 163.461 297.367 168.779C297.781 169.938 297.401 170.277 296.934 171.354C288.97 177.649 273.938 177.763 264.132 176.604C247.84 174.68 232.218 165.812 216.306 164.646C210.782 164.24 205.056 165.141 199.573 165.765C197.703 166.408 196.231 166.524 195.106 168.231C198.177 172.757 208.519 172.771 210.044 178.638C208.722 181.199 206.499 182.053 203.822 182.899C189.685 187.371 173.169 182.207 158.687 182.031C144.558 181.862 130.375 183.299 116.235 183.421C104.036 183.529 92.0476 182.323 79.9043 181.537C72.4184 181.625 64.7617 180.772 57.2637 180.494C44.4847 180.027 16.4437 180.643 5.40039 177.31C3.30024 176.673 1.08294 175.934 0 173.895L0.466797 172.479C3.40864 169.952 6.08238 168.685 9.94922 168.244C15.9124 167.58 21.8172 166.375 27.0654 163.326C40.9658 155.264 38.9076 140.088 42.6641 126.822C43.293 124.607 43.8693 123.055 45.9424 121.903L47.2666 122.662C50.3704 127.31 51.077 132.113 51.9512 137.506C58.9614 122.425 63.2103 104.525 58.1621 88.333C55.4777 82.6013 52.578 76.4424 52.126 70.04C51.981 67.9875 52.2014 66.6596 53.5674 65.1016C54.3657 64.939 54.9124 64.8841 55.708 65.1348C64.1033 67.7363 69.4206 80.5277 73.0938 87.6348C73.4007 87.0658 73.7055 86.5242 74.0518 85.9756C77.0825 81.2195 83.963 70.3591 89.6436 69.458C91.1437 69.221 91.4017 69.7089 92.4629 70.5625C94.1344 74.6816 92.536 79.0382 91.5459 83.1572C89.0735 89.0583 82.5433 98.4081 82.8008 104.566C83.2384 105.007 83.5274 105.595 84.1797 105.589C91.2211 105.548 102.545 94.9043 107.98 90.5547C110.342 88.2582 113.317 86.3679 116.27 84.9316C119.918 83.1566 126.643 80.2843 130.695 82.1338C132.1 82.7706 132.454 83.5025 133.052 84.8506C125.758 97.8044 108.353 105.358 97.7588 115.765C88.6626 124.701 81.8788 134.939 73.8311 144.715C68.7327 150.907 62.8139 156.51 57.1436 162.181C72.6394 160.358 87.0995 155.399 99.6182 145.778C112.186 136.117 121.617 124.288 132.677 113.137C142.352 103.381 154.783 93.9766 162.251 82.3711C167.564 74.1123 170.878 63.9559 172.159 54.2744C173.128 49.0981 174.918 37.7167 179.601 34.8779C180.163 34.5324 180.766 34.4245 181.403 34.2822C183.917 35.2984 184.914 36.5108 185.991 38.9971C190.505 49.4103 187.855 61.6802 184.961 72.168C184.141 74.1935 182.691 76.7271 182.86 78.9287C188.153 81.029 193.128 66.1718 197.994 64.9727C199.309 66.592 198.997 70.4878 199.085 72.6016C201.376 71.1653 204.5 68.7736 207.13 68.252C208.214 68.0353 208.248 68.2518 209.156 68.875C209.231 75.5007 200.421 76.0431 198.462 80.9951L199.166 82.1611C201.728 83.672 205.219 83.773 208.133 84.1592C211.318 76.5713 212.89 68.0615 213.777 59.9248C213.811 53.8952 213.873 47.8452 213.405 41.8291C212.721 33.0351 207.299 13.5843 213.276 6.55176C214.51 5.0952 215.302 5.15587 217.051 5.11523C218.257 5.67076 219.294 6.30748 220.236 7.2627C227.393 14.4984 230.165 26.6125 230.029 36.5176L230.036 47.0186C231.764 43.543 233.567 40.0943 234.949 36.4697C236.427 33.1975 238.23 27.7104 241.808 26.3281C243.359 25.7252 244.858 25.8197 246.321 26.6055C249.235 28.1773 250.415 32.0934 251.093 35.1016C251.499 36.9376 251.784 39.0243 251.269 40.8535C250.252 50.8804 239.829 61.0835 234.889 69.8164C231.71 75.4261 229.399 81.2799 227.183 87.3164C231.615 84.9791 235.864 82.317 239.903 79.3564C261.699 63.4216 264.165 44.1394 268.042 19.3428C268.34 16.9105 268.971 14.4443 269.473 12.0527C269.778 10.5014 270.408 8.92285 270.889 7.41211C271.865 4.9189 272.671 2.57487 274.515 0.583008L275.999 0ZM178.8 133.543C168.085 136.544 157.798 140.711 147.313 144.417C130.064 150.514 113.685 155.385 98.0596 165.338L97.6055 166.408L99 166.876C123.926 166.571 154.823 161.761 173.047 142.994C175.602 140.359 177.831 137.425 180.054 134.512L179.885 133.651L178.8 133.543ZM194.571 105.095C188.106 105.054 181.457 104.695 175.019 105.237C160.367 107.724 146.392 115.331 137.807 127.75C136.649 129.423 135.595 131.179 134.553 132.92C139.896 131.687 144.989 130.094 150.16 128.285C165.402 121.93 181.512 115.325 194.571 105.095Z" fill="#890011"/>
</svg>
