<svg width="335" height="594" viewBox="0 0 335 594" fill="none" xmlns="http://www.w3.org/2000/svg">
<path d="M152.399 413.646C152.437 414.024 152.47 414.43 152.497 414.869C152.511 415.098 152.525 415.336 152.536 415.584C153.639 415.077 154.592 414.615 155.464 414.163C155.9 413.937 156.315 413.714 156.72 413.489C157.124 413.265 157.518 413.039 157.908 412.807C158.103 412.692 158.298 412.575 158.493 412.456C159.859 411.624 161.246 410.701 163.033 409.512C162.272 420.267 163.543 436.242 163.77 447.282C164.544 485.079 170.058 522.531 171.595 560.402C171.965 569.524 174.292 585.878 168.115 592.859C162.057 595.482 160.445 586.488 159.814 582.191C158.005 569.863 158.751 556.77 157.347 544.422C152.864 505.005 152.478 465.011 148.396 425.696C147.054 412.758 140.799 384.171 136.105 372.073L135.748 371.165C130.916 368.63 113.664 359.577 109.327 358.919C93.033 357.407 84.4318 361.989 67.3057 357.713C56.7719 355.083 49.9895 342.395 60.3213 336.275C66.7722 332.46 83.5339 338.553 90.4082 342.091C101.135 347.607 113.397 354.324 125.17 359.264C116.298 351.186 102.651 338.628 92.6895 332.284C75.2421 321.162 68.0559 325.933 54.4346 307.478C69.5146 287.18 91.7682 306.029 101.114 320.763C112.048 338.004 111.442 342.341 129.309 354.168C117.784 324.666 104.527 303.405 89.0645 276.072C75.8396 252.69 62.3642 214.358 32.1348 208.13C23.116 206.273 4.99958 206.72 0 198.133C0.203036 190.264 19.5221 189.77 25.2676 189.241C30.0083 188.807 29.2044 186.042 29.0303 182.342C28.7565 176.506 27.179 168.394 31.0996 163.42C35.2963 161.298 37.6793 163.88 40.9688 166.212C54.4701 175.768 50.1078 193.369 56.4658 205.548C61.8069 215.775 72.1363 226.876 77.9658 237.178C82.3295 243.61 94.76 269.919 102.066 270.678C120.405 263.507 98.5595 222.186 94.1465 209.723C89.2797 195.978 83.9145 178.486 77.877 165.67C69.6557 148.225 32.8433 118.581 71.9092 109.492C88.687 126.483 76.403 149.214 90.5381 173.951C93.1446 155.815 94.9198 148.332 111.771 163.514C124.709 175.164 129.902 185.174 140.595 197.895C147.527 206.137 156.755 210.955 164.571 221.094C161.56 210.846 157.415 200.958 150.467 192.683C142.576 183.283 94.3899 151.416 101.745 137.448C102.53 135.957 104.006 134.92 105.647 134.595C107.751 134.181 110.219 134.392 112.366 134.432C115.724 121.535 118.474 125.405 129.374 128.61C138.311 131.233 140.261 146.651 142.922 154.256C146.087 163.31 149.504 172.413 152.495 181.535C155.974 188.692 163.839 199.902 168.352 208.312C165.933 195.056 162.787 180.627 161.267 167.377C157.119 131.233 153.741 84.9237 121.998 61.203C109.812 52.0949 76.1728 44.9176 90.0938 23.3143C96.901 12.5465 112.413 31.5573 115.85 21.661C123.681 -0.89386 151.657 -13.5066 142.599 23.0936C138.902 38.0294 140.123 51.9442 148.383 65.534C150.727 69.5937 154.499 80.1663 159.537 81.2303C164.654 78.5735 163.445 70.0068 169.325 68.0956C173.18 69.3494 174.749 73.1786 176.563 76.3436C188.143 96.5536 173.871 115.632 172.828 134.046C172.149 146.048 181.219 222.164 187.503 225.886C189.358 225.533 190.467 225.045 191.603 223.059C203.138 202.87 207.446 183.609 202.776 160.634C201.495 152.203 196.973 144.09 195.311 135.869C193.161 125.242 194.085 113.809 193.308 103.033C192.673 94.2498 185.758 62.3834 197.034 58.3094C202.3 58.4043 208.978 66.8827 214.113 69.8241C217.93 72.0131 215.996 87.0717 217.467 92.1346C225.667 91.7957 222.999 65.2419 230.838 64.4354C235.219 66.4822 238.8 73.687 240.607 77.9364C243.455 84.9034 241.102 90.2983 238.444 96.6825C235.662 103.358 231.01 109.519 228.264 116.005C218.147 139.895 226.589 167.018 214.727 191.646C209.37 202.768 204.733 211.979 197.77 222.199C193.828 228.732 192.14 232.806 194.788 240.261C195.445 242.09 196.124 243.913 196.826 245.723C195.309 250.975 190.54 265.485 190.438 269.904C189.756 299.779 180.405 326.021 172.055 354.344C168.658 365.865 166.002 379.914 163.487 392.012C170.48 390.912 197.182 357.542 202.314 351.273C217.595 332.602 210.761 306.983 212.759 284.72C213.957 271.361 221.035 257.407 219.246 243.852C217.089 229.186 203.653 215.055 214.416 200.436C223.832 187.654 234.483 193.673 234.862 208.082C235.388 228.075 226.325 245.763 222.347 265.045C231.243 252.31 239.28 236.214 244.173 221.555C248.225 209.409 252.512 167.906 270.666 196.262C270.823 189.41 270.462 186.543 275.539 180.18C281.606 172.575 301.082 179.474 300.279 188.725C299.808 194.161 295.426 205.587 294.763 211.653C291.681 225.011 291.698 247.641 281.054 257.264C274.599 263.093 256.275 263.96 248.228 270.114C245.431 272.249 239.806 273.957 237.113 277.129C229.104 284.211 226.665 296.953 225.522 307.275C224.938 312.69 224.955 318.152 225.572 323.56C229.495 319.88 233.212 316.553 237.247 313.157C241.033 309.972 250.201 304.794 252.747 301.338C261.75 289.111 263.312 278.343 277.24 269.193C281.411 266.455 288.788 255.882 292.74 252.236C299.792 244.869 298.891 237.692 300.691 228.583C301.775 223.107 307.174 214.099 308.562 208.447C311.901 194.872 335.052 178.398 334.524 203.806C334.39 210.284 327.122 217.143 324.302 222.47C320.113 237.868 317.345 238.695 307.432 249.966L287.51 272.764C284.841 275.787 283.241 280.118 280.794 283.398C277.861 287.322 270.571 292.046 267.898 295.51C259.888 305.872 251.181 312.256 241.276 319.562C234.198 324.788 228.056 344.977 221.656 352.168C212.106 367.532 178.088 401.04 163.094 409.152L163.033 409.512C158.949 412.229 156.948 413.557 152.536 415.584C152.503 414.863 152.456 414.221 152.399 413.646ZM151.65 409.985C151.673 410.043 151.696 410.103 151.718 410.164C151.93 410.763 152.117 411.512 152.264 412.511C152.215 412.178 152.162 411.873 152.104 411.593C152.076 411.452 152.046 411.317 152.016 411.188C151.955 410.93 151.89 410.695 151.822 410.477C151.768 410.302 151.709 410.139 151.65 409.985ZM150.4 407.772C150.433 407.823 150.467 407.872 150.5 407.922C150.383 407.747 150.267 407.568 150.152 407.375L150.4 407.772ZM149.848 406.806C149.908 406.931 149.968 407.049 150.03 407.162L149.91 406.934C149.889 406.893 149.869 406.85 149.848 406.806ZM148.833 398.787C148.754 401.013 148.826 403.021 149.13 404.573C148.788 402.827 148.74 400.504 148.87 397.942L148.833 398.787ZM151.306 379.752C150.736 383.021 149.782 388.36 149.231 393.508L149.333 392.598C149.893 387.739 150.769 382.829 151.306 379.752ZM127.951 298.14C128.053 298.532 128.156 298.925 128.261 299.318C128.415 299.898 128.571 300.48 128.729 301.062C129.047 302.227 129.373 303.396 129.707 304.568C130.042 305.741 130.385 306.917 130.734 308.096L130.282 306.556C130.432 307.069 130.583 307.582 130.735 308.097C131.085 309.275 131.441 310.456 131.804 311.639C132.218 312.99 132.642 314.344 133.07 315.698C133.578 317.305 134.091 318.914 134.613 320.52C137.043 328 139.594 335.447 141.99 342.628L142.764 344.952C142.956 345.532 143.145 346.11 143.335 346.686C143.514 347.23 143.694 347.772 143.87 348.312C143.91 348.433 143.954 348.563 143.999 348.701C144.345 349.752 144.856 351.288 145.469 353.08C145.494 353.155 145.52 353.231 145.546 353.306C145.91 354.371 146.308 355.519 146.726 356.708C147.979 360.274 149.412 364.195 150.66 367.232L150.968 367.973L150.967 367.972C150.99 368.027 151.014 368.081 151.037 368.136L151.267 368.672C151.463 369.123 151.652 369.544 151.833 369.93C151.923 370.122 152.012 370.306 152.098 370.479C152.321 370.931 152.53 371.317 152.718 371.625C152.746 371.672 152.773 371.718 152.801 371.762C152.564 372.926 151.861 376.118 151.51 378.181L151.712 377.07C152.083 375.11 152.603 372.732 152.801 371.762C154.833 362.348 158.084 353.557 160.607 344.319C169.773 310.785 179.084 282.3 175.427 246.97L174.896 246.19C165.583 239.061 162.954 227.559 155.192 219.514C140.834 204.631 115.126 203.54 99.1377 195.543L98.335 195.137L98.3359 195.138C99.0669 197.448 99.8658 199.715 100.71 201.955C101.048 202.851 101.392 203.742 101.743 204.631C102.445 206.408 103.172 208.172 103.908 209.932C103.724 209.491 103.537 209.051 103.354 208.609C103.719 209.491 104.088 210.37 104.459 211.25C104.532 211.423 104.606 211.597 104.68 211.77C105.59 213.924 106.51 216.078 107.421 218.244C107.18 217.671 106.939 217.098 106.696 216.526C107.63 218.729 108.558 220.943 109.46 223.183C109.616 223.572 109.772 223.962 109.927 224.352L109.998 224.531C110.354 225.432 110.705 226.338 111.05 227.25L111.561 228.622C111.425 228.252 111.287 227.884 111.148 227.516C111.115 227.427 111.082 227.338 111.049 227.249L111.05 227.25C111.083 227.339 111.115 227.428 111.148 227.516C111.311 227.949 111.472 228.383 111.632 228.819L112.061 230.004C112.225 230.466 112.388 230.929 112.549 231.395C112.87 232.328 113.183 233.267 113.485 234.216C113.939 235.638 114.369 237.081 114.772 238.547C115.509 241.224 116.192 243.893 116.836 246.554C116.893 246.787 116.95 247.021 117.006 247.255C117.122 247.739 117.237 248.223 117.351 248.707C117.483 249.269 117.613 249.831 117.742 250.393C118.024 251.622 118.295 252.851 118.564 254.078C118.463 253.614 118.36 253.149 118.257 252.684C118.618 254.303 118.967 255.919 119.309 257.534C119.44 258.157 119.573 258.78 119.702 259.402C120.091 261.27 120.471 263.135 120.846 265.001C121.654 269.023 122.441 273.042 123.251 277.067C123.602 278.811 123.956 280.555 124.319 282.302L123.629 278.94C123.614 278.866 123.599 278.791 123.584 278.717C123.826 279.911 124.071 281.106 124.32 282.303C124.787 284.545 125.267 286.791 125.769 289.041C126.019 290.166 126.276 291.292 126.538 292.42L126.537 292.419C126.275 291.291 126.018 290.165 125.768 289.04L126.147 290.728C126.276 291.291 126.406 291.855 126.537 292.419C126.802 293.557 127.079 294.701 127.366 295.851C127.51 296.426 127.656 297.002 127.805 297.58C127.853 297.767 127.902 297.953 127.951 298.14ZM142.764 344.952L143.87 348.312C143.694 347.772 143.514 347.23 143.335 346.686C142.893 345.344 142.445 343.991 141.99 342.628L142.764 344.952ZM129.708 304.569C129.875 305.155 130.045 305.742 130.216 306.33L130.282 306.556C130.089 305.892 129.897 305.23 129.708 304.569ZM123.584 278.717C123.472 278.167 123.362 277.617 123.251 277.067C123.173 276.681 123.096 276.296 123.019 275.91C123.206 276.845 123.394 277.781 123.584 278.717ZM118.865 255.443L119.579 258.805C119.49 258.381 119.398 257.958 119.309 257.534C119.065 256.383 118.817 255.231 118.564 254.078C118.664 254.533 118.767 254.988 118.865 255.443ZM112.645 231.678C112.932 232.517 113.213 233.363 113.485 234.216C113.484 234.21 113.481 234.205 113.479 234.2C113.386 233.908 113.29 233.617 113.195 233.326C113.015 232.774 112.832 232.224 112.645 231.678ZM93.0156 190.798C93.0434 190.832 93.0724 190.865 93.1006 190.898C93.0076 190.787 92.9161 190.675 92.8271 190.56L93.0156 190.798ZM89.7773 183.627C89.9231 184.308 90.1217 185.053 90.3799 185.899C90.0357 184.771 89.7985 183.823 89.6494 182.966L89.7773 183.627ZM90.1738 175.313C89.8603 176.978 89.6176 178.248 89.5088 179.424L89.5742 178.827C89.7007 177.814 89.9125 176.701 90.1738 175.313Z" fill="#D4C1FF"/>
</svg>
