<svg width="309" height="263" viewBox="0 0 309 263" fill="none" xmlns="http://www.w3.org/2000/svg">
<path d="M184.536 0C184.676 23.7138 182.197 50.9653 187.853 73.7168C190.617 62.575 197.11 50.7415 196.538 39.2744C196.008 28.6477 193.146 17.7567 191.524 7.25195C191.524 7.25195 192.247 5.4249 192.315 5.25293C194.072 3.65348 194.315 3.49713 196.585 2.82617C199.23 3.65983 200.118 5.38165 202.072 7.71973L203.189 7.74023C203.813 5.8833 203.775 5.95744 205.008 4.43945C209.437 2.24359 214.487 4.05969 219.402 5.08984C220.007 22.7448 212.305 36.8009 207.562 53.0801C204.335 65.6453 203.527 78.0619 195.527 88.8311C189.67 96.7199 184.022 105.164 179.015 113.656C179.5 113.446 179.983 113.235 180.465 113.019C213.234 98.4676 212.367 85.5435 219.213 53.5273C220.387 48.0377 221.665 41.3894 223.713 36.1641L224.059 35.2969C237.929 40.712 240.742 43.6935 246.662 56.8145C242.831 59.3017 235.622 63.8561 232.863 67.1973C222.208 80.0946 231.367 85.3335 217.447 99.5049C205.878 112.016 187.204 115.778 175.779 127.814C171.308 132.525 163.228 159.559 169.244 163.382C174.149 161.524 203.128 138.908 207.827 133.283C210.209 130.43 215.683 119.945 218.818 115.872C221.121 112.877 230.244 105.565 231.38 103.063C235.228 94.585 239.553 85.4012 243.584 76.7939C245.74 72.1921 244.586 62.9071 247.14 58.5967C247.779 57.5191 249.17 57.0108 250.41 56.9023C251.121 59.7827 250.62 65.3948 250.481 68.5869C254.314 64.5408 256.206 62.0057 259.421 57.5801L266.231 63.8633C264.515 72.3619 263.364 79.4577 255.422 84.3848C250.968 87.1431 242.496 98.1971 244.607 103.483C246.538 102.819 249.559 99.227 251.262 97.7021C267.786 82.9208 269.401 67.0753 278.398 50.1455L278.846 49.3115C297.083 52.5511 291.885 57.919 285.036 70.4434L299.779 62.1006C301.491 65.1097 303.466 68.1397 305.322 71.0811C280.048 84.9271 271.092 92.0499 252.866 115.425C266.096 112.673 278.151 108.349 286.268 96.8145C289.881 91.6704 296.93 79.4983 302.802 89.2373C303.425 93.3443 298.04 97.8174 294.875 102.562C298.713 100.922 302.634 99.0581 306.443 97.3164L308.595 108.045C301.915 114.144 293.16 115.635 285.08 120.277C290.847 120.935 296.6 121.945 302.329 122.887L301.839 132.788C289.768 131.08 276.809 128.973 264.72 127.021C260.993 126.418 254.33 128.309 251.511 131.067L252.025 131.874C256.956 133.839 270.802 129.766 265.304 141.301C262.518 143.049 245.585 140.623 241.004 140.067C213.01 136.699 177.285 175.12 175.217 200.42C174.409 210.301 181.09 239.166 190.563 244.92C194.305 247.197 215.47 252.165 205.001 262.066C201.584 264.953 189.015 257.553 184.103 256.008C169.015 251.27 160.285 243.747 154.366 228.837C147.173 211.507 130.92 211.256 114.856 206.126L118.512 189.772C125.232 191.216 138.547 195.411 141.638 186.14C142.382 183.91 141.911 183.151 140.914 181.287C136.774 178.956 127.332 175.96 122.354 173.954C115.591 171.236 106.042 166.14 99.2373 164.445C91.6089 162.548 81.0981 162.1 73.4521 159.464C62.3264 155.614 55.0889 150.952 43.3223 148.41C36.5137 152.138 29.1064 156.889 24.2715 163.097C22.0973 165.889 18.1115 173.148 14.6533 172.633C8.13131 166.242 20.1275 150.287 23.8262 144.316C11.7009 148.356 6.67189 155.886 3.45898 138.38C6.90901 137.804 11.3219 137.242 14.5957 136.374C22.8888 134.178 27.8198 131.487 36.5898 130.667C28.4805 126.743 27.0942 124.418 20.1494 120.033C11.7182 114.706 7.64058 114.069 0 106.817C0.584713 103.585 1.70957 99.451 2.50293 96.1846C8.03693 99.6545 11.5277 102.589 17.7217 106.086C13.7005 100.264 8.57696 93.8726 5.76855 87.6035L11.1982 79.3828C18.0319 85.496 38.8379 121.904 48.917 117.207C48.9608 114.245 45.8303 110.091 45.0742 107.163C41.2773 92.4497 34.4922 79.6068 27.6309 66.1133C31.194 64.1411 33.1492 63.5306 37.0361 62.2227C45.9478 75.0183 47.2393 76.1976 52.2246 90.8027C54.8812 98.5831 66.4929 124.656 73.5576 127.848L74.707 127.319C79.626 115.933 60.8755 84.9198 56.8604 73.9473C52.7558 62.731 47.3649 55.8858 38.5488 48.0039C40.4865 45.9641 42.2634 44.7236 44.4883 43.0361C46.0804 44.8253 48.0348 47.5561 50.4785 47.5293C51.3403 45.5029 50.4156 43.2057 49.8613 40.9082C51.9339 39.7289 54.1545 38.6037 56.2705 37.4922C62.1672 50.5386 62.1199 58.5703 65.4541 71.7793C67.3798 79.4105 74.3587 89.5632 79.0215 96.0625C79.466 87.6112 80.0948 78.5358 78.4443 69.3457C76.3805 57.8446 65.053 45.0559 64.5908 33.792C64.5454 32.6941 65.8863 31.9484 66.7373 31.2842C71.7489 31.3318 72.4927 38.1162 76.917 40.7051L77.915 40.1426C79.2945 36.7336 79.3066 31.8599 79.541 28.085C82.1374 27.1022 85.6866 26.3024 88.457 25.5908C86.0355 34.5708 85.1027 38.9292 84.7998 48.1396C87.6163 42.3789 90.0703 29.4206 95.4668 27.001C98.7989 26.9264 102.585 27.2311 105.421 29.1152C105.745 31.1755 100.456 42.1549 99.3838 45.625C95.391 58.5494 92.3309 66.8382 92.3926 80.4199C96.5932 72.9989 97.3502 72.1249 104.286 67.1436C107.481 57.2623 103.514 42.752 108.479 36.8691L109.646 36.8623C111.898 39.3765 111.023 39.1935 111.857 43.1445C112.391 42.9204 117.483 37.265 117.769 36.6592C116.989 30.8442 109.518 26.6756 111.451 20.5557C113.159 18.5902 112.457 18.7937 114.522 18.4209C118.686 20.6853 129.559 40.4876 134.2 46.167C140.016 53.2832 142.96 57.6755 150.389 64.0801C147.386 48.7294 134.381 26.5737 131.12 11.1553C132.015 9.42748 132.27 9.4273 134.097 8.49902C135.933 8.89211 142.502 20.6711 144.334 23.0635C143.208 17.4587 141.75 11.515 140.472 5.91016C144.562 4.69702 150.226 3.6866 154.501 2.79199C154.617 3.47645 154.738 4.15435 154.863 4.83203C155.285 7.11598 156.681 14.5375 158.57 15.832C160.142 12.0774 159.995 8.91251 162.165 6.02539C164.188 5.1037 163.168 5.19169 165.331 5.78809C167.128 8.66867 167.88 19.3692 167.83 23.0156L169.285 23.334C169.047 17.6139 169.313 8.89175 169.171 2.60254C173.985 1.28777 179.549 0.691266 184.536 0ZM120.279 41.8838C117.388 51.6025 114.912 61.5181 111.931 71.1826C104.725 77.045 96.2962 82.9007 95.1641 92.877C94.5842 97.9802 95.1778 103.605 95.293 108.763C95.5769 121.538 94.0793 134.164 102.271 145.144C103.362 146.601 105.701 147.828 107.295 148.675C111.989 151.155 117.168 152.673 121.962 154.957C128.007 157.831 133.718 161.517 139.899 164.1C142.351 165.13 145.295 166.173 147.97 166.329C149.996 166.451 150.853 166.431 152.535 165.333C155.902 158.102 156.235 132.369 155.328 124.154L155.062 123.401C151.279 113.052 141.824 105.34 132.066 100.867C127.24 98.651 121.672 97.0715 116.318 97.7764C114.216 98.0543 111.913 98.8476 109.804 98.7393C108.351 98.6715 108.001 98.2646 106.948 97.3633C106.685 95.3979 107.325 93.5746 108.602 92.0361C109.577 90.8637 110.969 90.2404 112.477 90.1523C115.234 89.9965 118.291 90.6065 121.039 90.9521C136.022 92.8498 143.784 100.684 154.62 110.342C150.767 97.6546 149.666 82.6898 142.988 71.209C140.141 66.3159 136.264 61.8088 132.812 57.3291C128.88 52.2191 124.975 46.3094 120.279 41.8838Z" fill="#FEFF59"/>
</svg>
