<svg width="205" height="240" viewBox="0 0 205 240" fill="none" xmlns="http://www.w3.org/2000/svg">
<path d="M130.382 26.0041C132.151 21.0404 134.643 0.786008 139.753 0L140.942 0.937846C141.494 2.82439 141.472 1.89113 140.935 3.83969C139.042 13.4362 139.776 24.3719 137.712 31.5934C135.963 37.8218 133.155 42.4125 131.339 48.2609C130.043 53.0243 129.613 58.212 128.46 62.9684C126.719 69.9098 124.677 77.1432 122.11 83.8261C117.831 94.9701 110.472 104.515 107.589 116.221C105.463 124.856 101.811 133.716 98.5736 142.004C92.8021 159.737 93.9337 179.638 98.6602 197.471C99.4065 193.678 100.127 190.135 101.042 186.381C102.414 179.563 111.297 168.591 115.065 160.842C117.29 153.628 116.96 146.816 118.274 139.328C119.756 125.065 130.568 116.75 134.283 104.296C136.667 96.3039 132.027 81.6346 134.243 73.2488C135.686 67.7934 135.482 47.7141 140.237 45.6468L141.253 46.3296C143.254 49.7603 141.453 57.1508 140.65 61.0085C138.75 70.1311 137.389 76.9921 139.033 86.3581L139.129 86.885C141.901 90.3443 139.109 91.738 141.448 94.0363L142.772 90.7697C144.117 85.8205 144.66 80.6922 145.346 75.6049C145.817 72.7652 146.157 70.0199 147.072 67.2957C147.291 64.184 147.724 61.7566 150.696 60.2664L151.769 60.7106C152.751 62.4319 152.569 62.9404 152.527 65.019C152.782 65.8578 153.171 67.3346 153.526 68.0698C155.85 63.7176 156.98 54.7424 159.751 52.4511H160.916C162.054 53.6888 162.535 54.5896 162.497 56.3147C162.266 66.8391 140.81 107.405 134.338 117.304L136.49 117.524C142.651 110.901 145.507 109.383 151.01 101.467C156.853 93.0626 163.268 64.965 167.351 60.1832C169.024 59.4135 168.199 59.4562 169.903 59.9695C171.913 66.7414 167.542 75.3339 168.524 76.5268L169.375 76.3304C170.391 71.989 177.278 51.0002 182.519 51.4396C183.631 52.565 184.278 53.6499 184.099 55.2681C183.432 61.3248 179.215 76.5738 175.212 80.7462C169.825 86.6221 168.083 91.8422 163.498 97.1076L163.745 98.056C166.604 95.7064 172.042 92.7663 175.398 90.8155C177.659 89.2232 179.716 87.34 181.809 85.5237C183.307 83.9675 186.76 80.5281 187.773 78.7706C189.916 75.0511 192.364 63.2318 196.016 61.6611C203.308 65.0503 193.387 81.8829 190.921 86.0553C194.235 83.241 200.14 77.3365 204.095 76.4102L204.983 76.8685C205.479 83.2108 195.188 92.159 189.987 94.4201C174.796 101.025 162.112 106.186 148.735 116.413C136.976 125.403 133.851 134.882 124.639 145.817C124.554 162.658 114.847 170.398 108.664 184.18C106.777 188.385 105.333 203.164 104.752 208.596C107.964 214.696 110.091 216.871 114.743 221.98C117.52 224.115 119.039 228.042 122.825 231.201C127.95 234.227 123.975 241.158 118.743 239.834C112.572 238.509 109.165 230.768 105.407 226.87C94.1031 215.142 90.9811 204.857 86.4975 189.604C84.1613 181.655 81.7088 181.813 81.7521 171.9C72.8002 164.258 74.5211 161.89 68.756 153.413C59.3982 139.652 50.245 130.343 36.9854 120.426C30.6478 120.746 23.2128 119.125 17.1972 117.14C11.357 115.214 -2.6045 103.831 0.42493 97.1179C5.18338 96.7227 10.0484 106.388 14.0644 108.896C17.7698 111.21 19.811 111.6 23.971 112.806C17.4478 106.921 3.1854 88.6905 8.61923 80.0785C10.4251 78.9299 9.45262 79.1906 11.6627 79.3633C14.9259 81.104 15.8205 83.2712 17.1534 86.5012C19.2433 90.74 21.309 95.1542 24.2415 98.8824C26.068 100.731 32.49 107.096 33.6756 108.785C34.7223 109.968 38.5596 114.118 39.0775 115.206C50.7483 124.391 58.7331 129.952 65.9203 143.143L66.7575 142.052C66.0383 140.109 65.4203 137.823 64.825 135.814C60.4313 124.64 55.5571 120.643 49.1004 110.811C46.104 106.725 43.1704 97.6366 40.1296 94.2231C30.117 82.9835 25.4278 77.9901 21.1775 63.0111C20.1146 59.6219 18.8148 55.3005 20.0421 51.9917C21.6023 50.5856 20.9058 50.9991 23.2729 50.7281C30.0488 56.475 28.4042 72.7414 33.7433 75.1288C33.2341 70.9543 33.904 59.0951 35.5995 55.1882C37.2792 54.5281 37.5347 54.2938 39.2848 54.7953C40.8271 56.1906 41.1253 57.2949 41.457 59.4411C42.7055 68.7304 43.8327 75.7604 45.3745 84.8824C51.2656 96.1776 54.3676 103.075 62.6349 113.335C56.2898 90.4517 43.7949 70.1031 47.4677 45.5707C48.1512 41.0075 48.4997 30.3255 53.1299 28.1605C57.2449 29.0209 56.0441 34.696 55.4153 37.8191C55.1929 47.4787 55.8255 65.3844 58.4572 74.513C61.8405 86.2491 68.6435 96.9856 69.4087 109.903C70.3124 112.721 70.2107 120.93 70.9099 123.864C73.3549 134.129 77.1186 151.713 82.2911 160.441C82.4047 145.316 80.2174 133.746 76.873 119.221C75.7235 114.228 76.9844 106.006 75.8496 100.606C74.6428 94.8665 73.324 89.0235 72.1513 83.268C70.5137 76.9894 69.0542 42.8794 74.5319 39.2068C77.0743 39.9177 77.8232 41.8215 76.9888 44.2558C76.8843 56.0891 76.4752 67.1948 77.6479 78.9963L77.8059 79.5938C77.9894 80.3176 78.0505 80.6517 78.1555 81.3739L78.8244 81.0269C79.7649 72.9341 82.0064 49.6713 86.0754 43.2853L86.9483 42.8465C88.2947 43.3377 89.5053 43.7819 90.0016 45.4746C94.0587 59.3164 88.3251 74.588 86.076 88.3045C85.6593 90.8447 85.8049 98.2892 85.9174 100.777C86.2151 107.498 86.405 110.836 87.9663 117.497C89.225 122.867 91.9514 131.049 92.196 136.224L93.5305 136.504C94.1718 132.813 97.6791 123.884 99.1862 120.385C99.4168 119.165 100.661 115.371 101.073 113.987C101.574 106.66 99.4449 98.6772 99.8183 90.069C100.453 72.5725 94.3628 63.5136 92.492 46.6027C91.9124 41.3648 93.3346 28.7791 96.442 25.0525C98.1748 24.5522 97.4761 24.5943 99.4833 25.5048C101.146 30.1258 99.2447 37.5589 99.459 42.7374C99.6386 47.0885 99.9915 51.5799 100.846 55.8554L102.348 55.4392C102.742 48.5923 102.92 43.5174 105.976 37.3419C106.98 35.4878 106.281 36.1631 108.092 35.192C110.777 35.6233 111.282 36.5193 112.387 38.8727C114.737 45.3634 112.292 58.8802 111.891 66.6615C110.51 76.0065 110.263 83.6987 109.339 92.9476L109.905 96.8491C113.8 90.4544 115.225 85.7093 117.756 79.4362C125.894 59.2662 122.317 41.6816 122.241 20.6648C122.234 18.6223 122.384 16.3677 123.964 14.8817C127.773 13.8421 128.176 18.6827 128.888 21.6558C129.39 23.3819 129.685 24.3557 130.382 26.0041Z" fill="#FF3900"/>
<path d="M69.4087 109.903C68.1121 108.062 66.9903 100.645 65.8078 97.7559C56.7471 75.6168 52.2701 57.9232 55.0517 33.6575L55.4153 37.8191C55.1929 47.4787 55.8255 65.3844 58.4572 74.513C61.8405 86.2491 68.6435 96.9856 69.4087 109.903Z" fill="#FF3900"/>
<path d="M99.292 202.447C92.6183 187.154 92.0799 157.861 97.7627 142.196L98.5736 142.004C92.8021 159.737 93.9337 179.638 98.6602 197.471C99.4065 193.678 100.127 190.135 101.042 186.381C101.358 190.098 99.9922 198.773 99.292 202.447Z" fill="#FF3900"/>
<path d="M92.064 143.884C91.158 139.377 91.2284 135.029 90.2359 130.747C88.2931 122.36 84.2566 109.845 85.1446 101.126L85.9174 100.777C86.2151 107.498 86.405 110.836 87.9663 117.497C89.225 122.867 91.9514 131.049 92.196 136.224L93.5305 136.504C94.1718 132.813 97.6791 123.884 99.1862 120.385C98.9411 123.93 93.4315 139.631 92.064 143.884Z" fill="#FF3900"/>
<path d="M92.196 136.224L93.5305 136.504C93.2356 137.551 93.1438 137.618 92.6535 138.604L92.2016 138.208L92.196 136.224Z" fill="#FF3900"/>
<path d="M77.6479 78.9963L77.3074 79.1227L76.8063 78.7923C75.3733 73.4271 74.8528 49.2794 76.9888 44.2558C76.8843 56.0891 76.4752 67.1948 77.6479 78.9963Z" fill="#FF3900"/>
<path d="M99.4833 25.5048C101.146 30.1258 99.2447 37.5589 99.459 42.7374C99.6386 47.0885 99.9915 51.5799 100.846 55.8554C100.984 57.1692 101.215 58.5653 101.125 59.8569L100.888 59.8532C97.2384 55.9523 98.6775 31.4407 99.4833 25.5048Z" fill="#FF3900"/>
<path d="M147.074 67.2957C147.293 64.1839 147.726 61.7566 150.698 60.2663L151.771 60.7105C152.753 62.4318 152.571 62.9403 152.528 65.0189C152.784 65.8577 153.173 67.3345 153.528 68.0697L151.893 71.2068L152.279 71.956C151.219 73.6541 151.926 73.1365 150.326 73.8333C149.485 70.4366 152.58 64.85 149.911 62.5587C148.595 63.5065 148.193 65.8448 147.553 67.6967L147.074 67.2957Z" fill="#FF3900"/>
<path d="M152.527 65.019C152.782 65.8578 153.171 67.3346 153.526 68.0698L151.891 71.2072C151.465 68.9509 152.041 67.2893 152.527 65.019Z" fill="#FF3900"/>
<path d="M99.8196 90.069L100.463 90.3664C100.969 95.628 103.612 109.733 101.691 113.845L101.075 113.987C101.576 106.66 99.4462 98.6772 99.8196 90.069Z" fill="#FF3900"/>
<path d="M163.324 99.1952C162.851 100.424 160.908 101.625 159.699 102.17L159.302 101.551C159.371 101.377 159.441 101.204 159.51 101.03C162.965 96.9142 171.086 82.1447 175.212 80.7462C169.825 86.6221 168.083 91.8422 163.498 97.1076L163.745 98.056L163.324 99.1952Z" fill="#FF3900"/>
<path d="M163.324 99.1952L161.739 99.7552L161.517 99.2603L163.499 97.1077L163.747 98.056L163.324 99.1952Z" fill="#FF3900"/>
<path d="M111.892 66.6616C111.062 63.1741 111.612 42.2976 112.389 38.8728C114.738 45.3635 112.293 58.8803 111.892 66.6616Z" fill="#FF3900"/>
<path d="M105.977 37.3419C105.524 41.2239 104.057 44.7162 103.664 49.3603C103.409 52.3717 103.168 63.4266 102.463 65.0767C101.84 63.3176 101.642 62.4713 102.239 60.5848L101.127 59.8566C101.217 58.565 100.986 57.1691 100.848 55.8553L102.35 55.4392C102.743 48.5922 102.922 43.5173 105.977 37.3419Z" fill="#FF3900"/>
<path d="M102.35 55.4392L102.239 60.5848L101.127 59.8566C101.217 58.565 100.986 57.1691 100.848 55.8553L102.35 55.4392Z" fill="#FF3900"/>
<path d="M41.457 59.4411C42.7055 68.7304 43.8327 75.7604 45.3745 84.8824C42.3289 83.8833 40.4694 63.0893 41.457 59.4411Z" fill="#FF3900"/>
<path d="M33.7433 75.1288C33.2341 70.9543 33.904 59.0951 35.5995 55.1882C36.3549 62.6656 33.6441 67.5677 35.2632 76.8361L34.9077 77.7844L34.1787 77.6468C34.0137 76.7837 33.8688 75.9984 33.7433 75.1288Z" fill="#FF3900"/>
<path d="M64.825 135.814C65.7055 136.621 72.2873 150.472 73.7728 153.105C71.7012 151.628 69.3033 150.071 69.6594 147.165L68.9818 146.314C67.3935 145.803 66.8116 144.523 65.9203 143.143L66.7575 142.052C66.0383 140.109 65.4203 137.823 64.825 135.814Z" fill="#FF3900"/>
<path d="M66.7575 142.052L68.9818 146.314C67.3935 145.803 66.8116 144.523 65.9203 143.143L66.7575 142.052Z" fill="#FF3900"/>
<path d="M118.276 139.328C118.943 143.045 118.62 159.015 115.067 160.842C117.292 153.628 116.962 146.816 118.276 139.328Z" fill="#FF3900"/>
<path d="M145.346 75.6049C146.452 79.8944 145.543 86.1393 143.923 90.3052C143.63 90.4342 143.053 90.7222 142.772 90.7697C144.117 85.8205 144.66 80.6922 145.346 75.6049Z" fill="#FF3900"/>
<path d="M24.2415 98.8824C20.4404 98.0015 17.9445 90.6919 16.6803 87.4247L17.1534 86.5012C19.2433 90.74 21.309 95.1542 24.2415 98.8824Z" fill="#FF3900"/>
<path d="M21.1775 63.0111C20.1146 59.6219 18.8148 55.3005 20.0421 51.9917C21.6023 50.5856 20.9058 50.9991 23.2729 50.7281C18.8515 53.7719 21.9005 57.7133 21.1775 63.0111Z" fill="#FF3900"/>
<path d="M114.743 221.98C117.52 224.115 119.039 228.042 122.825 231.201C119.755 230.956 114.741 224.565 114.743 221.98Z" fill="#FF3900"/>
<path d="M139.129 86.885C141.901 90.3443 139.109 91.738 141.448 94.0363C141.227 95.0241 140.086 97.3285 139.62 98.3497L139.129 86.885Z" fill="#FF3900"/>
<path d="M133.026 121.772C132.819 124.014 130.657 127.6 127.987 127.371C127.87 125.062 129.23 123.745 130.855 122.201C130.38 123.371 129.675 124.4 129.957 125.332L133.026 121.772Z" fill="#FF3900"/>
<path d="M134.338 117.304L136.49 117.524C135.794 118.372 133.517 121.013 133.026 121.772L129.957 125.332C129.675 124.4 130.38 123.371 130.855 122.201C132.043 121.386 133.468 118.696 134.338 117.304Z" fill="#FF3900"/>
<path d="M39.0789 115.206L38.3614 115.335C35.9299 113.57 33.9379 111.906 33.677 108.785C34.7236 109.967 38.561 114.118 39.0789 115.206Z" fill="#FF3900"/>
<path d="M109.34 92.9479L109.906 96.8493C109.426 97.5796 109.203 97.823 108.643 98.4902C108.216 97.1391 109.011 94.5504 109.34 92.9479Z" fill="#FF3900"/>
<path d="M139.558 99.1184L139.967 99.4212L139.437 100.86L138.836 100.651L138.676 99.7877L139.558 99.1184Z" fill="#FF3900"/>
</svg>
