<svg width="179" height="520" viewBox="0 0 179 520" fill="none" xmlns="http://www.w3.org/2000/svg">
<path d="M93.1963 0.00244304C100.658 -0.200349 108.079 12.2737 111.095 18.0913C115.859 27.2042 119.396 36.9074 121.612 46.9478C123.734 56.6164 125.136 67.142 128.674 76.354L132.604 87.0132C135.532 79.0195 136.712 72.4541 137.39 64.0044C138.46 50.6738 136.699 23.8742 146.647 13.064L147.989 12.6606C151.798 16.206 148.795 40.9221 148.253 47.063L143.598 95.7212C143.035 101.604 141.842 111.887 141.917 117.591C141.551 120.342 141.171 122.856 141.639 125.626H142.276L143.042 123.797C148.023 113.953 156.447 95.7588 167.758 92.0962C169.533 91.5223 171.377 91.4835 173.085 92.3188C174.915 93.2166 176.155 94.9687 176.697 96.9009C177.856 101.012 176.046 105.039 173.945 108.506C168.93 116.772 160.818 121.65 154.149 128.323C140.697 141.791 139.26 172.916 137.667 191.425C141.991 182.862 146.267 174.244 151.621 166.256C158.181 156.467 165.65 147.707 170.983 137.083C172.671 152.659 173.748 166.521 163.332 179.475C158.88 185.01 153.526 189.82 149.08 195.369C135.688 212.076 135.797 231.44 135.797 251.819C143.597 238.228 149.581 219.962 166.361 215.369C168.625 214.745 171.437 214.237 173.572 215.457C174.487 215.971 175.091 216.818 175.409 217.828C176.622 221.71 174.508 226.473 172.454 229.705C164.674 241.974 146.41 248.478 141.307 260.958C133.459 280.144 148.212 310.64 146.586 332.523C144.885 355.511 131.06 375.768 129.895 398.478L130.979 400C136.837 392.464 166.055 322.612 173.728 311.852C178.391 327.855 181.041 345.971 172.698 361.31C168.591 368.851 162.363 375.328 156.969 381.967C144.485 397.313 138.752 415.639 135.811 434.968C143.482 426.859 158.608 400.714 170.184 400.395C171.593 400.354 172.794 400.896 173.77 401.913C175.132 403.329 175.368 405.26 175.26 407.15C174.663 417.143 167.344 426.167 160.065 432.407C143.522 446.587 135.763 456.371 133.92 478.85C133.052 489.406 132.591 500.104 132.266 510.693C132.792 510.247 133.317 509.785 133.84 509.31C134.101 509.073 134.362 508.832 134.621 508.588C135.4 507.857 136.169 507.097 136.921 506.314L137.668 505.524C135.941 507.384 134.107 509.131 132.266 510.693L128.804 519.9C122.697 510.225 118.922 498.396 115.689 487.501C104.636 450.212 100.333 413.559 74.2549 382.448C66.5967 377.021 57.637 373.667 50.1279 368.186C44.2454 363.897 37.8005 356.161 36.8584 348.695C36.6551 347.055 36.8646 345.117 38.0371 343.857C39.3179 342.475 41.3037 342.15 43.0927 342.191C53.211 342.428 62.6722 350.89 69.3476 357.712C68.5073 353.986 67.5452 350.294 66.4541 346.628C62.1709 331.879 55.3529 313.553 42.1377 304.61C37.1497 301.229 31.2806 299.203 26.0283 296.269C20.5139 293.193 13.6562 287.72 12.0722 281.263C11.4745 278.831 11.8122 276.113 13.1914 273.993C14.2276 272.401 15.6473 271.445 17.5088 271.086C25.9198 269.44 36.9059 277.556 43.6152 281.94C38.241 265.016 36.0043 253.18 20.7402 242.401C15.654 238.81 10.5166 235.45 6.64353 230.47C3.57153 226.514 1.45766 221.365 2.3779 216.277C2.65441 214.746 3.45669 213.621 4.77146 212.808C14.6959 206.636 23.4058 217.957 28.5293 219.109C28.7528 219.156 28.9767 219.196 29.207 219.237C27.7906 213.871 26.2928 208.526 24.707 203.201C21.2229 195.531 17.3675 187.665 12.7842 180.585C8.89215 174.569 3.77341 168.574 0.954073 161.968C0.023595 159.787 -0.414898 157.916 0.51755 155.633C1.28193 154.732 1.97802 154.095 3.13669 153.743C6.76366 152.632 10.6994 154.007 13.831 155.836C24.957 162.327 31.9443 175.714 35.1025 187.875C38.2064 198.587 39.4065 209.325 41.3447 220.247C44.1775 214.942 48.0272 206.229 54.5332 204.589C56.0851 204.197 58.2605 204.285 59.5752 205.301C62.9433 207.896 64.6238 213.743 64.9355 217.808C66.7176 241.073 41.6024 233.486 57.4541 269.63C60.4631 259.244 65.0782 244.711 75.332 239.237C77.5345 238.065 79.7914 237.536 82.1972 238.383C85.2062 239.433 87.8089 242.591 89.083 245.443C90.906 249.521 90.1059 253.918 88.4795 257.916C83.6406 269.806 68.2496 280.246 65.3896 289.359C64.6713 291.662 65.1593 293.946 66.0742 296.121C67.1924 298.783 68.6426 301.364 69.9912 303.918C74.1117 299.271 79.4661 291.628 86.25 291.08C87.9849 290.944 89.7128 291.487 90.9394 292.76C93.9349 295.89 94.4294 302.781 94.0634 306.886C93.311 315.402 86.5888 322.462 84.4404 330.713C78.8154 352.353 91.7254 375.476 102.284 393.606C105.015 398.301 107.618 403.491 110.756 407.902C110.424 392.631 105.903 379.365 102.325 364.779C94.8161 334.149 106.371 316.689 112.321 287.543C116.205 268.567 114.626 250.132 103.742 233.662C82.2722 213.187 74.2675 187.564 65.9384 160.105C62.1636 147.646 44.6524 150.152 35.5371 142.584C29.641 137.686 15.7376 118.988 30.3652 116.46C39.0535 115.282 52.2354 127.958 58.5517 133.608L56.1054 121.101C52.0934 101.095 50.602 92.3463 31.748 82.3179C26.4415 79.4979 15.7118 65.2855 21.0664 59.1284C28.4209 50.6739 37.9971 60.5522 43.5205 65.771C44.442 55.6863 34.1678 33.4989 47.8164 25.8647C53.9224 22.4522 58.4976 32.2356 60.1445 36.5142C65.3629 50.5514 57.9219 58.2391 58.8232 68.7397L62.665 94.4702C64.461 88.6694 67.4368 79.6055 73.2109 77.6597C88.4862 72.5089 88.4189 88.4657 83.7021 97.4175C79.7036 105.007 74.6067 111.277 72.7295 118.716L72.6211 120.877C72.6279 131.087 74.8646 141.176 79.1816 150.43C81.0724 147.361 82.7187 144.542 85.7412 142.449C87.8556 141.514 89.828 140.64 92.1797 141.419C93.7993 141.961 94.965 143.377 95.5547 144.942C98.5705 152.923 88.6832 163.472 89.5371 175.931C90.3503 187.767 97.27 199.509 103.627 209.224C106.744 213.98 111.095 222.184 115.615 225.463C116.313 224.569 116.279 224.325 116.381 223.18C111.935 209.474 98.53 195.633 99.1601 180.843C99.2686 178.255 100.069 175.586 102.149 173.885C104.135 172.266 106.669 171.663 109.19 172.077C114.72 172.984 117.818 177.333 120.881 181.547C121.179 171.554 124.879 160.694 122.799 150.823C121.01 142.313 115.032 137.801 108.065 133.357C104.596 130.708 103.104 127.883 102.501 123.567C102.067 120.417 102.183 116.528 104.352 114C105.524 112.632 107.171 111.913 108.953 111.9C115.635 111.832 120.826 118.404 125.015 122.76C121.45 91.7758 122.48 86.9889 96.4013 70.2573C105.299 65.5706 110.071 67.1974 117.979 72.5718C114.455 60.7501 114.781 49.2262 110.43 38.8022C105.374 26.7022 91.1625 15.3329 92.3213 1.00733L93.1963 0.00244304ZM130.979 400C130.876 400.133 130.781 400.247 130.692 400.34L131.025 400.063L130.979 400Z" fill="#F5FEA1"/>
</svg>
