<svg width="436" height="500" viewBox="0 0 436 500" fill="none" xmlns="http://www.w3.org/2000/svg">
<path d="M287.328 32.7597C288.962 28.9969 291.196 24.6965 291.896 20.6599C293.084 13.7834 290.241 6.17671 294.211 0.304319L296.099 0C300.901 4.40176 301.997 12.9822 302.22 19.2704C303.073 42.4963 283.237 51.3099 284.028 73.5216C288.952 69.3429 289.47 57.7401 299.906 49.1699C300.667 47.608 302.159 46.4112 303.367 45.1637C305.743 46.5735 305.834 46.7257 306.941 49.2612C306.464 61.006 294.373 66.6146 296.332 83.6537C297.449 93.3599 304.464 100.247 305.946 109.689C306.149 110.967 306.393 112.225 306.575 113.492C314.209 108.016 317.996 103.097 322.453 94.8712C321.915 86.595 320.341 69.7689 325.813 62.7809C326.666 61.6957 326.757 61.716 327.732 61.0669C330.168 62.9331 330.686 65.7729 331.082 68.8055C331.64 73.0348 330.929 77.5481 330.473 81.7673C332.858 78.6231 334.858 75.2053 338.594 73.6231L340.208 74.2721C341.365 82.2541 333.356 97.3154 331.082 105.876C335.325 101.585 340.147 95.6014 346.533 94.8915L347.487 96.0376C346.309 103.685 342.32 109.577 336.188 114.212C325.356 122.407 311.895 124.821 301.611 134.315C299.327 153.058 294.972 171.151 307.591 187.379L308.189 188.14C309.519 181.304 309.915 171.892 313.641 166.03C316.544 165.452 316.605 165.563 319.255 166.922C320.341 168.514 321.336 169.772 321.844 171.659C328.625 187.42 311.123 196.183 314.626 211.741C316.616 212.917 316.93 212.907 319.255 212.836C335.386 203.759 334.807 170.827 338.005 155.116C340.035 145.197 343.609 135.167 347.7 125.896C349.862 121.008 352.116 115.065 357.405 113.006L360.085 114.253C360.248 115.409 360.542 116.403 360.207 117.529C359.486 123.483 357.212 129.345 355.375 135.045C361.344 128.239 369.354 123.969 375.963 117.823L376.44 116.211C377.973 111.139 378.704 107.295 383.729 104.628L385.718 105.409C387.089 108.715 386.439 111.981 385.536 115.338C382.876 132.601 367.435 135.674 358.441 148.585C369.841 144.041 382.399 138.24 394.591 143.848C399.159 145.948 403.606 149.356 406.062 153.767C407.159 157.084 407.494 159.64 405.931 162.896C405.799 163.169 405.626 163.413 405.474 163.677C403.149 162.409 401.87 160.887 399.139 160.177C396.916 163.281 399.85 169.011 399.2 173.18C398.845 175.472 397.961 177.257 396.073 178.647C389.81 175.817 390.825 159.346 384.135 154.001C381.414 153.058 380.47 153.281 377.841 154.072C376.074 156.476 376.866 157.987 377.181 160.887C378.683 163.261 378.764 163.119 378.206 165.857C376.572 166.567 376.653 166.841 374.815 166.395C370.623 162.794 366.532 159.001 360.593 159.184C358.39 159.255 356.735 160.157 355.233 161.719C346.533 170.796 354.827 193.779 344.167 206.863C340.807 213.485 337.741 223.131 333.092 228.739C329.864 232.634 324.686 235.626 322.036 239.866C319.356 244.156 319.448 250.14 316.494 254.278C310.352 262.909 301.124 269.684 295.002 278.345C292.475 281.916 295.733 283.609 292.505 286.52C281.47 289.867 269.572 288.062 258.223 289.137C252.233 290.973 248.792 292.697 245.726 298.326C242.467 304.289 241.685 312.464 240.416 319.138C248.071 315.466 254.933 310.081 262.76 306.866C274.394 302.413 283.531 299.979 293.865 292.656C295.865 288.883 302.423 285.617 306.149 283.853C306.525 282.92 306.281 283.204 307.042 282.555C312.819 277.636 318.423 273.386 322.859 267.128C326.046 259.552 330.351 250.748 336.848 245.454C339.528 243.263 340.472 243.365 343.822 243.862C346.685 251.834 340.381 253.821 341.284 260.1C342.705 260.83 343.832 261.164 345.426 261.225C354.928 261.58 360.37 256.002 366.745 249.876C370.877 232.796 375.364 222.35 390.348 212.025L392.977 211.508C395.149 213.141 394.916 213.333 395.413 216.051L394.337 218.81C394.185 219.023 394.033 219.236 393.88 219.449C386.815 229.125 382.876 229.936 379.089 242.888L390.327 236.052L391.972 234.5C394.012 234.987 394.398 235.139 395.931 236.569C395.759 237.878 395.789 240.15 395.322 241.326C391.617 250.444 362.725 264.684 365.476 275.353C369.506 276.915 372.044 276.692 375.942 274.968C386.419 270.353 397.576 267.797 408.793 271.865C414.773 274.025 418.102 278.427 420.559 284.096C423.006 289.705 424.011 296.348 428.214 300.912C430.213 301.602 432.934 302.251 434.518 303.681C436.041 305.05 435.848 306.044 436 307.941C434.335 310.02 432.944 311.298 430.153 311.501C419.412 312.251 416.823 295.506 409.788 290.496C405.778 287.646 396.865 286.186 392.043 287.098L393.637 289.664C398.276 295.385 402.124 307.677 401.464 315.132C401.362 316.217 400.966 317.028 400.51 317.992C398.51 318.326 398.266 317.971 396.703 316.765C390.155 311.734 389.85 300.942 384.013 294.502C368.562 291.825 354.613 293.356 340.269 285.912C333.102 291.916 325.894 296.45 317.499 300.527C314.423 303.833 309.377 306.835 305.174 308.448C302.109 312.363 295.774 315.274 291.5 317.89C291.784 318.205 292.069 318.509 292.343 318.813C296.789 323.813 302.992 342.009 308.474 342.354C315.418 342.8 330.117 334.067 336.533 330.781C338.959 328.895 340.188 328.144 343.294 327.962L345.538 328.915C346.208 331.359 346.116 331.745 344.736 334.037C344.634 334.209 344.462 334.331 344.33 334.473C339.294 340.812 332.818 345.396 325.052 347.79L325.427 351.938C328.94 351.634 330.584 351.167 333.863 352.618C334.462 353.977 334.99 354.281 334.401 355.802C333.183 358.896 329.884 360.833 326.889 361.938C320.077 364.474 310.007 362.161 303.713 359.058C282.739 348.733 291.114 328.459 261.918 329.189C243.147 341.775 253.543 356.563 234.407 372.395C232.752 373.856 231.26 375.6 229.138 376.259C220.935 383.328 215.118 384.566 214.296 396.442C213.474 408.258 214.215 423.025 216.753 434.527C224.966 443.979 235.381 452.925 241.675 463.798C240.548 474.447 239.584 487.733 230.833 495.168C228.539 497.115 225.899 498.221 223.067 499.133C222.235 499.417 221.768 499.62 220.945 499.782C216.631 500.624 209.9 498.931 206.398 496.304C196.754 489.062 196.327 476.475 194.419 465.684C193.515 460.511 165.405 429.912 160.329 426.332C152.269 425.186 144.29 428.736 136.747 431.261C131.986 436.474 128.057 442.712 124.108 448.564C118.788 449.74 113.438 450.856 108.088 451.901C105.936 455.319 104.312 458.483 100.678 460.522L98.4544 460.349C96.1297 457.225 95.2262 453.625 91.9776 451.485C88.4753 451.941 87.0845 452.57 84.9019 455.4C81.9782 459.223 79.8767 464.011 75.9175 466.861L73.6964 467.895L71.7158 467.084C70.6691 464.7 70.6072 464.579 71.2041 462.053C71.3036 461.404 71.4041 460.745 71.5351 460.096C74.7694 444.132 89.1149 442.854 99.9468 434.496C102.17 432.772 102.82 431.697 103.124 428.969C99.4087 423.522 73.5857 417.376 66.2988 414.678C63.5446 413.451 61.3274 412.548 59.2971 410.266C51.7178 406.098 37.7298 390.996 35.7268 382.355C35.1279 379.768 35.6172 378.734 37.0445 376.635L38.9743 376.361C43.036 378.531 45.6369 383.156 48.6997 386.554C50.6651 382.659 46.9069 374.089 45.6167 369.961C43.429 367.963 41.694 363.693 40.1803 361.056C38.9185 360.316 37.6688 359.565 36.4293 358.794C31.6356 355.782 24.6888 349.828 23.8675 343.875C23.5264 341.4 24.2635 340.173 25.5933 338.205C33.1737 341.187 52.132 359.017 57.4617 365.955C57.6312 366.178 57.7947 366.401 57.9611 366.614L59.7316 365.498C63.8786 355.214 55.8811 345.457 57.4049 335.447L58.9489 335.193C63.0563 337.556 65.2938 341.076 67.1546 345.346C80.3234 364.575 58.5936 395.002 77.3764 398.339C85.7952 399.83 93.0842 398.907 101.642 401.422C107.236 401.544 112.961 404.029 117.946 406.392C122.748 403.775 127.56 401.098 132.483 398.724C140.127 395.043 149 391.757 157.375 394.678C160.441 395.469 162.715 396.635 165.75 395.459C166.776 392.071 167.365 388.694 167.263 385.134C166.715 365.985 139.112 366.512 125.448 352.689L124.585 351.796C115.205 344.027 114.281 332.282 109.327 322.079C103.084 309.229 88.7088 307.241 76.5368 303.052C61.0788 297.717 38.7906 287.25 31.9514 271.317C30.5342 268.01 31.3209 266.854 32.5188 263.71C37.1714 263.781 39.3551 265.962 42.4442 269.055C43.7477 270.363 45.0796 271.925 46.5973 272.99C48.8256 274.542 50.19 275.019 52.7239 274.36C56.4364 265.282 44.2948 250.383 42.6391 241.367C42.1011 238.425 43.2371 236.407 44.7497 234.034C46.6521 233.861 46.4582 233.516 48.1312 234.835C50.723 236.874 52.5371 240.068 54.3543 242.787C67.3059 253.578 61.1204 273.7 73.7299 283.863C84.4755 292.524 102.312 291.064 115.113 299.3C113.083 293.691 110.982 288.68 108.007 283.508L106.373 280.587C96.546 275.495 88.7798 244.622 81.3183 234.642C72.2304 222.472 57.9713 218.851 47.4135 208.688C45.2116 206.568 44.4654 204.946 44.3568 201.933C46.0877 200.524 46.0775 200.848 48.1718 200.787C53.2386 201.345 57.9865 203.526 62.7233 205.331C56.1836 198.505 47.1384 194.854 40.762 188.038C35.4243 182.328 33.8691 172.642 26.6826 168.738C19.484 164.812 8.1496 169.022 2.38443 162.186C0.293168 159.701 -0.208382 157.206 0.0707912 154.123C1.18748 153.859 0.659605 153.879 1.9367 154.102C3.76198 154.427 5.36089 154.903 7.22881 154.579C8.60539 154.336 8.67949 153.331 9.30687 152.216C9.23073 147.418 6.67044 143.118 4.67867 138.828C7.36178 130.146 7.09278 126.931 4.85229 117.986L5.85934 116.322L8.93027 115.876C19.9723 120.48 14.5939 144.832 23.8634 154.457C25.4288 154.731 25.9487 155.187 27.4044 154.285C31.3098 151.84 32.4224 147.378 33.6893 143.27L35.8811 140.197C40.9245 143.98 42.0919 147.601 42.9538 153.717C44.5598 165.107 44.6055 173.383 52.7543 182.318C53.5228 183.16 54.2649 184.032 55.0233 184.884C57.0922 184.874 58.3206 184.539 60.2149 183.718C61.562 182.176 62.4015 181.223 62.9741 179.204C66.7678 165.827 51.1321 147.175 45.0167 136.668C43.032 133.25 42.7843 130.004 43.3802 126.13C44.6675 117.772 50.0093 110.227 51.793 101.707C53.6253 92.9543 51.8407 83.3597 54.1847 74.972L56.01 74.191C59.3479 76.0065 61.3661 79.3433 62.7853 82.7815C66.5566 91.8994 65.8968 102.011 62.3092 111.028L61.8665 112.113C60.7062 115.501 58.7195 119.649 58.8291 123.229C59.1113 122.975 59.3966 122.712 59.6758 122.448C64.8877 117.499 69.7341 102.133 74.0456 100.662C76.3125 104.07 76.1866 110.592 75.4627 114.557C74.0445 122.316 69.5362 129.122 67.5261 136.688C70.0519 147.601 75.9429 155.35 76.3723 167.003L80.0595 168.038C82.3741 166.293 82.5365 165.776 85.5313 165.918C93.5613 175.472 78.7103 190.351 82.1304 200.432C87.4702 197.572 89.8661 191.243 93.8861 186.933C107.165 172.703 129.509 159.386 135.427 139.984C139.498 126.647 128.666 126.505 123.956 116.921C123.844 116.687 123.753 116.454 123.651 116.231C121.611 112.57 120.616 108.046 121.245 103.867C121.702 100.804 122.362 98.989 124.818 97.1938C127.214 98.421 127.011 99.2526 127.854 101.717C128.453 103.837 129.031 107.995 130.778 109.151C133.194 103.127 134.635 97.7212 135.204 91.2403C135.823 84.2522 132.483 68.3592 136.27 63.0852C141.792 65.2658 147.437 81.4326 149.832 86.8486C148.655 94.6379 146.076 102.508 144.117 110.146C146.665 116.434 150.167 122.205 152.583 128.635C161.456 119.263 167.963 108.066 168.552 94.9016C169.182 80.7227 164.806 68.0043 155.193 57.649C153.051 55.6509 151.203 52.0503 150.178 49.322C148.898 45.9244 148.127 41.8269 149.7 38.4292L151.507 38.6423C155.71 42.5978 158.106 48.1354 161.446 52.8515C167.405 46.2388 166.776 35.2243 170.268 27.3031C173.303 20.4469 178.623 14.2905 182.034 7.39378C182.257 6.55197 182.318 6.20712 182.765 5.35517C183.932 3.10358 185.008 2.42408 187.343 1.71411C189.13 3.25574 188.886 3.86423 189.282 6.22739C189.485 15.6395 186.917 22.1103 182.054 30.1227C185.536 27.293 188.805 24.0271 193.241 22.9419L194.683 23.9156C193.586 35.4779 180.166 44.0684 178.328 55.6002C176.389 67.7304 182.166 81.1588 182.846 93.36C192.338 86.2908 207.19 73.0753 209.179 60.7524C210.316 53.6832 207.119 46.0359 208.895 39.0682L210.347 38.6423C213.311 41.5126 214.733 44.9914 216.489 48.6527C217.149 37.0905 216.895 25.3051 221.544 14.5137C222.813 12.0288 223.737 9.22948 226.387 7.97184C228.062 8.95564 228.397 9.25996 228.752 11.1971C229.28 14.0066 228.163 17.7795 227.635 20.5585C228.143 32.9727 228.793 43.4598 224.519 55.4074C223.016 59.586 219.707 65.57 219.22 69.8602L226.793 64.9006C229.402 63.3083 230.478 62.3144 233.574 62.213L235.726 63.785C236.183 67.8419 234.061 71.6148 231.544 74.7894C223.29 85.2258 209.149 87.5485 200.205 96.9605C195.251 102.164 194.064 111.657 189.079 116.271C184.247 128.31 175.161 139.376 164.644 146.962C152.675 156.11 142.472 167.47 131.011 177.257C141 174.143 156.33 173.251 163.294 164.954C164.796 162.297 165.923 159.356 167.172 156.577C167.212 156.465 167.233 156.344 167.283 156.232C168.37 153.555 168.501 153.027 171.131 151.678C173.598 152.591 173.841 153.23 175.435 155.38C182.288 147.804 185.069 137.925 194.317 132.499C194.419 132.357 194.48 132.175 194.622 132.053C198.104 128.878 204.165 124.091 208.997 124.497C210.509 127.256 209.342 130.927 208.946 134.051L210.154 134.457L216.367 130.694C218.032 128.26 219.078 127.043 221.737 125.734C224.224 126.191 224.153 126.302 225.747 128.29C225.96 130.237 226.082 131.87 225.798 133.818C224.062 137.276 221.737 139.964 218.204 141.729C211.271 145.37 203.373 146.739 196.703 150.573C194.612 154.133 192.46 157.652 190.683 161.374C196.226 158.839 201.86 155.289 207.931 154.559L209.647 155.603C209.606 159.163 207.799 162.429 205.19 164.812C195.688 173.474 178.136 180.868 166.156 185.706C158.34 192.714 144.554 194.032 134.909 197.775C130.889 199.327 127.164 202.025 123.61 204.459L118.829 211.072C117.316 223.648 116.047 232.593 120.666 244.805C121.864 247.969 124.108 252.097 124.453 255.393C132.219 258.578 138.046 261.692 143.985 267.747C150.787 262.402 155.284 257.118 159.223 249.46C158.918 242.219 157.761 234.987 157.243 227.746C156.715 220.22 154.451 205.493 159.578 199.59L161.883 199.459C164.573 201.923 164.847 204.286 165.882 207.664L167.344 208.019L173.73 203.576C175.06 200.564 178.064 197.45 180.409 195.108C182.196 192.268 183.333 190.128 186.409 188.606C187.881 188.87 188.683 188.566 189.516 189.986C191.191 192.856 190.754 197.014 189.678 200.037C188.521 203.292 185.384 208.019 182.237 209.581C179.516 214.662 176.775 219.713 174.318 224.926C178.785 221.285 185.059 214.581 190.896 214.642C192.114 216.822 192.653 217.806 192.043 220.321C189.851 229.419 180.531 234.155 176.806 242.178C173.039 250.312 174.329 260.465 167.933 267.513C161.74 279.005 149.619 282.991 139.782 290.435C139.153 303.519 144.208 316.278 146.899 329.067C151.081 330.761 155.162 330.325 159.598 330.416C171.831 330.649 180.948 338.875 187.343 348.693C192.693 346.025 208.51 340.853 210.682 335.508C209.372 324.696 205.231 319.047 205.829 306.856C198.277 302.22 190.876 298.164 185.648 290.8C185.384 290.395 185.1 290.019 184.876 289.603C182.998 286.135 182.694 279.684 183.729 275.962C184.277 273.954 184.227 274.37 185.78 273.437L187.617 274.613L191.495 276.581C192.805 271.936 194.541 266.023 198.551 263L200.155 263.791C202.733 269.978 202.063 276.266 203.657 282.585C204.936 287.676 212.53 291.074 216.763 293.63C215.809 285.8 214.286 277.22 215.382 269.359C216.276 262.929 218.692 258.548 223.778 254.572C227.493 251.478 233.158 248.963 236.214 245.383C240.132 240.799 238.508 234.551 244.721 231.488C247.512 232.279 247.837 232.563 249.817 234.713C250.264 237.371 250.599 239.632 251.929 242.026C256.314 241.945 259.979 232.573 263.146 229.439C263.329 229.267 263.512 229.094 263.694 228.922C266.364 230.565 268.303 231.701 269.014 235.048C269.826 238.841 268.242 242.553 266.1 245.616C260.436 253.74 249.096 262.584 239.452 264.958L241.868 268.751C250.396 268.244 257.614 266.57 265.644 263.68C274.608 258.233 280.14 252.178 286.749 244.054C286.079 239.125 285.47 233.79 283.237 229.307C275.054 212.897 240.406 219.094 222.813 213.201C222.438 213.08 222.072 212.938 221.697 212.816C219.646 211.842 219.24 212.045 218.103 209.976L219.159 208.14C222.681 206.071 225.798 205.716 229.757 205.26C225.94 197.937 222.245 191.7 221.879 183.251C221.737 179.752 222.499 178.058 224.864 175.573L226.58 175.685C228.59 177.257 229.026 178.616 229.96 180.918C233.331 189.489 237.584 194.306 244.964 199.885C254.334 201.102 266.212 204.499 275.278 201.092C275.339 199.631 275.339 198.931 274.902 197.491L274.242 196.751C273.735 196.122 273.227 195.493 272.699 194.884L271.938 194.043C262.456 183.332 248.974 182.288 242.426 167.632C240.924 164.559 239.726 161.415 239.107 158.037C238.447 154.346 237.838 150.867 240.071 147.631C242.508 147.53 242.467 147.763 244.386 149.325L245.777 148.483C245.482 147.185 245.239 145.877 245.025 144.568C243.411 133.939 246.568 126.596 248.071 116.495C248.985 110.369 247.025 100.754 250.67 95.6928L253.035 95.6521C254 96.2404 254.954 96.7881 255.695 97.6603C262.446 105.592 258.984 122.164 258.141 131.434C256.507 149.386 266.222 160.279 276.871 173.119C274.333 154.031 278.384 136.232 281.348 117.468C276.059 104.628 268.425 91.8183 267.887 77.6191C267.43 65.7323 273.257 57.7807 275.46 46.8879C277.145 38.5813 273.826 25.3862 280.1 18.6314L282.242 18.7836C284.252 20.6599 284.505 22.0697 285.003 24.6459C285.663 27.2524 286.15 30.3661 287.328 32.7597Z" fill="#FCB918"/>
</svg>
