<svg width="185" height="240" viewBox="0 0 185 240" fill="none" xmlns="http://www.w3.org/2000/svg">
<path d="M92.68 56.093C100.264 35.9452 99.9531 22.6832 98.5857 1.83609C98.5186 0.804064 99.5337 0.454574 100.331 0C103.971 2.84578 106.329 14.5653 107.646 19.4443C110.766 13.3559 111.312 7.08769 117.083 2.06505L117.394 2.08713C119.323 5.28727 116.177 14.0189 115.12 17.6699C118.266 15.0353 124.726 8.64546 128.954 9.6262C128.576 14.6241 117.872 23.2531 115.288 27.4094C112.453 31.9828 109.475 40.825 107.579 45.9222C112.881 42.8637 132.603 27.62 137.091 29.7301C137.141 38.5395 109.366 52.6241 105.658 59.7885C98.9465 72.7576 88.8127 104.07 86.791 117.753C99.8357 108.28 121.253 96.752 127.393 80.8025C130.17 73.6011 128.173 55.0523 136.487 51.11C138.089 53.1999 135.707 68.8607 135.455 73.3804C157.031 55.4266 153.785 36.1114 163.449 23.645L164.439 23.7953C165.294 29.8115 163.583 35.4677 162.333 41.4654C166.914 36.6847 178.499 16.6015 184.019 17.043C185.126 25.2859 173.885 40.3365 168.793 46.7363C172.475 44.9628 178.868 41.6945 182.894 42.0479L183.389 43.3858C180.218 49.616 168.239 51.8301 163.029 56.4749C156.822 62.0085 152.115 70.264 147.929 77.4284C157.006 73.1093 175.764 68.1473 185 71.194L184.631 72.4051C175.017 78.3265 168.012 76.6361 158.919 80.2032C163.894 81.5025 173.163 82.7354 175.705 86.9966C171.67 89.4986 157.35 85.3927 150.933 85.3935C141.042 88.4335 136.713 92.7711 128.836 99.3942C129.079 95.0532 132.074 95.305 133.987 92.4581C132.1 91.4719 132.754 92.1987 131.99 90.1869C123.61 93.1832 93.3678 127.177 82.1435 122.337C80.1721 119.169 80.5329 117.836 81.053 113.67C78.2259 115.597 77.0094 118.024 75.7427 121.204C75.1555 126.969 73.2932 132.488 72.9241 138.012C71.9342 139.231 71.2715 140.02 70.139 141.155L67.4378 139.694C67.9747 137.94 68.8806 134.337 68.5535 132.45C67.1525 124.233 43.3783 104.851 54.3259 96.7067C59.0656 98.7596 62.2533 110.031 65.7683 114.437C67.9326 117.144 69.5182 118.714 72.0013 121.109C73.1422 67.6605 42.9505 89.7823 34.1673 78.1225C32.9341 76.4917 32.8502 75.5794 33.1605 73.6532C37.6906 70.3118 51.2891 77.0138 57.5472 75.1253L57.9834 73.7228C51.5743 60.141 30.1657 68.6366 21.7768 60.0151C23.7734 53.3845 44.2424 61.4932 49.779 57.8044C47.4385 49.5312 27.1625 51.3861 27.1122 44.5566C30.6691 42.3895 40.1821 44.1596 44.6114 44.6909C40.7022 38.8518 24.2096 23.3974 25.0989 17.513C30.0651 17.7438 39.8466 27.2163 44.2172 30.8858C43.0511 25.8323 39.9556 14.1037 41.6921 9.46077C45.2071 11.2542 49.4099 24.3786 51.2387 28.9646C52.539 24.7496 53.6044 20.6462 56.4063 17.2444L57.564 17.2839C60.8357 22.2232 56.3728 36.9818 57.3543 44.3325C58.6462 54.0568 59.6696 57.2101 64.0486 65.9457C65.3573 58.6932 64.6526 47.5404 69.6524 42.721L70.9527 42.836C74.0146 46.1941 70.6842 64.8949 71.7496 70.5821C72.8989 76.6781 75.9692 83.4102 78.5698 88.8952C80.2979 80.0941 84.3247 70.5527 84.6267 61.6258C84.7777 57.2706 78.1839 44.0161 81.5647 40.5774C86.5309 42.9308 90.0627 51.131 92.68 56.093Z" fill="#FB4EAE"/>
<path d="M131.99 90.1869C132.754 92.1987 132.1 91.4719 133.987 92.4581C132.074 95.305 129.079 95.0532 128.836 99.3942L119.835 108.646C131.697 107.956 150.832 98.8138 157.275 103.177C153.886 116.282 97.596 107.238 82.1437 144.615C94.0056 144.477 112.008 145.194 122.947 141.344C126.395 140.131 135.279 127.883 140.287 125.543L141.596 126.175C141.344 129.991 137.225 134.778 134.885 137.952C138.274 136.463 142.082 134.846 145.144 132.801C152.426 127.946 159.934 118.427 168.399 116.382L169.439 117.332C167.551 122.638 165.311 124.206 161.184 128.132C165.009 127.928 167.618 127.508 171.192 128.877L171.528 130.001C165.655 133.537 158.491 133.647 150.79 137.281C153.718 138.832 156.721 139.907 158.256 142.651L157.745 144.108C152.996 144.814 144.163 142.528 141.789 143.329C131.328 146.853 123.3 150.045 112.344 152.525C117.948 154.234 121.89 155.257 127.477 156.544C135.153 158.31 149.75 157.421 154.792 162.78L154.775 164.455C149.322 167.826 132.779 164.15 126.06 162.655C130.363 166.301 132.2 167.759 135.665 172.366L135.699 173.784C129.994 175.03 124.961 168.896 119.172 167.989C111.899 166.85 104.374 168.771 97.3696 170.634C100.801 171.556 107.109 173.065 108.77 176.576C103.233 181.017 91.5645 171.37 83.3601 177.965C75.6171 184.198 75.6674 200.919 80.0716 207.995C80.8182 211.699 83.0748 223.216 84.6687 225.92C84.6016 229.099 84.4338 230.963 84.0228 234.105C82.2443 237.513 80.08 240.697 75.9694 239.867C71.02 235.545 72.8907 223.704 69.7952 217.83C66.3557 211.276 48.3951 216.953 45.2073 209.968C48.1938 204.791 58.3779 209.802 62.3878 207.06C61.4902 204.554 60.7351 204.538 58.4617 202.675C62.8911 201.098 64.0152 201.491 68.8472 202.585C67.8825 198.438 67.6979 195.307 67.3456 191.059C67.0604 190.893 64.7367 190.518 64.2417 190.427C63.3022 185.372 64.485 177.205 64.9716 171.78L66.6074 167.942L66.9345 160.617L70.2901 152.367L72.9241 138.012C73.2932 132.488 75.1555 126.969 75.7427 121.204C77.0094 118.024 78.2259 115.597 81.053 113.67C80.5329 117.836 80.1721 119.169 82.1435 122.337C93.3678 127.177 123.61 93.1832 131.99 90.1869Z" fill="#C80E8B"/>
<path d="M21.7097 113.162C20.057 108.025 16.131 95.6246 19.495 91.4138C22.817 92.1532 24.2935 97.4677 25.4679 100.911C30.3671 115.208 41.2475 123.502 52.5977 132.952C58.6964 136.877 60.4834 138.778 67.4378 139.694L70.139 141.155C71.2715 140.02 71.9342 139.231 72.9241 138.012L70.2901 152.367L66.9345 160.617L66.6074 167.942L64.9716 171.78C63.277 164.068 61.6242 162.62 54.8459 159.269L45.4251 157.436C38.3784 158.631 26.785 165.474 22.6241 163.779C23.1358 160.229 28.4208 157.1 31.2227 155.068C25.5015 153.952 -0.220647 149.27 1.5016 141.357C7.97281 138.138 19.5201 142.954 26.1054 144.853C35.5094 147.564 43.9906 149.602 53.7553 150.382C49.4267 145.454 34.1588 131.35 28.8906 127C16.2569 116.583 7.85706 115.515 0 98.6747C7.43091 101.973 14.7888 108.279 21.7097 113.162Z" fill="#FB4EAE"/>
<path d="M80.0716 207.995C87.823 202.248 109.727 180.977 116.304 181.875L116.514 183.22C114.777 185.348 113.057 187.496 111.363 189.663L111.681 190.854C122.444 192.636 130.397 183.501 138.325 185.977L139.264 187.295C136.907 191.111 129.013 193.048 124.844 193.967C101.741 199.065 104.962 194.659 88.0163 211.758C91.3886 211.48 100.038 210.87 103.007 210.004C109.844 208.01 127.084 197.753 133.702 200.361C132.62 216.668 90.239 211.363 84.6687 225.92C83.0748 223.216 80.8182 211.699 80.0716 207.995Z" fill="#F21F94"/>
</svg>
