<svg width="120" height="556" viewBox="0 0 120 556" fill="none" xmlns="http://www.w3.org/2000/svg">
<path d="M87.6244 0C88.7135 27.9592 101.487 53.5214 101.251 81.6243C101.074 102.62 95.2114 124.409 92.3311 145.242C87.9795 177.43 85.9823 209.896 86.3544 242.376C86.7109 247.565 84.776 259.767 87.4753 263.798C93.6561 248.392 99.8673 232.857 103.33 216.569C104.428 211.414 105.334 206.143 105.907 200.899C106.691 193.724 106.041 176.692 109.622 171.109L110.678 170.906C115.806 176.278 119.756 211.427 119.561 219.584C119.215 234.056 114.529 248.541 107.816 261.271C101.888 272.511 95.0657 281.461 93.8716 294.679C91.5307 320.593 101.396 336.955 102.616 360.607C103.715 381.901 94.3168 401.711 92.0885 422.727C90.1048 441.433 94.8482 460.396 90.5948 478.851C85.9057 456.501 83.3575 432.754 87.1642 410.058C89.5593 395.783 93.6947 381.426 93.1058 366.833C92.304 346.996 83.2986 329.591 83.9709 308.913L82.6486 306.589C78.9144 336.427 79.1137 367.294 73.1722 396.772C68.5231 419.841 57.0182 440.708 54.6035 464.38C52.1536 488.397 56.5852 512.056 55.9773 536.046C65.8766 536.216 77.3062 539.102 86.0874 543.865C75.6804 554.081 59.3001 555.314 45.3975 555.193C35.2609 555.104 14.2137 552.571 7.01406 545.084C6.29812 544.339 5.93243 543.519 5.64691 542.544C6.07143 540.796 6.23354 540.105 7.85083 539.054C14.5977 534.678 29.2266 535.193 37.17 535.464C32.9005 520.667 24.3511 508.079 17.0003 494.705C7.50736 477.429 2.6382 459.075 0 439.665L1.46806 438.865C2.79482 446.155 6.28843 453.289 9.19162 460.058L10.8705 459.529C9.99105 450.349 8.3049 441.325 7.74327 432.083C6.94527 418.953 7.2968 405.762 7.5138 392.612C8.04703 360.315 9.57236 327.714 17.2996 296.21C25.3246 263.487 37.576 230.499 41.544 197.01C43.3481 181.786 42.913 166.583 43.8503 151.319C45.1135 130.736 48.3327 110.621 46.6729 89.9237C45.9661 80.8519 44.7787 71.8275 43.1163 62.8845C41.4091 53.5078 39.0236 43.806 38.865 34.2464L38.8562 33.4876C38.1365 29.1245 38.3059 24.5839 38.6854 20.1943L39.3136 19.8691L39.5569 21.3739C45.3263 40.2491 54.3663 58.3385 58.8643 77.5119C65.062 103.941 58.4272 129.51 56.5723 155.919C55.6038 169.713 56.3303 183.785 54.8048 197.505C53.8106 206.441 38.188 263.798 38.596 264.699C38.7525 265.045 39.1727 265.194 39.4607 265.438C44.9929 263.317 49.4177 253.934 51.7693 248.67C59.7752 230.763 61.668 211.224 65.9457 192.315C66.963 195.533 66.2039 200.208 65.9512 203.588C65.3548 211.556 64.7279 219.591 63.1502 227.43C60.3797 241.197 55.816 254.598 52.8869 268.331C48.5773 288.534 50.338 309.645 46.6872 330.045C39.6335 369.468 9.7758 443.885 28.2161 480.654C29.7816 483.777 31.9428 488.337 35.021 490.186C36.2748 492.815 37.4513 495.884 39.3218 498.113C40.051 499.258 40.7416 500.342 41.6653 501.345L43.4267 503.431L44.3064 503.242C46.9427 497.625 43.6117 482.3 43.5771 475.145C43.5433 469.421 43.9851 463.709 44.898 458.066C47.9843 438.188 54.9722 419.251 58.2293 399.394C62.8337 371.318 62.4108 342.687 65.0647 314.408C66.8573 295.309 71.4955 276.739 72.9621 257.531C73.7218 247.579 73.5653 237.613 73.7421 227.647C74.1535 204.442 74.2132 180.953 75.9318 157.81C77.2473 140.1 83.5283 123.081 84.2474 105.398C85.6035 72.0714 77.7162 32.0446 87.6244 0Z" fill="#A7E402"/>
</svg>
