<svg width="162" height="700" viewBox="0 0 162 700" fill="none" xmlns="http://www.w3.org/2000/svg">
<path d="M117.806 250.191C119.646 242.207 120.485 234.108 121.08 225.941C121.172 228.646 120.63 234.184 122.752 236.165C123.073 236.47 123.454 236.698 123.805 236.965C122.073 241.506 119.936 245.826 117.806 250.191Z" fill="#CCEEF8"/>
<path d="M88.4825 0.696686C91.131 4.44581 91.2151 10.0796 92.5966 14.4854C95.1841 22.7857 99.4878 30.2704 101.236 38.88C103.9 51.9985 103.359 65.4788 104.771 78.7131C105.778 88.1745 108.495 97.6068 110.762 106.84C117.319 91.9232 113.128 90.1773 114.021 76.5346L115.144 75.5992L116.486 75.9051C125.187 90.3233 117.318 108.09 120.554 123.434C124.447 141.84 137.187 156.163 140.186 175.186C142.827 191.978 143.591 224.205 138.477 239.838C135.584 248.684 130.561 256.5 126.813 264.949C123.554 272.302 118.303 294.335 118.31 302.197C118.326 322.439 131.638 339.201 136.141 358.019L136.4 359.138C143.391 342.895 145.705 339.222 140.041 321.669C138.965 318.325 137.943 315.117 138.21 311.544C138.553 306.942 141.339 302.105 144.819 299.149L145.933 299.476C147.025 304.451 144.323 310.509 145.956 315.111C146.04 315.369 146.155 315.614 146.247 315.873C147.079 318.181 147.545 320.344 149.468 322.012C151.727 320.625 151.224 317.647 153.177 315.728L154.071 316.474C155.155 320.984 153.253 325.83 153.322 330.469C153.444 338.774 156.902 347.261 154.895 355.527C153.795 360.083 149.78 362.909 148.269 367.16C148.14 367.526 148.018 367.9 147.896 368.266L147.819 368.676L145.331 369.21C142.774 371.259 141.355 374.741 139.805 377.582C142.477 400.263 136.424 422.449 135.5 445.03C135.073 455.521 138.255 466.019 136.69 476.51C134.828 488.936 130.425 501.058 127.189 513.187C124.532 523.152 122.73 533.308 120.051 543.28C124.867 540.286 128.561 537.398 132.256 533.109C136.453 528.249 139.758 522.732 143.002 517.217C156.733 493.881 156.941 473.897 154.888 447.666C153.842 434.364 155.521 423.385 157.574 410.319C158.055 407.272 157.673 403.523 159.749 401.093L160.642 401.238C162.626 414.311 160.611 427.195 160.642 440.284C160.726 476.16 167.932 491.268 148.285 525.239C145.026 530.884 141.171 535.965 136.935 540.925C133.317 545.161 128.012 549.565 125.699 554.617C121.799 563.104 119.785 571.934 116.472 580.581C114.075 586.844 110.64 592.687 108.244 598.95C106.015 604.77 104.74 611.154 103.267 617.21C109.663 612.617 117.067 609.073 122.86 603.71C131.134 596.053 134.141 584.413 139.125 574.608C142.675 567.63 147.026 560.619 151.315 554.06C152.384 552.422 153.109 550.884 155.07 550.488C155.848 552.743 154.361 556.004 153.529 558.137C150.499 565.893 145.674 573.183 142.056 580.717C137.477 590.256 135.117 602.629 128.095 610.659C121.455 618.262 111.876 621.95 104.335 628.38C102.61 629.843 101.282 631.428 99.9694 633.248C95.4279 639.526 91.2984 646.841 86.1234 652.57C82.5056 656.569 77.5449 659.396 74.0874 663.54C72.5304 665.399 71.9728 668.66 71.2095 670.938C67.3241 682.45 53.5535 695.424 42.2725 699.759C40.96 700.254 39.693 699.935 38.5179 699.28C33.3657 696.385 32.3652 686.151 30.4189 681.054C27.8847 674.442 22.8024 668.758 20.4745 662.069C16.6812 651.144 16.5813 639.061 14.1235 627.823C12.7725 621.629 9.65798 615.245 8.97868 609.013C8.32237 603.017 9.01031 596.801 7.80448 590.858C6.5527 584.672 2.75074 579.163 1.06389 573.068C0.224321 570.028 -0.759348 564.23 0.904501 561.343C3.88878 563.75 4.45291 568.635 7.54413 571.431L8.74313 571.316C10.7503 563.621 10.9185 555.203 12.1931 547.333C13.338 540.263 15.6735 532.971 15.8415 525.817C16.0474 516.728 14.5579 507.921 15.7104 498.802C16.3517 493.667 24.8778 466.112 27.3816 464.184C33.2358 469.09 21.3748 495.717 20.726 503.267C20.0085 511.625 22.1763 519.982 24.4204 527.951C30.2593 520.249 34.6327 511.686 37.8537 502.59C51.9133 462.904 22.7645 436.124 29.1455 397.452C29.6264 394.557 30.3743 388.006 32.7939 386.261C32.9235 386.481 33.0684 386.687 33.1675 386.915C34.9841 391.067 32.878 412.994 34.3205 421.306C36.5722 434.25 42.6552 446.013 45.9297 458.675C56.1039 498.101 39.1283 513.217 28.2441 546.327C25.71 554.045 23.6484 562.388 23.4729 570.539C23.3508 576.147 27.4878 605.202 29.6556 609.455L30.7164 609.075C37.4714 601.807 50.1128 584.328 52.1584 574.698C53.6238 567.743 53.86 560.513 56.0352 553.709C62.1719 534.549 72.4689 518.238 73.6978 497.386C74.9114 476.899 70.1093 461.844 64.7434 442.562C60.5531 427.523 56.1503 412.262 52.3798 397.139C49.7924 386.778 51.1269 376.272 50.3484 365.751C49.8752 359.374 48.3026 353.019 47.3943 346.681C46.5701 340.921 46.2272 335.1 45.3647 329.348C43.2503 315.293 33.7622 303.187 30.9608 289.185C26.4346 266.588 31.9302 243.761 32.5866 221.164C32.9377 209.31 31.2745 197.562 32.7018 185.707C34.1291 173.914 37.6319 159.79 41.8297 148.659C42.4785 146.945 42.6928 145.961 44.4101 145.245C47.364 148.346 47.1515 150.64 46.7851 154.685C45.8003 165.435 40.3261 175.606 38.7233 186.409C37.0138 197.966 39.5101 209.181 39.3804 220.715C39.1132 244.241 33.7405 258.443 38.8774 283.562C39.9459 288.773 40.7318 299.042 45.2655 302.036C46.3337 300.825 46.3562 299.545 46.5088 297.999C47.0507 292.476 46.4491 286.723 46.6399 281.162C46.8765 274.092 48.2046 267.105 48.3648 259.989C48.6396 247.647 46.8447 235.046 48.6765 222.787C50.6305 209.691 53.3414 195.809 56.5701 182.972C59.2186 172.443 62.9193 162.257 63.7818 151.347C65.6897 127.12 55.584 104.683 66.0026 81.4309C66.8193 79.6027 67.3242 78.9349 69.1941 78.2958L70.1097 79.3373C72.3838 86.9099 67.8271 94.6881 67.4301 102.261C67.0714 109.026 69.1868 116.66 69.8281 123.524C70.9806 135.973 71.0724 148.971 70.5153 161.458C70.2405 167.674 69.9263 174.462 68.583 180.526C66.7054 188.983 62.7905 197.578 61.699 206.118C61.4853 207.779 61.2947 208.19 62.3171 209.538C65.3242 207.366 67.6442 201.722 69.7431 198.545C70.8573 196.861 71.705 195.445 73.712 195.033C77.9328 204.922 63.897 225.255 60.2025 234.642C58.3859 239.243 57.7678 243.952 57.2183 248.835C55.8596 260.827 54.8591 275.158 56.5612 287.096C57.6908 295.012 60.4775 302.767 60.8135 310.782C61.1417 318.614 59.4707 326.31 59.0814 334.096C58.6846 341.997 59.271 369.751 63.904 375.549L64.8196 375.342C69.6663 358.833 75.1468 339.429 74.7959 322.12C74.2768 297.138 59.6601 270.441 69.7201 245.727C70.6513 257.505 70.0338 268.797 72.3465 280.568C74.1632 289.816 78.2692 298.6 79.7424 307.917C81.1621 316.892 79.6819 326.195 82.5211 334.948C87.6809 350.841 98.5353 364.441 101.733 380.928C104.504 395.227 101.969 410.121 103.159 424.596C103.625 430.226 105.374 450.425 109.847 454.227L111.166 453.852C114.234 450.393 117.044 446.919 118.723 442.562C126.546 422.22 124.448 375.085 117.655 354.339C112.686 339.201 102.741 327.254 101.466 310.722C100.886 303.187 103.961 268.423 105.709 261.155C108.274 250.474 112.678 240.547 113.197 229.416C113.541 221.973 112.823 213.79 111.083 206.537C108.724 196.702 105.252 188.908 106.366 178.44C106.629 175.961 106.979 172.12 108.876 170.463L109.457 171.892C110.859 176.313 110.011 182.764 110.914 187.248C112.884 197.067 118.273 205.882 118.762 216.006C119.166 224.272 118.563 232.417 117.662 240.615C117.372 243.289 116.113 248.767 116.723 251.152C116.815 251.517 117.159 251.761 117.381 252.066C119.044 251.197 119.654 250.009 120.577 248.379C122.966 244.204 124.112 239.884 125.798 235.466C127.325 231.481 129.539 227.762 130.722 223.648C132.47 217.561 131.997 210.118 132.394 203.772C133.882 179.925 134.072 173.426 122.867 152.056C119.562 145.763 116.731 139.242 113.403 132.964C110.067 126.679 105.495 119.73 103.77 112.805C102.351 107.114 102.305 100.7 101.496 94.8642C100.252 85.943 98.3213 76.9303 97.474 67.9817C97.0161 63.112 97.6725 58.2957 96.8559 53.4344C95.5889 45.88 91.1922 38.972 89.0244 31.6355C87.6047 26.8091 85.1082 3.8055 87.1843 0L88.4825 0.696686ZM78.7028 342.416C77.4587 348.945 76.9008 355.566 75.7788 362.117C73.4737 375.587 69.795 388.973 70.4285 402.732C71.3675 423.074 81.0838 445.175 84.2284 465.814C85.5947 474.735 86.4342 483.764 85.8312 492.792C84.961 505.629 81.6485 518.238 79.4732 530.892C78.2444 538.023 78.0236 545.291 76.9016 552.429C75.7338 559.85 68.9088 587.644 65.7565 593.472C64.5262 595.758 56.9799 631.105 56.2619 635.731C55.8497 638.359 55.7729 641.995 56.3912 644.6C56.5897 645.43 56.9716 646.093 57.3989 646.832C58.9865 647.198 59.3464 647.198 60.8347 646.307C62.4299 645.354 63.6131 643.709 64.8267 642.33C65.5747 641.492 66.338 640.668 67.0936 639.83C71.8716 634.078 77.328 628.523 81.4266 622.276C89.4258 610.094 99.2653 584.701 99.9446 570.356C100.525 558.021 99.0594 546.03 101.67 533.78C104.318 521.331 113.119 507.96 111.699 495.099C109.653 476.632 101.838 459.185 98.7545 441.007C95.8083 423.591 99.9753 405.254 97.2048 388.264C95.434 377.415 90.3652 367.198 86.0756 357.172C84.1981 352.776 82.343 345.418 78.7028 342.416ZM109.694 172.474L109.457 171.892C109.296 171.385 109.107 170.905 108.881 170.458C108.912 170.431 108.943 170.404 108.975 170.379L109.694 172.474ZM108.881 170.458L108.876 170.463L108.832 170.356C108.849 170.389 108.864 170.424 108.881 170.458Z" fill="#CCEEF8"/>
</svg>
