<svg width="196" height="150" viewBox="0 0 196 150" fill="none" xmlns="http://www.w3.org/2000/svg">
<path d="M84.4038 1.10936C86.456 0.256467 88.1307 -0.465229 90.3472 0.37126C92.0957 1.03553 92.9988 2.17547 93.795 3.77464C102.554 19.996 90.2651 37.9148 89.3457 54.3822C88.8039 63.9854 91.636 74.1627 92.5964 83.7496C93.6144 79.0669 94.4025 74.4826 94.6652 69.7015C95.2316 59.3028 92.4898 33.0927 103.211 26.9339C105.468 25.63 108.128 25.7038 110.55 26.4665C113.226 27.3112 115.418 28.9595 116.707 31.4772C120.532 38.9482 117.306 50.8067 114.556 58.2367C112.676 63.2966 109.269 68.3319 107.89 73.4083C109.778 72.2191 110.96 70.5133 112.323 68.783C114.704 64.3053 118.324 59.2536 121.558 55.3828C127.477 41.2363 124.752 26.1467 135.341 13.9684C137.106 11.9182 138.264 10.6142 140.817 9.63828C143.403 9.99912 143.419 10.3026 145.118 12.1232C148.821 18.5034 149.33 25.5234 147.433 32.6007C146.276 36.9226 144.281 41.4085 141.63 45.0169C139.84 47.6493 138.091 50.1752 135.965 52.5534C128.914 61.6892 121.731 72.9818 112.947 80.4117C109.318 84.8648 105.312 92.139 101.068 95.6244C98.5317 102.767 95.4779 109.902 93.4831 117.209C91.1353 125.754 91.045 143.813 85.7091 149.988C83.6896 150.054 83.4022 149.873 81.6291 148.856C79.5029 141.098 74.2573 134.784 68.7326 129.166C62.4362 123.704 56.2629 117.98 49.3262 113.33C36.7252 116.61 22.1213 122.531 9.67624 116.086C15.1928 115.331 21.7929 117.693 27.7281 117.111C33.6304 116.52 44.5895 111.37 49.6217 112.346C51.3785 112.69 53.2666 114.413 55.3599 114.872C56.8704 113.601 56.8048 112.895 57.2809 111.017C60.228 114.355 63.6019 117.439 66.7706 120.58C61.3772 110.115 54.4815 96.871 56.5748 84.6763C57.3793 79.9854 59.0787 77.3036 63.0026 74.6958C65.7116 73.4738 67.9527 72.8096 70.8505 73.9085C72.3035 74.458 73.9535 75.7537 74.7416 77.074C81.0708 85.767 78.0007 99.8971 79.3962 110.173C80.0776 115.224 81.8015 119.702 83.7224 124.401C84.8635 119.144 86.021 113.871 86.5545 108.508C87.9994 94.0908 86.768 79.6573 77.3686 68.1269C72.558 64.2314 68.2647 57.4412 64.4557 52.4878C64.3736 52.3976 64.2915 52.3074 64.2176 52.209C58.6107 45.1399 52.5442 35.8565 54.0711 26.3845C54.5308 23.5224 55.4995 21.8904 57.7817 20.16C59.8668 19.7745 60.9749 19.4793 62.8548 20.6684C70.3826 25.4331 69.4796 39.145 71.1707 46.9194C74.0357 51.4545 76.8186 56.0798 79.9134 60.4673C81.5716 51.3643 72.1148 30.9524 74.9059 15.4035C76.0305 9.12985 79.191 4.60293 84.4038 1.10936Z" fill="#00AD5B"/>
<path d="M115.896 32.8474C114.312 31.117 112.768 29.3949 110.609 28.3698C108.795 27.5005 106.661 27.2053 104.764 28.009C92.7298 33.1099 99.2888 73.6385 93.8298 86.0629L92.7873 85.8251C90.6694 81.6427 90.0454 76.8615 89.2245 72.2855C85.3334 50.6023 91.0715 45.8376 93.8544 25.7782C94.8724 18.3811 94.3388 11.1725 93.797 3.77535C102.556 19.9967 90.2671 37.9155 89.3476 54.3829C88.8058 63.9861 91.6379 74.1634 92.5984 83.7503C93.6163 79.0676 94.4044 74.4833 94.6671 69.7022C95.2336 59.3035 92.4917 33.0935 103.213 26.9346C105.47 25.6307 108.13 25.7045 110.552 26.4672C113.228 27.3119 115.42 28.9602 116.709 31.4779C120.534 38.9489 117.308 50.8074 114.558 58.2374C112.678 63.2973 109.271 68.3326 107.892 73.409C109.78 72.2198 110.962 70.5141 112.325 68.7837C112.588 73.1055 104.034 81.4705 101.374 85.3249C107.219 63.2317 117.004 58.6637 115.896 32.8474Z" fill="#00AD5B"/>
<path d="M63.0026 74.6958C62.1735 76.4917 60.901 78.124 60.1786 79.92C57.3383 86.94 58.3726 97.8471 60.9011 104.859C62.7481 109.976 68.0431 115.807 68.3714 120.908C66.6886 121.63 65.6788 120.859 63.9877 120.309C63.766 122.138 64.4474 122.884 65.5228 124.287C66.8937 126.058 68.3385 126.919 68.7326 129.166C62.4362 123.704 56.2629 117.98 49.3262 113.33C36.7252 116.61 22.1213 122.531 9.67624 116.086C15.1928 115.331 21.7929 117.693 27.7281 117.111C33.6304 116.52 44.5895 111.37 49.6217 112.346C51.3785 112.69 53.2666 114.413 55.3599 114.872C56.8704 113.601 56.8048 112.895 57.2809 111.017C60.228 114.355 63.6019 117.439 66.7706 120.58C61.3772 110.115 54.4815 96.871 56.5748 84.6763C57.3793 79.9854 59.0787 77.3036 63.0026 74.6958Z" fill="#00AD5B"/>
<path d="M77.3686 68.1269C80.1351 68.7173 81.8032 70.842 83.3383 73.0809C90.0944 82.9301 89.9794 103.096 87.5331 114.503C86.5316 119.194 85.3741 123.934 83.9704 128.519C79.1106 117.8 76.5821 108.919 76.3359 97.1177C76.2209 91.5329 76.3441 86.1777 75.3426 80.6585C75.1292 79.4693 74.9468 78.2714 74.7416 77.074C81.0708 85.767 78.0007 99.8971 79.3962 110.173C80.0776 115.224 81.8015 119.702 83.7224 124.401C84.8635 119.144 86.021 113.871 86.5545 108.508C87.9994 94.0908 86.768 79.6573 77.3686 68.1269Z" fill="#00AD5B"/>
<path d="M64.4557 52.4878C64.3736 52.3976 64.2915 52.3074 64.2176 52.209C58.6107 45.1399 52.5442 35.8565 54.0711 26.3845C54.5308 23.5224 55.4995 21.8904 57.7817 20.16C59.8668 19.7745 60.9749 19.4793 62.8548 20.6684C70.3826 25.4331 69.4796 39.145 71.1707 46.9194L69.8662 46.666C65.1624 38.1781 71.6311 25.8768 59.7771 22.3258C57.5525 22.7194 57.5197 22.7441 56.0174 24.4335C53.9733 31.232 57.6346 38.703 60.9264 44.5994C62.2563 46.9858 64.3989 49.1263 65.0228 51.808L64.4557 52.4878Z" fill="#00AD5B"/>
<path d="M81.6291 148.856L84.5863 147.003C88.9864 139.721 89.4624 129.273 90.9729 121.006C92.1796 114.437 95.2152 99.6428 101.068 95.6244C98.5317 102.767 95.4779 109.902 93.4831 117.209C91.1353 125.754 91.045 143.813 85.7091 149.988C83.6896 150.054 83.4022 149.873 81.6291 148.856Z" fill="#00AD5B"/>
<path d="M84.4058 1.10967C84.258 1.4049 84.1266 1.70009 83.9789 1.99533C82.5669 4.76722 79.6855 6.62887 78.487 9.53198C71.9197 25.4499 79.9236 49.5768 83.1826 65.5603L79.4638 61.2959L79.9154 60.4676C81.5736 51.3646 72.1167 30.9527 74.9078 15.4038C76.0325 9.13016 79.193 4.60324 84.4058 1.10967Z" fill="#00AD5B"/>
<path d="M135.341 13.9684C135.095 15.9366 134.595 16.9785 133.618 18.7089C128.52 27.7791 129.209 49.9538 121.558 55.3828C127.477 41.2363 124.752 26.1467 135.341 13.9684Z" fill="#00AD5B"/>
<path d="M112.947 80.4117C112.651 80.0509 112.579 79.5514 112.431 79.1085C116.306 74.393 131.278 53.4227 135.965 52.5534C128.914 61.6892 121.731 72.9818 112.947 80.4117Z" fill="#00AD5B"/>
<path d="M141.63 45.0169C141.055 40.367 146.129 34.6513 146.482 29.7964C146.901 24.1542 144.775 18.5119 145.054 13.0666C145.07 12.7467 145.094 12.4348 145.118 12.1232C148.821 18.5034 149.33 25.5234 147.433 32.6007C146.276 36.9226 144.281 41.4085 141.63 45.0169Z" fill="#00AD5B"/>
<path d="M121.914 110.395C122.119 110.37 122.332 110.379 122.546 110.338C131.6 108.673 161.523 87.0799 166.473 79.7484C172.03 71.5229 173.647 61.1242 180.19 52.5953C182.653 49.3969 185.132 46.9038 189.245 46.3872C191.609 46.9284 192.454 47.888 193.99 49.6101C195.746 53.4564 196.731 56.4824 195.344 60.6403C194.564 62.9693 193.103 65.2492 191.732 67.2831L190.205 69.7269C184.5 77.6325 177.53 83.8078 170.183 90.1225C166.169 93.9851 161.761 98.3643 156.86 101.046L156.638 102.137L157.681 102.539C159.166 101.924 160.628 101.267 162.097 100.62C170.273 97.0275 175.544 88.6872 183.523 84.6196C186.232 83.2337 188.399 82.7335 191.264 83.652C193.76 86.3173 195.18 89.7698 195.114 93.4766C195.049 97.167 192.922 99.9963 190.197 102.284C175.494 114.635 144.316 111.781 127.102 119.063C121.125 121.589 116.487 125.698 112.063 130.323C110.938 131.881 109.501 134.448 108.032 135.588C106.021 140.008 103.583 147.455 98.8951 149.661L97.9675 148.34C97.5324 140.033 101.662 131.455 104.494 123.787C108.664 109.928 112.005 87.3997 120.879 76.3203C122.677 74.0651 124.081 73.3927 126.888 72.999C128.858 73.7781 130.156 74.7376 131.165 76.6074C133.628 81.1425 130.812 87.8918 129.515 92.4433C132.15 89.6632 134.416 86.4895 136.764 83.4634C137.798 78.4526 144.415 64.3307 147.198 59.6644C148.06 58.1063 148.93 56.5481 150.063 55.1704C151.68 53.2022 153.798 51.3406 156.531 51.4882C159.602 51.6604 161.325 54.1206 163.008 56.3348C165.11 59.976 165.561 63.0103 164.437 67.119C160.381 81.8642 142.371 90.7539 131.814 100.431L121.914 110.395Z" fill="#00AD5B"/>
<path d="M191.262 83.6514C193.758 86.3167 195.178 89.7693 195.112 93.4761C195.047 97.1665 192.92 99.9958 190.195 102.284C175.492 114.634 144.314 111.78 127.1 119.063C121.123 121.589 116.485 125.697 112.061 130.323L111.437 128.994C123.8 114.848 139.939 114.643 157.178 111.108C166.963 109.099 176.601 106.294 186.378 104.178L192.412 97.8226C192.847 92.7626 192.551 88.531 191.262 83.6514Z" fill="#00AD5B"/>
<path d="M104.492 123.786C108.662 109.927 112.003 87.3989 120.877 76.3195C122.675 74.0643 124.079 73.3919 126.886 72.9983C128.857 73.7773 130.154 74.7369 131.163 76.6067C133.626 81.1417 130.81 87.891 129.513 92.4425C132.148 89.6624 134.414 86.4887 136.762 83.4626C136.352 87.5876 133.979 90.1709 130.802 92.6803C128.914 94.1729 126.829 95.4276 124.777 96.666C127.83 90.1955 131.787 83.6184 129.193 76.2704C127.157 75.0075 127.1 74.8598 124.736 75.1222C112.717 83.2657 112.102 111.936 105.781 124.614L104.492 123.786Z" fill="#00AD5B"/>
<path d="M104.494 123.787L105.783 124.615C104.699 128.404 103.492 132.078 102.105 135.768L105.339 137.581L108.032 135.588C106.021 140.008 103.583 147.455 98.8951 149.661L97.9675 148.34C97.5324 140.033 101.662 131.455 104.494 123.787Z" fill="#00AD5B"/>
<path d="M102.105 135.768L105.339 137.581C104.97 138.499 104.246 139.352 103.688 140.164L102.276 140.262C101.258 138.187 101.522 138.04 102.105 135.768Z" fill="#00AD5B"/>
<path d="M170.183 90.1225C170.273 89.2204 170.405 88.5883 170.882 87.7601C172.819 84.3649 186.807 70.1698 190.205 69.7269C184.5 77.6325 177.53 83.8078 170.183 90.1225Z" fill="#00AD5B"/>
<path d="M147.198 59.6644C148.06 58.1063 148.93 56.5481 150.063 55.1704C151.68 53.2022 153.798 51.3406 156.531 51.4882C159.602 51.6604 161.325 54.1206 163.008 56.3348C162.77 56.2774 162.523 56.2361 162.294 56.1705C160.947 55.7851 161.456 55.9245 160.151 55.1454C157.836 53.7595 154.815 54.1121 152.311 54.7518C152.098 55.1536 151.893 55.5637 151.671 55.9655C150.669 57.7943 149.242 59.1232 147.198 59.6644Z" fill="#00AD5B"/>
<path d="M191.732 67.2831C191.617 63.4779 193.62 59.3851 193.636 55.2846C193.644 53.3574 193.768 51.5292 193.99 49.6101C195.746 53.4564 196.731 56.4824 195.344 60.6403C194.564 62.9693 193.103 65.2492 191.732 67.2831Z" fill="#00AD5B"/>
<path d="M121.911 110.394C121.903 110.124 121.854 109.853 121.895 109.591C122.494 105.753 127.994 102.267 130.9 99.8644L131.811 100.43L121.911 110.394Z" fill="#00AD5B"/>
<path d="M157.678 102.538L158.073 103.465C157.449 103.94 157.137 104.236 156.349 104.531C154.83 105.105 153.451 104.785 152.146 103.998C152.745 102.235 154.337 101.513 155.823 100.553L156.858 101.045L156.636 102.136L157.678 102.538Z" fill="#00AD5B"/>
<path d="M43.6368 106.024C32.7515 92.2543 18.7385 68.1765 21.0042 49.9296C21.4639 46.2228 22.646 38.637 25.3961 36.2751C28.22 35.6683 30.535 35.4223 33.0962 37.0214C37.5291 39.7769 39.4008 45.9194 40.2628 50.7825C41.1247 55.621 41.0263 60.5005 41.0345 65.3964C41.0509 88.3835 41.0022 93.9268 57.2809 111.017C56.8048 112.895 56.8704 113.601 55.3599 114.872C53.2666 114.413 51.3785 112.69 49.6217 112.346C44.5895 111.37 33.6304 116.52 27.7281 117.111C21.7929 117.693 15.1928 115.331 9.67624 116.086C7.71426 114.896 6.25238 113.749 4.85683 111.895C2.59111 108.869 -0.749932 102.112 0.407553 98.1753C1.04786 95.9775 1.80312 95.6495 3.60091 94.4193C11.6541 93.1728 18.8781 106.245 26.8984 107.049C29.0163 107.262 29.2626 106.893 30.6828 105.54C29.7552 104.351 30.2148 104.711 28.9178 103.932C18.7057 97.7817 7.48377 89.1708 2.72248 77.8208C2.62397 77.583 2.5337 77.3451 2.4434 77.1073C0.826202 73.5645 0.0874138 69.6527 0.0135317 65.7654C-0.0521412 62.3785 0.0298937 59.7625 2.41875 57.2202C4.87327 56.6379 5.20168 57.1709 7.3853 58.2698C27.7685 72.4819 12.0645 87.3338 43.6368 106.024Z" fill="#00AD5B"/>
<path d="M2.4434 77.1073C0.826202 73.5645 0.0874138 69.6527 0.0135317 65.7654C-0.0521412 62.3785 0.0298937 59.7625 2.41875 57.2202C4.87327 56.6379 5.20168 57.1709 7.3853 58.2698L4.15086 58.7291C0.0709276 64.3549 4.37254 71.2191 2.4434 77.1073Z" fill="#00AD5B"/>
</svg>
