<svg width="293" height="450" viewBox="0 0 293 450" fill="none" xmlns="http://www.w3.org/2000/svg">
<path d="M163.452 8.71419C163.763 5.96533 163.741 3.24062 165.564 1.03186L167.391 0.378951C170.011 1.70905 171.165 3.3616 172.036 6.23138C176.082 19.5565 165.207 29.9554 162.104 41.8699C160.869 46.6098 160.755 51.648 159.658 56.4444C156.998 68.0767 152.058 80.3701 151.429 92.2765C150.684 106.392 156.77 121.353 159.891 135.065C161.576 142.473 162.423 149.874 163.197 157.411L163.397 152.348L163.805 151.97L163.692 151.518C163.764 151.833 163.839 152.139 163.907 152.445C164.562 155.428 163.939 158.628 164.998 161.514C175.587 136.025 164.697 127.173 160.419 103.143C159.146 95.9846 156.888 85.8114 161.321 79.443C162.183 79.0561 162.796 78.4354 163.742 78.8707C170.713 82.0549 170.225 102.692 171.652 109.584C172.465 113.518 174.192 117.323 175.733 121.015C177.593 117.621 176.842 113.268 177.117 109.366L176.84 98.9753C174.744 95.0656 174.908 86.948 173.836 82.2322C171.91 73.7437 168.435 65.4972 167.078 56.904C166.628 54.0503 166.544 51.4224 167.224 48.609C167.404 44.7477 168.228 40.5478 169.975 37.0734C170.947 35.1468 171.553 34.3085 173.593 33.6394C175.76 35.4371 175.818 36.743 176.657 39.379L179.568 40.7171L183.304 40.3543C185.365 48.6332 181.836 58.1857 181.322 66.658C180.954 72.7361 181.754 78.8626 182.77 84.844C184.362 78.4595 185.406 62.0954 188.078 57.4924C188.711 52.8008 189.816 47.553 189.577 42.8131C189.102 33.4298 186.193 24.232 185.972 14.7843C185.901 11.721 185.732 7.22288 187.965 4.8932L189.605 5.28819C194.096 9.90725 193.601 16.7431 194.049 22.8051C196.399 29.504 196.663 39.0726 197.652 46.1584C198.988 40.6687 200.157 35.308 200.635 29.6652C201.093 24.2642 200.678 18.702 202.172 13.4542C204.231 12.5674 204.924 11.8983 207.205 12.8979C210.615 14.3973 212.264 20.4512 212.898 23.6757C213.173 25.0703 213.313 26.5052 213.443 27.924L215.304 30.5117C217.191 25.7717 218.579 20.7899 220.384 15.9935C221.221 14.1555 221.265 14.0748 223.035 13.1156C224.872 13.7121 225.745 14.1958 226.638 16.0096C229.733 22.2812 224.734 34.6067 222.035 40.4672C219.168 46.6985 214.136 52.559 210.491 58.4114C205.642 66.2066 201.574 74.6144 197.306 82.74C195.721 85.7549 193.057 92.7118 190.421 94.461C185.32 104.876 186.504 114.179 185.221 125.384C183.895 136.968 180.547 147.689 175.62 158.209C170.948 168.285 165.625 178.717 162.219 189.269C157.32 204.448 154.827 220.264 149.824 235.443C164.727 216.137 183.257 200.361 199.283 182.078C203.804 169.325 199.896 156.959 198.824 143.924C198.214 136.508 198.617 129.124 199.059 121.716C199.18 119.314 199.334 116.911 199.521 114.517C200.268 105.021 203.629 76.8312 210.47 71.003C211.467 71.0352 211.927 70.7692 212.641 71.5995C215.105 74.4612 214.199 80.9585 214.139 84.5457L216.531 85.4245C217.832 82.3612 218.826 79.4995 221.269 77.1375L222.498 77.1698C224.492 80.749 224.205 84.8198 223.165 88.6811C219.769 101.297 210.773 105.126 208.645 120.128L211.078 121.144C212.542 116.96 213.728 112.01 216.722 108.697L218.58 107.988C220.351 109.261 220.74 110.172 221.175 112.373C222.852 120.829 218.827 131.792 213.723 138.475C213.028 139.386 213.311 139.112 212.482 139.66C210.832 142.119 209.212 144.61 207.525 147.036C207.667 152.679 208.312 158.257 208.516 163.876L209.112 165.867L210.244 166.31C219.749 159.87 224.152 142.885 227.619 132.558C228.713 126.52 229.614 120.555 229.918 114.412C230.318 106.303 228.001 81.1117 233.097 75.5898L234.67 75.622C237.974 79.7494 237.412 87.0286 237.649 92.1233C239.212 88.0685 240.473 83.9815 241.699 79.8138C242.328 74.8965 242.208 64.8604 246.163 61.7407C248.013 61.9664 249.43 62.5307 250.621 64.022C253.71 67.8833 252.22 75.1222 251.401 79.6284C249.077 92.3973 242.675 101.41 238.212 113.09C234.52 122.748 233.563 134.461 230.658 144.529C223.507 169.309 204.593 192.646 186.416 210.429C203.694 205.044 217.554 196.927 231.868 185.939C243.28 175.823 237.89 163.682 238.744 150.454C239.116 144.698 240.817 139.797 242.912 134.469C244.098 131.438 244.96 128.254 247.432 126.029L249.181 125.618C250.978 127.125 251.585 128.519 251.718 130.898C251.931 134.694 249.847 138.677 248.181 141.99L251.866 140.66L253.701 141.256C258.935 148.342 245.721 160.264 246.351 168.487L247.019 168.938C255.183 159.458 260.711 144.658 263.253 132.623C259.483 123.014 254.663 110.6 257.076 100.096C257.81 96.9036 259.032 95.3397 261.73 93.5905C264.019 94.1789 264.246 95.5493 265.452 97.5163C266.038 101.853 264.474 108.56 266.815 112.067C267.454 109.197 267.728 106.4 269.856 104.223L271.506 104.078C274.005 106.496 274.298 111.132 274.372 114.445C274.506 120.491 273.429 130.349 269.765 135.226L270.356 137.435C274.103 136.419 279.268 128.761 281.092 125.537C284.135 120.16 285.429 109.366 290.869 106.561C292.184 107.464 292.359 107.641 292.614 109.326C294.237 120.047 290.628 131.817 283.878 140.136C277.746 147.689 269.544 152.574 262.885 159.458C257.037 165.512 253.175 173.412 247.898 179.966C258.027 176.226 269.828 173.13 276.19 163.884C277.998 161.248 279.636 157.121 283.207 157.645C284.636 160.103 284.689 162.538 283.936 165.254C282.455 170.583 278.027 174.734 274.442 178.749C278.887 177.298 284.596 174.581 289.234 174.976L290.115 175.847C289.624 179.273 286.925 182.272 284.221 184.271C283.497 184.803 283.715 184.658 282.887 184.956C275.323 188.737 271.879 185.254 264.43 185.826C258.217 186.302 251.641 188.833 245.729 190.655C240.704 192.13 235.607 193.46 230.908 195.814C221.613 200.474 213.316 207.108 204.299 212.316C191.798 219.53 177.499 224.827 166.067 233.646C161.777 236.951 158.749 241.094 156.16 245.802C152.979 251.59 150.127 257.587 147.126 263.472C133.044 292.952 132.091 299.312 132.695 331.081C132.864 339.932 132.611 348.824 133.041 357.667C135.862 350.823 138.523 343.955 142.741 337.812C145.386 333.395 147.63 328.937 149.762 324.253C150.847 310.283 149.194 296.942 151.714 282.956C153.384 274.411 163.902 249.566 169.499 243.996C170.696 242.803 171.007 242.867 172.575 242.956C173.626 245.084 173.613 246.551 173.524 248.905C173.657 251.436 173.501 254.121 174.952 256.297C176.913 251.751 178.323 247.164 182.118 243.795L184.062 243.327C185.578 245.221 185.597 247.075 185.343 249.502C184.844 254.25 182.176 260.546 178.649 263.875C174.241 269.236 168.486 272.283 163.171 276.579C158.676 288.357 157.363 300.795 157.967 313.346C161.722 304.624 163.832 295.289 168.648 287.067C176.621 272.831 194.94 259.216 200.268 248.051C203.782 240.683 205.114 233.113 207.938 225.6C208.804 223.303 209.686 221.884 211.927 220.86L213.198 221.755C217.182 229.841 214.835 237.354 212.938 245.584C225.162 234.282 225.432 216.072 232.447 209.881C234.245 210.067 234.175 210.333 235.369 211.727C236.861 217.088 234.863 222.739 233.546 227.954C237.631 222.94 242.439 215.717 248.037 212.453C249.493 211.598 248.849 211.743 250.446 212.13C250.463 212.356 250.501 212.582 250.496 212.807C250.208 224.689 237.275 233.484 230.181 241.344C226.711 245.189 223.906 249.744 220.183 253.339C216.21 257.184 211.096 259.949 206.758 263.391C201.873 267.261 197.777 272.202 193.646 276.853C223.585 269.905 216.958 254.822 234.995 245.254C236.883 244.254 237.827 244.061 239.854 244.633C240.269 245.423 240.392 245.544 240.593 246.535C241.548 251.227 238.34 254.927 235.713 258.329C238.137 257.386 240.618 256.209 243.276 256.668C245.105 256.975 245.837 257.95 246.752 259.409C246.527 262.255 244.828 264.157 242.638 265.874C241.221 266.979 239.673 267.744 238.049 268.494C233.428 270.614 228.576 272.315 224.066 274.661C218.739 277.426 213.37 281.472 207.742 283.48C194.404 288.236 184 285.801 174.73 299.175C169.678 306.462 168.024 315.652 164.068 323.512C152.909 345.664 142.98 350.444 136.926 378.965C135.599 385.212 134.414 391.629 135.97 397.957C139.341 411.669 149.038 424.147 151.49 438.15C152.041 441.294 152.199 445.195 149.871 447.718C148.026 449.718 145.504 449.984 142.942 450C128.057 450.096 130.151 425.042 127.588 415.28C125.248 406.373 119.483 398.626 116.961 389.726C114.791 382.068 116.02 373.636 114.044 365.889C111.27 355.015 106.482 344.954 102.722 334.426C92.8917 306.906 92.0822 291.251 67.27 270.961C58.3128 263.641 46.4941 259.981 38.4698 251.759C33.0861 246.245 26.6978 236.451 27.1542 228.527C27.2494 226.866 27.0115 227.503 28.2516 226.334C35.4406 227.567 43.972 244.343 48.4389 249.961C45.154 242.247 34.2448 222.577 33.2934 215.903C32.9652 213.597 32.9176 211.179 34.2827 209.212L35.8848 209.019C47.4649 216.016 54.1789 241.247 62.4257 252.783C67.9279 260.489 75.9046 266.906 82.9742 273.178C80.0087 257.829 72.2255 249.631 68.7794 237.289C68.1811 235.145 68.5028 234.194 69.4534 232.259C71.3442 231.936 71.4539 232.243 73.1366 233.234L76.2538 235.556L77.4551 235.25C77.8889 230.244 73.5793 224.915 73.1713 219.829C73.0374 218.16 73.2801 217.974 74.3469 216.838C75.1774 216.846 75.8861 216.814 76.7149 217.015C78.9589 217.547 80.2756 219.821 81.5237 221.57L81.8583 222.134C89.14 234.814 83.0283 239.313 85.3802 250.243C86.4744 255.322 88.6312 260.239 89.9237 265.286C91.7557 272.436 92.5886 279.707 95.3453 286.616C98.4882 294.491 103.045 301.899 105.697 309.945C108.667 318.965 109.144 328.816 113.36 337.409L114.907 340.545C115.329 341.391 115.2 341.021 115.385 341.746L118.087 345.236C119.39 339.328 115.811 332.25 118.191 327.196C113.243 291.952 101.835 241.449 80.4417 213.081C80.2723 212.904 80.1054 212.719 79.9345 212.533L79.0758 211.638C73.7494 205.899 67.5159 201.07 60.6261 197.346C49.7314 191.332 34.4867 195.065 22.6446 194.251C19.5807 194.033 15.4774 193.614 13.3318 191.211L13.735 189.527C16.1482 187.278 18.7413 186.536 21.7883 185.48C18.8493 184.247 14.4776 182.884 12.2224 180.619C10.7928 179.176 10.068 178.16 9.972 176.177C16.507 172.582 31.5429 181.401 38.3545 183.803C42.1417 185.149 46.1579 186.068 50.0595 187.004C44.2687 181.635 36.5008 170.978 30.048 167.463C25.8246 165.166 21.4392 165.133 17.2698 162.07C10.0744 156.79 0.984197 140.966 0.0496968 132.3C-0.134139 130.599 0.181931 130.277 1.16723 129.027C7.77807 129.519 13.1649 143.409 16.7409 148.132C18.422 150.357 20.7151 152.131 22.8671 153.88C21.6295 149.358 20.3765 144.142 20.0765 139.483C19.9338 137.274 20.3257 135.613 21.8601 133.977L23.3437 134.146C29.6167 139.983 30.2286 151.301 34.8092 158.693C34.9785 158.967 35.1543 159.241 35.326 159.507C36.0727 158.136 36.5524 156.572 37.1104 155.113C35.6566 142.965 36.2235 132.816 32.2871 120.95C27.3671 113.066 24.0862 110.39 17.4641 104.102C12.7376 99.6121 10.6751 93.002 10.6783 86.5369C10.6791 83.4737 11.1323 81.5389 13.352 79.3946L15.2218 79.6688C19.9395 83.8606 20.6683 90.6239 22.0673 96.5086L25.0248 98.532C25.8561 94.8964 25.2336 90.4949 27.1897 87.3027C28.8281 87.3511 28.5773 87.335 29.6352 88.4313C34.1376 93.0987 34.5439 103.538 35.4309 109.705C36.1065 111.051 36.6395 112.905 37.9336 113.679C40.0453 109.173 36.4976 100.096 40.6936 96.9117C42.6851 97.7742 43.4503 98.403 44.334 100.451C47.8688 108.633 44.0599 119.612 43.7752 128.189C43.3213 141.845 46.6029 167.076 55.3263 177.902C55.3472 171.994 52.8026 158.023 56.3221 153.517L57.7936 153.735C60.2681 156.266 60.9897 159.628 62.0452 162.917C63.5126 155.92 61.892 143.062 65.5058 137.806L67.1184 137.572C68.0988 138.346 69.0245 139.047 69.6744 140.136C72.8802 145.513 71.6546 152.606 70.0952 158.29C66.2895 167.133 61.6436 173.703 65.5324 183.771C71.5974 199.474 94.7212 210.445 101.77 229.752C109.965 245.52 113.98 263.037 117.639 280.312L119.503 276.789C118.855 269.985 118.345 263.125 116.955 256.418C113.109 237.87 106.221 219.917 102.665 201.264C99.4558 192.493 98.5979 182.844 95.2945 173.96C89.989 159.7 82.043 146.528 77.1899 132.042C71.2055 114.171 68.8576 98.8625 60.5761 81.4745C57.4493 75.1787 55.4069 68.3912 54.5337 61.4102C53.9322 56.5976 53.5903 49.9472 56.7131 45.9891L58.2636 45.852C62.7708 50.4389 62.633 58.4194 63.3699 64.4895L65.0518 63.4738C64.589 54.9209 66.4089 40.314 69.984 32.543C71.5474 31.3338 71.4402 31.3823 73.4043 31.6241C76.0288 33.6475 76.6093 35.6869 77.0197 38.9356C78.4961 50.6324 74.8774 62.4339 74.1195 74.0581C73.4994 83.5703 77.1689 99.7975 80.2602 108.858L81.6608 108.737C82.3421 103.49 84.0894 98.6447 85.9237 93.7113C87.7185 86.7545 85.0303 72.6152 87.9846 67.9397C88.9393 66.4242 89.4424 66.4967 91.0824 66.1017L93.2425 67.448L93.569 68.1574C99.9638 83.7477 93.1054 94.9447 91.1469 110.229C89.8875 120.055 90.7268 131.164 92.6934 140.845C95.1203 146.794 97.873 152.76 99.9073 158.846C101.268 161.474 102.154 164.593 103.201 167.374C106.194 157.346 107.342 147.399 107 136.943C106.695 127.641 101.745 110.205 104.8 102.345L106.89 101.531C109.339 102.619 110.299 103.82 111.238 106.351C113.377 112.123 113.801 118.991 114.598 125.085L115.154 125.198C118.86 110.769 118.464 89.2051 111.072 75.9042C107.712 69.8583 103.044 64.5783 99.6557 58.5324C96.5878 53.0588 93.3465 44.7558 95.0615 38.5487C95.3179 38.6051 95.588 38.6212 95.8299 38.7179C100.417 40.6445 103.028 49.0282 104.775 53.1878C106.5 50.4551 105.932 45.5296 106.371 42.2487C106.936 40.5881 107.627 39.3789 108.56 37.9118L110.028 37.7667L111.724 39.5965C114.548 46.5534 114.066 55.2675 115.736 62.6677C118.203 73.5986 122.625 83.7638 124.378 94.9366C124.387 91.6315 123.692 85.7066 125.818 83.0142C126.416 82.2564 126.937 81.9581 127.686 81.4341C129.405 81.6115 129.76 81.5954 130.932 83.0142C133.614 86.279 133.997 91.9943 133.345 95.9846C132.582 100.668 130.089 102.78 126.519 105.537C125.131 119.394 121.543 131.486 117.895 144.876C109.927 174.098 108.564 184.682 115.72 214.307C117.88 223.247 119.981 232.211 122.902 240.941L123.633 240.764L124.393 238.966C124.971 219.49 130.706 201.425 127.413 181.619C126.181 176.556 123.891 171.131 126.408 166.206L128.294 164.819C129.894 165.254 130.197 165.367 131.103 166.875C134.831 173.082 133.318 181.344 136.064 187.818C136.148 187.56 136.235 187.302 136.316 187.036C140.14 174.549 135.322 156.298 141.085 145.69L142.423 145.263C147.725 151.413 146.906 162.409 146.342 170.051C145.503 181.385 143.309 194.863 138.097 205.077L137.643 206.786C133.587 218.45 130.098 249.236 130.41 262.23C137.401 246.044 139.359 227.592 146.912 211.445L147.58 210.357C152.997 191.534 157.635 168.366 154.354 148.898C152.529 138.064 148.838 127.31 146.19 116.629C141.542 106.666 135.181 80.241 133.455 69.1166C127.735 65.1828 125.194 59.7898 123.894 53.1152C122.943 48.2382 122.329 41.0638 125.166 36.8478L126.655 36.6543C131.793 41.0879 132.458 52.5187 133.548 59.0724C134.319 53.9858 133.634 48.3188 134.936 43.3934C135.498 41.2653 136.015 40.5156 137.891 39.4515L140.745 40.4027L144.03 38.4841C142.703 33.7925 141.524 29.1332 140.518 24.361C139.121 20.54 136.534 13.164 138.417 9.25432C138.73 8.60137 138.914 8.40782 139.362 7.76293C140.704 7.47272 140.854 7.11808 142.09 7.91614C147.189 11.2132 148.068 23.039 148.931 28.6979C149.116 29.9071 149.255 31.084 149.343 32.3012L150.233 33.7119C153.855 31.4629 149.471 6.85201 152.783 1.91857C153.786 0.419186 154.106 0.33857 155.755 0C159.934 2.86978 161.016 13.0591 162.345 17.8394C163.444 15.0905 163.286 11.6565 163.452 8.71419Z" fill="#1F9AF7"/>
</svg>
