<svg width="243" height="259" viewBox="0 0 243 259" fill="none" xmlns="http://www.w3.org/2000/svg">
<path d="M96.751 6.7514C99.3594 2.98856 101.992 -2.38426 107.074 1.15668C112.352 10.5062 100.82 35.1762 98.624 45.9946C96.4222 56.8393 95.4309 71.5725 101.969 81.0825C103.04 82.6413 104.814 84.4419 106.79 84.683C123.163 86.6864 115.68 18.2017 129.213 7.27191C131.282 5.60119 135.268 4.34517 137.943 4.80316C138.954 4.97605 140.344 5.69887 140.941 6.55511C144.829 12.1284 141.348 23.4456 140.176 29.8032L141.151 30.475C143.853 23.6844 149.268 11.65 156.299 9.77191C172.564 5.42853 165.799 21.3873 163.53 27.0014C158.959 38.3089 122.678 97.2068 125.293 106.758C134.823 113.424 152.378 88.4399 156.576 81.4536C164.437 68.3703 170.078 53.8507 175.815 39.7221C178.765 32.4566 176.219 24.2223 184.283 18.8227C207.312 13.9099 178.371 52.1978 184.979 61.1469C190.454 60.5785 211.214 33.225 222.968 36.601C224.418 40.4344 214.415 47.0449 215.088 52.4125L216.061 53.3627C222.665 52.778 226.369 49.5756 230.966 52.5688C232.275 58.3471 201.672 72.0262 196.464 75.4448C187.276 81.4766 178.227 86.4029 170.551 94.5844C178.082 94.4177 196.794 91.4332 201.855 94.7787C202.951 98.0037 195.481 104.549 193.168 107.301C200.137 102.89 224.707 81.8221 230.452 87.7807C231.833 93.8788 225.863 98.3511 221.935 102.391C227.819 101.181 240.858 97.463 242.498 106.104C240.571 112.537 225.727 115.32 219.776 116.409C206.72 118.798 193.754 123.62 183.196 131.81C194.083 131.38 219.612 126.717 223.4 140.819C223.121 141.931 223.044 143.052 221.741 143.583C212.768 147.244 197.324 142.9 187.589 143.816C182.575 144.287 175.991 146.959 171.926 148.73C182.814 150.258 205.294 150.873 208.442 164.534C208.148 166.038 208.12 166.917 206.631 167.757C197.465 172.928 176.147 152.974 146.797 169C158.454 171.063 170.291 171.318 180.326 178.477C185.521 182.183 191.842 185.796 190.532 193.164C182.688 199.807 144.873 174.278 124.775 189.86L124.216 191.249C127.614 195.041 151.949 192.966 151.314 207.016C151.1 211.742 133.909 209.558 130.186 210.088C123.749 209.184 116.513 209.628 111.129 213.545C106.106 217.2 106.354 219.919 107.455 225.28C88.0935 228.25 80.3249 236.836 67.9824 251.554C66.278 253.586 64.8204 256.816 62.7305 258.24C55.6938 254.53 78.8399 200.289 44.3301 211.884C43.6294 212.121 42.9306 212.364 42.2354 212.616C36.0027 213.205 28.4616 221.127 20.7617 220.469C16.4116 217.848 20.4097 212.367 22.2402 208.917C19.3946 208.512 17.9272 208.825 15.9424 207.24C15.8354 199.693 41.3546 194.945 47.5479 194.414C33.1788 181.871 14.5879 188.679 0 175.68L0.183594 174.638C2.67456 172.69 7.38885 171.583 10.5605 170.623L4.9873 165.152C31.2802 157.294 35.6921 170.449 58.5078 171.785C59.5229 171.844 60.1288 170.539 60.5801 169.777C61.0552 154.222 27.7607 149.94 25.3926 143.234C33.8177 125.855 57.7748 143.343 65.6719 143.548L66.3877 142.67C65.4308 139.679 62.3581 137.221 59.959 135.297C42.9003 121.623 23.6436 127.321 5.98438 119.639C5.10026 119.254 5.23821 118.661 5.08691 117.701C7.62655 114.005 16.2594 111.525 21.0117 109.23C19.506 107.175 17.8101 105.507 17.8818 103.13C22.1866 96.1036 42.8099 104.446 49.6436 106.735C41.9011 86.7704 25.3008 85.3349 15.0137 69.0512C24.7099 65.2619 26.3679 65.519 36.3369 67.9194C36.0213 64.3503 34.5744 58.9518 35.4678 55.8442C38.2793 53.1649 40.2935 55.1938 42.9248 57.4946C55.5159 68.5026 57.3874 84.5784 64.5176 98.8276C68.3988 106.583 76.6301 125.584 86.8896 125.944C93.9426 125.663 89.7755 110.233 88.6885 105.773C83.1353 82.9885 72.4308 61.9349 55.377 45.5854C50.7807 41.145 40.143 33.3225 38.1182 27.8686C38.3964 25.0344 37.975 26.0211 39.501 23.892C41.0841 23.0886 43.3183 23.087 44.9902 23.5307C50.6647 25.0361 47.8425 18.3904 52.4658 14.6899C62.4376 11.8028 66.6968 42.6422 77.6709 46.9633C87.3154 46.1203 81.1961 14.0505 88.1875 7.25531C89.8479 5.6415 94.4779 6.49937 96.751 6.7514ZM174.009 108.693C157.63 111.998 136.239 123.146 126.719 137.164C122.379 143.554 115.182 157.74 116.494 165.404L117.338 166.084L119.209 165.53C129.944 159.241 174.638 122.094 177.223 111.872C177.481 110.85 177.284 110.54 176.945 109.542C175.85 108.966 175.285 108.707 174.009 108.693Z" fill="#037C46"/>
</svg>
