<svg width="199" height="198" viewBox="0 0 199 198" fill="none" xmlns="http://www.w3.org/2000/svg">
<path d="M83.5257 0C85.1721 0.0338867 87.0117 0.090838 88.4372 0.996291C101.894 9.54794 110.343 52.885 120.963 62.7108C122.376 64.0174 123.952 64.8551 125.904 64.9487C141.531 65.6935 174.856 44.9561 191.761 44.3706C194.189 44.2865 196.1 44.6851 197.928 46.4025C203.694 59.6034 146.573 91.6561 144.446 103.508C141.992 117.18 173.417 145.76 181.863 157.748C184.039 160.837 186.53 164.866 185.829 168.792C184.782 170.314 184.279 171.022 182.353 171.49C172.27 173.936 136.598 151.603 126.312 145.746C123.304 144.149 119.603 142.362 116.292 141.553C114.037 141.003 112.481 141.174 110.467 142.298C95.7005 150.536 78.4381 186.441 61.3404 196.118C59.4473 197.19 57.8741 197.667 55.7085 197.045C42.6349 187.461 78.5689 134.589 71.1198 118.492C69.8354 115.716 67.2211 113.605 64.6535 112.074C52.5777 104.877 29.7593 98.9391 15.7226 93.0624C11.1629 91.1533 1.93932 87.5104 0.228527 82.6016C-0.287285 81.1221 0.14855 80.6436 0.7579 79.2969C9.62702 71.9056 53.5355 77.0103 67.7498 75.2008C70.6711 74.8287 75.9472 74.1584 78.0077 71.8005C88.0935 60.2601 73.6399 12.7773 83.5257 0Z" fill="#F9F40C"/>
<path d="M87.4123 10.6771C93.9504 18.9786 106.813 80.2885 109.789 93.0069C126.149 85.3424 142.07 76.4519 157.925 67.7952C168.966 61.7667 180.073 55.2117 191.939 50.9412C166.67 68.6776 140.797 85.5362 114.365 101.488C130.844 124.559 159.084 146.702 180.32 165.85C157.509 154.207 137.855 136.135 118.613 119.459C114.832 116.122 111.115 112.713 107.464 109.234C92.0214 135.383 79.0061 166.55 59.3815 189.769C64.4258 177.26 71.1815 165.238 77.0215 153.074C84.5947 137.085 91.757 120.905 98.5026 104.551C80.1509 100.537 61.8461 96.3156 43.5906 91.8859C31.5622 88.9642 19.441 86.258 7.77524 82.071C18.1172 82.7019 28.4158 84.5467 38.6474 86.1035C59.0426 89.2068 79.5457 92.7751 100.093 94.6687C97.3951 79.4027 95.87 63.783 93.5289 48.4323C91.6127 35.8678 88.7652 23.3026 87.4123 10.6771Z" fill="#5252EE"/>
</svg>
