<svg width="177" height="133" viewBox="0 0 177 133" fill="none" xmlns="http://www.w3.org/2000/svg">
<path d="M97.0527 0L99.1715 0.28261C105.464 3.93289 102.936 27.4232 106.209 35.0951C107.24 37.5112 108.886 38.6952 111.391 39.3221C116.645 40.6376 122.688 39.5621 128.021 39.1934C138.863 38.4438 163.983 35.8881 173.19 39.9158C175.158 40.7766 175.991 41.6881 176.774 43.6197C175.193 52.3841 130.788 61.8744 122.185 69.1784C120.451 70.6511 119.433 72.5779 119.636 74.8869C120.7 86.9547 150.537 117.701 149.411 129.96C149.05 130.611 148.687 131.636 148.048 132.01C136.052 139.036 100.069 96.5012 87.0564 93.181C82.6404 92.0546 78.5004 95.0495 74.8822 97.162C60.9214 106.381 45.8443 115.644 30.4834 122.295C25.9725 124.248 16.9838 127.977 12.3175 125.859C10.953 125.239 10.9095 124.772 10.3845 123.466C10.6934 120.611 11.966 118.607 13.6784 116.36C16.9744 112.038 21.1519 108.215 24.9688 104.348C36.0622 93.1105 48.6111 81.587 56.5862 67.8629C44.53 53.0076 21.3758 50.2208 5.32669 41.7904C3.26033 40.7054 0.727695 39.3018 0 36.9636C3.08484 28.9684 34.5627 31.3005 42.1703 32.2507C49.52 33.169 63.794 37.0971 70.4426 35.9267C76.0928 34.9318 87.0008 6.77938 97.0527 0Z" fill="#9DD309"/>
<path d="M96.6977 6.78809L97.4562 7.38991C94.4867 23.8772 92.7264 39.9673 91.9002 56.6931C114.46 50.7141 148.387 44.7954 171.537 43.7056C159.617 47.1682 147.286 49.5497 135.239 52.5765C121.415 56.0499 107.709 60.1793 93.996 64.0675C103.473 78.8333 115.639 92.6659 126.839 106.202C131.845 112.251 139.509 119.331 142.751 126.381C122.966 109.119 103.92 89.1254 87.0552 69.0522C84.2837 71.181 81.691 73.5984 79.055 75.8939C60.3604 92.7031 39.9809 109.155 17.7803 121.07C26.2015 113.39 35.4318 106.572 44.0842 99.1416C56.9436 88.1284 69.0818 76.2992 80.4222 63.728C65.9544 56.4213 51.3882 49.4128 35.9342 44.3996C26.4023 41.3078 16.6111 39.2868 6.96387 36.6186C33.1751 36.1991 59.1573 46.9994 83.2453 56.3013C86.7061 39.2956 90.2057 22.9941 96.6977 6.78809Z" fill="#890011"/>
</svg>
