<svg width="183" height="184" viewBox="0 0 183 184" fill="none" xmlns="http://www.w3.org/2000/svg">
<path d="M88.9427 0C90.5521 0.0522648 91.9495 0.156724 93.343 1.07136C102.175 6.79436 102.944 33.0314 105.752 43.1185C106.511 45.8493 108.525 50.6054 111.662 51.2849C123.241 53.7544 165.607 35.0696 181.91 44.8301C182.909 45.4311 182.766 46.5418 183 47.6263C177.025 58.0009 152.988 66.1149 142.222 73.8893C136.793 77.8092 132.603 82.4738 128.363 87.6219C134.88 102.125 146.314 113.454 156.832 125.057C161.285 129.956 168.433 136.62 168.091 143.702C154.116 155.958 117.995 119.125 100.359 122.417C100.054 122.47 99.7522 122.548 99.449 122.613C85.5416 136.516 72.0546 176.106 57.6359 183.45C56.0303 184.273 55.9223 184.077 54.2738 183.489C43.0987 167.561 64.7138 125.096 59.9179 104.608C55.6673 98.5322 23.6252 93.6193 15.0641 91.2021C9.36917 89.5819 3.01854 87.7657 0 82.4085L1.3844 79.5209C13.2178 71.0279 33.7855 70.649 47.8503 67.9574C53.9668 66.7814 63.0028 65.109 67.9509 61.2806C77.739 53.7022 79.5202 13.9808 88.9427 0Z" fill="#FE3F4D"/>
<path d="M88.0774 79.8214C87.7027 70.4399 85.5976 36.5069 88.8386 29.8562C89.8222 34.6254 90.327 35.3049 91.42 39.2379C94.4775 50.2657 94.8054 65.5923 96.3992 77.3388C114.987 67.696 153.669 47.1167 174.439 48.2927C170.232 50.9451 165.803 51.9643 161.119 53.5584C140.021 60.6795 119.447 72.426 101.096 84.9696C115.013 99.4862 129.671 113.415 144.995 126.442C149.48 130.257 152.843 132.099 156.269 137.195L154.82 137.692C148.772 134.046 144.102 129.368 138.167 125.357C123.112 115.205 109.271 103.027 94.7143 92.0906C85.7953 112.03 72.1845 140.187 64.5875 160.309L62.1323 159.669C66.53 141.703 79.8311 105.601 87.9343 88.3799C61.0082 87.23 29.4268 85.8972 3.1187 80.932C31.3914 79.4947 59.7331 80.9713 88.0774 79.8214Z" fill="#00AD5B"/>
</svg>
